<?xml version="1.0" standalone="no"?>
<!DOCTYPE svg PUBLIC "-//W3C//DTD SVG 1.1//EN" "http://www.w3.org/Graphics/SVG/1.1/DTD/svg11.dtd" >
<svg>
<metadata>
Created by FontForge 20090914 at Tue Mar 11 19:18:42 2014
 By www-data
[c] Copyright 1999, Tobias Frere-Jones. Designed by Tobias Frere-Jones. Produced by The Font Bureau, Inc. All rights reserved.
</metadata>
<defs>
<font id="Interstate-ExtraLight" horiz-adv-x="720" >
  <font-face 
    font-family="Interstate"
    font-weight="400"
    font-stretch="normal"
    units-per-em="1000"
    panose-1="2 0 5 6 3 0 0 2 0 4"
    ascent="800"
    descent="-200"
    x-height="525"
    cap-height="700"
    bbox="-44 -196.001 1233 897.003"
    underline-thickness="20"
    underline-position="-113"
    unicode-range="U+0020-U+FB02"
  />
<missing-glyph horiz-adv-x="500" 
 />
    <glyph glyph-name=".notdef" horiz-adv-x="500" 
 />
    <glyph glyph-name="space" unicode=" " horiz-adv-x="251" 
 />
    <glyph glyph-name="exclam" unicode="!" horiz-adv-x="244" 
d="M134 163h-25l-10 208v329h45v-329zM159 31c0 -10 -3.83301 -18.667 -11.5 -26s-16.167 -11 -25.5 -11c-10 0 -18.667 3.66699 -26 11s-11 16 -11 26s3.66699 18.833 11 26.5s16 11.5 26 11.5c9.33301 0 17.833 -3.83301 25.5 -11.5s11.5 -16.5 11.5 -26.5z" />
    <glyph glyph-name="quotedbl" unicode="&#x22;" horiz-adv-x="441" 
d="M337 428h-36l-9 272h54zM139 428h-35l-10 272h55z" />
    <glyph glyph-name="numbersign" unicode="#" horiz-adv-x="658" 
d="M477 194v-194h-45v194h-206v-194h-44v194h-127v42h127v228h-127v41h127v195h44v-195h206v195h45v-195h126v-41h-126v-228h126v-42h-126zM432 464h-206v-228h206v228z" />
    <glyph glyph-name="dollar" unicode="$" horiz-adv-x="568" 
d="M498 179c0 -27.333 -5.00195 -51.833 -15.002 -73.5s-23.667 -40.334 -41 -56.001s-38 -28 -62 -37s-50.333 -14.5 -79 -16.5v-96h-44v96c-40.667 2.66699 -77.334 11 -110.001 25s-62 32.667 -88 56l27 35c28.667 -23.333 58.667 -41.666 90 -54.999
s66.666 -20 105.999 -20c24 0 46.333 2.83301 67 8.5s38.667 14.334 54 26.001s27.333 26.167 36 43.5s13 37.666 13 60.999c0 19.333 -3 36.5 -9 51.5s-16 29 -30 42s-32.833 25.333 -56.5 37s-52.834 24.167 -87.501 37.5c-37.333 14 -68.666 27.333 -93.999 40
s-45.666 26.167 -60.999 40.5s-26.166 30.5 -32.499 48.5s-9.5 39 -9.5 63c0 23.333 4.16699 44.833 12.5 64.5s20.333 36.834 36 51.501s35 26.5 58 35.5s49.167 14.5 78.5 16.5v96h44v-95c41.333 -2 76 -9 104 -21s54.667 -27 80 -45l-26 -37
c-26 18.667 -52.833 33.5 -80.5 44.5s-61.167 16.5 -100.5 16.5c-27.333 0 -51.166 -3.33301 -71.499 -10s-37 -15.834 -50 -27.501s-22.667 -25 -29 -40s-9.5 -30.833 -9.5 -47.5c0 -17.333 2.33301 -32.666 7 -45.999s13.5 -25.833 26.5 -37.5s31 -23.167 54 -34.5
s52.5 -23.666 88.5 -36.999c38.667 -14.667 71.167 -28.834 97.5 -42.501s47.333 -28.5 63 -44.5s26.834 -33.333 33.501 -52s10 -40.334 10 -65.001z" />
    <glyph glyph-name="ampersand" unicode="&#x26;" horiz-adv-x="628" 
d="M529 0l-70.002 88.9961c-28 -33.333 -59 -58.333 -93 -75s-70.333 -25 -109 -25c-33.333 0 -62.5 4.5 -87.5 13.5s-45.667 21.667 -62 38s-28.5 35.833 -36.5 58.5s-12 47.334 -12 74.001c0 51.333 14.5 94.5 43.5 129.5s69.167 65.167 120.5 90.5l-23 30
c-19.333 25.333 -35.5 49.333 -48.5 72s-19.5 48.334 -19.5 77.001c0 20.667 4 39.5 12 56.5s19.333 31.667 34 44s31.834 21.833 51.501 28.5s41.5 10 65.5 10c38 0 71.5 -5.33301 100.5 -16s56.167 -25.667 81.5 -45l-24 -36c-26 19.333 -51.167 33.666 -75.5 42.999
s-52.166 14 -83.499 14c-34 0 -61.833 -8.66699 -83.5 -26s-32.5 -41 -32.5 -71c0 -23.333 5 -44.166 15 -62.499s23.667 -38.833 41 -61.5l227 -292c12 19.333 22.833 41.333 32.5 66s18.5 51.334 26.5 80.001l39 -11c-17.333 -65.333 -41.333 -121.666 -72 -168.999
l96 -124h-54zM246.998 362.996c-96 -45.333 -144 -108.333 -144 -189c0 -44 13.667 -79.167 41 -105.5s65.333 -39.5 114 -39.5c34 0 66 7.33301 96 22s56.667 37.667 80 69z" />
    <glyph glyph-name="quotesingle" unicode="'" horiz-adv-x="241" 
d="M139 428h-37l-9 272h55z" />
    <glyph glyph-name="parenleft" unicode="(" horiz-adv-x="349" 
d="M259 -110c-23.333 22.667 -46.002 48.3369 -68.002 77.0039s-41.667 60 -59 94s-31.333 70.833 -42 110.5s-16 82.5 -16 128.5c0 48.667 5 93.167 15 133.5s23.5 77.5 40.5 111.5s36.833 65.167 59.5 93.5s46.334 54.166 71.001 77.499l19 -18
c-23.333 -24.667 -44.833 -50.834 -64.5 -78.501s-36.5 -57.5 -50.5 -89.5s-25 -66.833 -33 -104.5s-12 -78.5 -12 -122.5c0 -43.333 4.16699 -83.833 12.5 -121.5s19.833 -72.834 34.5 -105.501s31.834 -62.834 51.501 -90.501s40.5 -53.5 62.5 -77.5z" />
    <glyph glyph-name="parenright" unicode=")" horiz-adv-x="349" 
d="M275 306c0 -48.667 -4.99707 -93.3369 -14.9971 -134.004s-23.5 -78 -40.5 -112s-36.833 -65 -59.5 -93s-46.334 -53.667 -71.001 -77l-19 18c23.333 24.667 44.833 50.834 64.5 78.501s36.5 57.5 50.5 89.5s25 66.833 33 104.5s12 78.5 12 122.5
c0 43.333 -4.16699 83.833 -12.5 121.5s-19.833 72.834 -34.5 105.501s-31.834 62.834 -51.501 90.501s-40.5 53.5 -62.5 77.5l21 18c22.667 -23.333 45.167 -49.166 67.5 -77.499s42.166 -59.5 59.499 -93.5s31.333 -70.833 42 -110.5s16 -82.5 16 -128.5z" />
    <glyph glyph-name="asterisk" unicode="*" horiz-adv-x="487" 
d="M397 402l-145 96l10 -174h-37l10 174l-145 -96l-18 32l153 78l-153 78l18 32l145 -96l-10 174h37l-10 -174l145 96l18 -32l-153 -78l153 -78z" />
    <glyph glyph-name="plus" unicode="+" horiz-adv-x="573" 
d="M308 324v-227h-43v227h-210v40h210v227h43v-227h210v-40h-210z" />
    <glyph glyph-name="comma" unicode="," horiz-adv-x="211" 
d="M96 -96h-32l17 187h59z" />
    <glyph glyph-name="hyphen" unicode="-" horiz-adv-x="317" 
d="M51 343v43h214v-43h-214z" />
    <glyph glyph-name="period" unicode="." horiz-adv-x="211" 
d="M143 32c0 -10.667 -3.83301 -19.667 -11.5 -27s-16.5 -11 -26.5 -11c-10.667 0 -19.667 3.66699 -27 11s-11 16.333 -11 27s3.66699 20 11 28s16.333 12 27 12c10 0 18.833 -4 26.5 -12s11.5 -17.333 11.5 -28z" />
    <glyph glyph-name="slash" unicode="/" horiz-adv-x="414" 
d="M82 -90h-43l293 880h44z" />
    <glyph glyph-name="zero" unicode="0" horiz-adv-x="646" 
d="M583 350c0 -57.333 -6.16699 -108.333 -18.5 -153s-30 -82.334 -53 -113.001s-50.5 -54.167 -82.5 -70.5s-67.333 -24.5 -106 -24.5s-74 8.16699 -106 24.5s-59.333 39.833 -82 70.5s-40.167 68.334 -52.5 113.001s-18.5 95.667 -18.5 153
c0 56.667 6.16699 107.5 18.5 152.5s29.833 82.833 52.5 113.5s50 54.167 82 70.5s67.333 24.5 106 24.5s74 -8.16699 106 -24.5s59.5 -39.833 82.5 -70.5s40.667 -68.5 53 -113.5s18.5 -95.833 18.5 -152.5zM537 350c0 49.333 -4.83301 93.833 -14.5 133.5
s-23.667 73.334 -42 101.001s-40.666 48.834 -66.999 63.501s-56.5 22 -90.5 22s-64.167 -7.33301 -90.5 -22s-48.666 -35.834 -66.999 -63.501s-32.333 -61.334 -42 -101.001s-14.5 -84.167 -14.5 -133.5s4.83301 -93.833 14.5 -133.5s23.667 -73.334 42 -101.001
s40.666 -48.834 66.999 -63.501s56.5 -22 90.5 -22s64.167 7.33301 90.5 22s48.666 35.834 66.999 63.501s32.333 61.334 42 101.001s14.5 84.167 14.5 133.5z" />
    <glyph glyph-name="one" unicode="1" horiz-adv-x="292" 
d="M148 0l-0.00390625 626.001c-2 -4 -6.66699 -8.5 -14 -13.5s-16.666 -9.83301 -27.999 -14.5s-24.166 -8.5 -38.499 -11.5s-29.166 -4.5 -44.499 -4.5v38c32 1.33301 60.833 8.66602 86.5 21.999s41.834 33.333 48.501 60h35v-702h-45z" />
    <glyph glyph-name="two" unicode="2" horiz-adv-x="559" 
d="M47 0c2 35.333 7.66699 67.3359 17 96.0029s23 55.667 41 81s40.167 49.666 66.5 72.999s57.5 47.666 93.5 72.999c34 24 61.833 45 83.5 63s38.667 34.833 51 50.5s20.833 31.167 25.5 46.5s7 32.333 7 51c0 44 -14.167 77.667 -42.5 101s-67.5 35 -117.5 35
c-40 0 -74 -5.16699 -102 -15.5s-53.333 -24.166 -76 -41.499l-24 32c26 19.333 55 35.166 87 47.499s70.667 18.5 116 18.5c30 0 57.5 -3.5 82.5 -10.5s46.5 -17.833 64.5 -32.5s32.167 -32.834 42.5 -54.501s15.5 -47.167 15.5 -76.5c0 -24.667 -3 -46.5 -9 -65.5
s-16 -37.5 -30 -55.5s-32.667 -36.5 -56 -55.5s-52.333 -40.833 -87 -65.5c-36.667 -26 -67.167 -49.667 -91.5 -71s-43.833 -42 -58.5 -62s-25.667 -39.5 -33 -58.5s-12.333 -38.833 -15 -59.5h387v-44h-438z" />
    <glyph glyph-name="three" unicode="3" horiz-adv-x="548" 
d="M480 195c0 -65.333 -21.1689 -115.998 -63.502 -151.998s-100.5 -54 -174.5 -54c-19.333 0 -38.666 2 -57.999 6s-37.833 9.5 -55.5 16.5s-34 15.167 -49 24.5s-27.5 19 -37.5 29l27 33c21.333 -19.333 47.666 -35.5 78.999 -48.5s63.333 -19.5 96 -19.5
c62.667 0 110.167 14.333 142.5 43s48.5 69 48.5 121c0 26.667 -4.5 49.834 -13.5 69.501s-21.667 35.834 -38 48.501s-35.833 22 -58.5 28s-47.334 9 -74.001 9h-45v39h46c50.667 0 89 12.667 115 38s39 59 39 101c0 42.667 -12.833 77.167 -38.5 103.5
s-66.5 39.5 -122.5 39.5c-34 0 -64.167 -6 -90.5 -18s-46.833 -24.667 -61.5 -38l-28 29c8 8 18 16 30 24s25.833 15.167 41.5 21.5s32.834 11.666 51.501 15.999s38.334 6.5 59.001 6.5c30 0 57.667 -3.83301 83 -11.5s47 -19 65 -34s32 -33.667 42 -56s15 -48.5 15 -78.5
c0 -26.667 -3.66699 -49.334 -11 -68.001s-16.666 -34.334 -27.999 -47.001s-24.333 -22.667 -39 -30s-29 -12.333 -43 -15c18 -2.66699 35.833 -7.83398 53.5 -15.501s33.5 -18.5 47.5 -32.5s25.5 -31.667 34.5 -53s13.5 -46.333 13.5 -75z" />
    <glyph glyph-name="four" unicode="4" horiz-adv-x="595" 
d="M450 179v-179h-42v179h-371v38l364 486h49v-485h104v-39h-104zM408 646l-320 -428h320v428z" />
    <glyph glyph-name="five" unicode="5" horiz-adv-x="589" 
d="M529 223c0 -38.667 -6.33105 -72.501 -18.998 -101.501s-30.5 -53.333 -53.5 -73s-50.167 -34.5 -81.5 -44.5s-66 -15 -104 -15c-42.667 0 -81.834 5.5 -117.501 16.5s-64.5 23.5 -86.5 37.5l21 38c21.333 -13.333 48.333 -25.166 81 -35.499s68 -15.5 106 -15.5
c65.333 0 116.333 17.333 153 52s55 80.667 55 138c0 52 -15.167 93.5 -45.5 124.5s-78.5 46.5 -144.5 46.5c-38 0 -70.333 -5 -97 -15s-49.334 -23.333 -68.001 -40l-46 18l26 346h385v-44h-346l-20 -277c17.333 15.333 40.333 28 69 38s62 15 100 15
c40 0 74.667 -5 104 -15s53.5 -24.167 72.5 -42.5s33.167 -40.333 42.5 -66s14 -54.167 14 -85.5z" />
    <glyph glyph-name="six" unicode="6" horiz-adv-x="610" 
d="M561 213c0 -34.667 -6.16895 -65.832 -18.502 -93.499s-29.5 -51.167 -51.5 -70.5s-48 -34.166 -78 -44.499s-62.667 -15.5 -98 -15.5c-36 0 -69.167 5.16699 -99.5 15.5s-56.5 26.5 -78.5 48.5s-39 50 -51 84s-18 74.667 -18 122c0 31.333 2.83301 63.5 8.5 96.5
s14.667 65.5 27 97.5s28.5 62.5 48.5 91.5s44.167 54.833 72.5 77.5s61.166 41.667 98.499 57s80 25.333 128 30v-41c-54 -6.66699 -101 -20.667 -141 -42s-73.667 -48 -101 -80s-48.666 -68.167 -63.999 -108.5s-25.666 -82.5 -30.999 -126.5
c15.333 33.333 41.333 60.833 78 82.5s82.334 32.5 137.001 32.5c32.667 0 63 -4.33301 91 -13s52.5 -21.834 73.5 -39.501s37.5 -39.834 49.5 -66.501s18 -58 18 -94zM514.998 211.002c0 57.333 -17.8359 100.668 -53.5029 130.001s-83.5 44 -143.5 44
c-30 0 -57.5 -4.33301 -82.5 -13s-46.5 -20.834 -64.5 -36.501s-31.833 -34 -41.5 -55s-14.5 -43.833 -14.5 -68.5c2.66699 -56.667 21.834 -101.167 57.501 -133.5s83.834 -48.5 144.501 -48.5c30.667 0 58.334 4.66699 83.001 14s45.5 22 62.5 38s30 35 39 57
s13.5 46 13.5 72z" />
    <glyph glyph-name="seven" unicode="7" horiz-adv-x="538" 
d="M471 657c-32 -39.333 -62.502 -82.5 -91.502 -129.5s-55 -97.833 -78 -152.5s-41.833 -113.167 -56.5 -175.5s-23 -128.833 -25 -199.5h-47c2.66699 67.333 10.834 131.5 24.501 192.5s31.5 118.833 53.5 173.5s47.333 106.167 76 154.5s59.334 93.5 92.001 135.5h-395
v44h447v-43v0z" />
    <glyph glyph-name="eight" unicode="8" horiz-adv-x="621" 
d="M563 190c0 -33.333 -6.16699 -62.501 -18.5 -87.501s-29.5 -45.833 -51.5 -62.5s-48.5 -29.334 -79.5 -38.001s-65.5 -13 -103.5 -13s-72.5 4.16699 -103.5 12.5s-57.5 21 -79.5 38s-39 37.833 -51 62.5s-18 53.667 -18 87c0 51.333 15.5 92.333 46.5 123
s72.5 50.667 124.5 60c-19.333 4.66699 -37.666 11.167 -54.999 19.5s-32.333 19 -45 32s-22.667 28.333 -30 46s-11 37.834 -11 60.501c0 27.333 5.33301 52.166 16 74.499s25.667 41.333 45 57s42.833 27.834 70.5 36.501s58.167 13 91.5 13
c34 0 64.667 -4.16699 92 -12.5s50.666 -20.333 69.999 -36s34.166 -34.667 44.499 -57s15.5 -47.166 15.5 -74.499c0 -22.667 -3.66699 -42.667 -11 -60s-17.333 -32.5 -30 -45.5s-27.5 -23.667 -44.5 -32s-35.5 -14.833 -55.5 -19.5
c52.667 -10 94.334 -30.333 125.001 -61s46 -71.667 46 -123zM487 529.999c0 40.667 -15.332 74.167 -45.999 100.5s-74.334 39.5 -131.001 39.5s-100.167 -13 -130.5 -39s-45.5 -59.333 -45.5 -100c0 -43.333 16.167 -77.5 48.5 -102.5s75.166 -37.5 128.499 -37.5
c26 0 49.833 3.33301 71.5 10s40.334 16 56.001 28s27.667 26.5 36 43.5s12.5 36.167 12.5 57.5zM518.001 188.999c0 50 -18.666 89.167 -55.999 117.5s-88 42.5 -152 42.5s-114.5 -14 -151.5 -42s-55.5 -67 -55.5 -117s18.333 -89.167 55 -117.5s87.667 -42.5 153 -42.5
s116.166 14 152.499 42s54.5 67 54.5 117z" />
    <glyph glyph-name="nine" unicode="9" horiz-adv-x="610" 
d="M542 441c0 -47.333 -6.5 -96.002 -19.5 -146.002s-34.5 -96.5 -64.5 -139.5s-69.5 -79.5 -118.5 -109.5s-109.167 -48.333 -180.5 -55v41c54.667 6.66699 102 20.667 142 42s73.5 48 100.5 80s48.167 68.167 63.5 108.5s25.333 82.5 30 126.5
c-15.333 -34 -41 -61.667 -77 -83s-81.667 -32 -137 -32c-32.667 0 -63 4.33301 -91 13s-52.5 21.834 -73.5 39.501s-37.5 39.834 -49.5 66.501s-18 58 -18 94c0 34.667 6.16699 65.834 18.5 93.501s29.5 51.167 51.5 70.5s48 34.166 78 44.499s62.667 15.5 98 15.5
c36 0 69.167 -5.16699 99.5 -15.5s56.5 -26.5 78.5 -48.5s39 -50 51 -84s18 -74.667 18 -122zM495 487.998c-2.66699 56.667 -21.832 101.165 -57.499 133.498s-83.834 48.5 -144.501 48.5c-30.667 0 -58.334 -4.66699 -83.001 -14s-45.5 -22 -62.5 -38s-30 -35 -39 -57
s-13.5 -46 -13.5 -72c0 -57.333 17.833 -100.666 53.5 -129.999s83.834 -44 144.501 -44c30 0 57.333 4.33301 82 13s46 20.834 64 36.501s31.833 34 41.5 55s14.5 43.833 14.5 68.5z" />
    <glyph glyph-name="colon" unicode=":" horiz-adv-x="211" 
d="M143 491c0 -10.667 -3.83301 -19.667 -11.5 -27s-16.5 -11 -26.5 -11c-10.667 0 -19.667 3.66699 -27 11s-11 16.333 -11 27s3.66699 20 11 28s16.333 12 27 12c10 0 18.833 -4 26.5 -12s11.5 -17.333 11.5 -28zM143 32c0 -10.667 -3.83301 -19.667 -11.5 -27
s-16.5 -11 -26.5 -11c-10.667 0 -19.667 3.66699 -27 11s-11 16.333 -11 27s3.66699 20 11 28s16.333 12 27 12c10 0 18.833 -4 26.5 -12s11.5 -17.333 11.5 -28z" />
    <glyph glyph-name="semicolon" unicode=";" horiz-adv-x="211" 
d="M143 491c0 -10.667 -3.83301 -19.667 -11.5 -27s-16.5 -11 -26.5 -11c-10.667 0 -19.667 3.66699 -27 11s-11 16.333 -11 27s3.66699 20 11 28s16.333 12 27 12c10 0 18.833 -4 26.5 -12s11.5 -17.333 11.5 -28zM88 -96h-31l16 187h60z" />
    <glyph glyph-name="less" unicode="&#x3c;" horiz-adv-x="385" 
d="M55 324v40l258 261v-56l-223 -224l223 -225v-57z" />
    <glyph glyph-name="equal" unicode="=" horiz-adv-x="579" 
d="M84 428v41h411v-41h-411zM84 219v41h411v-41h-411z" />
    <glyph glyph-name="greater" unicode="&#x3e;" horiz-adv-x="385" 
d="M72 63v57l223 223l-223 225v57l258 -261v-40z" />
    <glyph glyph-name="question" unicode="?" horiz-adv-x="557" 
d="M478 546c0 -22.667 -2.50195 -42.165 -7.50195 -58.498s-12.5 -31.333 -22.5 -45s-22.667 -26.834 -38 -39.501l-53 -42c-17.333 -13.333 -31.333 -25.333 -42 -36s-19 -23 -25 -37s-10 -30.833 -12 -50.5s-3 -44.5 -3 -74.5h-46c0 34.667 1.33301 63.167 4 85.5
s7.83398 41.666 15.501 57.999s18.334 31.166 32.001 44.499s31.834 28 54.501 44c16.667 12.667 31.167 24.5 43.5 35.5s22.5 22 30.5 33s13.833 22.833 17.5 35.5s5.5 27.334 5.5 44.001c0 38 -14.333 68.5 -43 91.5s-67 34.5 -115 34.5
c-40.667 0 -76.167 -6.66699 -106.5 -20s-58.5 -31 -84.5 -53l-26 33c26 23.333 56.667 42.833 92 58.5s77.666 23.5 126.999 23.5c30 0 57.333 -3.66699 82 -11s46 -18 64 -32s31.833 -31.333 41.5 -52s14.5 -44 14.5 -70zM288.998 31.002
c0 -10 -3.83301 -18.667 -11.5 -26s-16.167 -11 -25.5 -11c-10 0 -18.667 3.66699 -26 11s-11 16 -11 26s3.66699 18.833 11 26.5s16 11.5 26 11.5c9.33301 0 17.833 -3.83301 25.5 -11.5s11.5 -16.5 11.5 -26.5z" />
    <glyph glyph-name="at" unicode="@" horiz-adv-x="836" 
d="M779 360c0 -37.333 -3.66797 -69.1689 -11.001 -95.502s-17.5 -47.833 -30.5 -64.5s-28.5 -28.834 -46.5 -36.501s-37.333 -11.5 -58 -11.5c-25.333 0 -46.833 6.5 -64.5 19.5s-29.834 30.833 -36.501 53.5c-15.333 -22.667 -34.833 -40.5 -58.5 -53.5
s-50.167 -19.5 -79.5 -19.5c-19.333 0 -37.833 2.5 -55.5 7.5s-33.167 12.667 -46.5 23s-24 23.5 -32 39.5s-12 35.333 -12 58c0 21.333 4 40.166 12 56.499s19 30 33 41s30.5 19.333 49.5 25s39.167 8.5 60.5 8.5c26.667 0 50 -3 70 -9s37.667 -13.667 53 -23v65
c0 33.333 -9 56.833 -27 70.5s-46.667 20.5 -86 20.5c-21.333 0 -40.666 -2.5 -57.999 -7.5s-34.666 -11.5 -51.999 -19.5l-12 28c18 8.66699 37.333 15.834 58 21.501s43.334 8.5 68.001 8.5c44 0 78.333 -8.66699 103 -26s37 -48.666 37 -93.999v-185
c0 -25.333 6.5 -45.333 19.5 -60s33.167 -22 60.5 -22c16 0 30.833 3.33301 44.5 10s25.5 17.167 35.5 31.5s17.833 32.833 23.5 55.5s8.5 50.334 8.5 83.001c0 46 -8.16699 88.833 -24.5 128.5s-39.166 74 -68.499 103s-64.333 51.667 -105 68s-85 24.5 -133 24.5
s-92.167 -8.16699 -132.5 -24.5s-75.333 -39 -105 -68s-52.667 -64 -69 -105s-24.5 -85.833 -24.5 -134.5c0 -49.333 8.16699 -94.5 24.5 -135.5s39.333 -76.167 69 -105.5s64.667 -52.166 105 -68.499s84.5 -24.5 132.5 -24.5c28 0 53 2.5 75 7.5s45 13.167 69 24.5l10 -26
c-28.667 -13.333 -54.334 -22.333 -77.001 -27s-48.334 -7 -77.001 -7c-52 0 -100.167 9 -144.5 27s-82.5 43 -114.5 75s-57 70.167 -75 114.5s-27 92.5 -27 144.5s9 100.167 27 144.5s43 82.5 75 114.5s70.167 57 114.5 75s92.5 27 144.5 27
c53.333 0 102.166 -9.33301 146.499 -28s82.333 -44 114 -76s56.334 -69.333 74.001 -112s26.5 -87.667 26.5 -135zM525.999 348.997c-15.333 8.66699 -33.334 16.334 -54.001 23.001s-44.667 10 -72 10c-34 0 -62.333 -8.66699 -85 -26s-34 -42 -34 -74
c0 -34.667 10.667 -59.834 32 -75.501s49.333 -23.5 84 -23.5c26.667 0 51.334 6.83301 74.001 20.5s41 31.167 55 52.5v93z" />
    <glyph glyph-name="A" unicode="A" horiz-adv-x="664" 
d="M554 0l-67 193h-311l-67 -193h-47l245 702h50l245 -702h-48zM332 646l-142 -411h283z" />
    <glyph glyph-name="B" unicode="B" horiz-adv-x="607" 
d="M547 203c0 -67.333 -19.668 -118.003 -59.001 -152.003s-94.666 -51 -165.999 -51h-226v700h225c25.333 0 49.333 -3.16699 72 -9.5s42.5 -16.166 59.5 -29.499s30.5 -30.5 40.5 -51.5s15 -46.167 15 -75.5c0 -23.333 -3.16699 -43.666 -9.5 -60.999
s-14.833 -32.333 -25.5 -45s-22.667 -22.667 -36 -30s-27.333 -12.666 -42 -15.999c17.333 -2.66699 35 -8 53 -16s34.333 -19.333 49 -34s26.667 -32.667 36 -54s14 -46.333 14 -75zM461.999 531.997c0 42.667 -13.5 74.333 -40.5 95s-61.167 31 -102.5 31h-178v-259h176
c46 0 81.667 11.833 107 35.5s38 56.167 38 97.5zM500.999 200.996c0 24.667 -4.5 46.833 -13.5 66.5s-21.5 36.167 -37.5 49.5s-35 23.5 -57 30.5s-46.333 10.5 -73 10.5h-179v-316h184c58.667 0 102.667 14 132 42s44 67 44 117z" />
    <glyph glyph-name="C" unicode="C" horiz-adv-x="619" 
d="M559 85c-25.333 -30 -55.4971 -53.502 -90.4971 -70.502s-74.167 -25.5 -117.5 -25.5c-42 0 -80.333 8.83301 -115 26.5s-64.334 42.334 -89.001 74.001s-43.834 69.5 -57.501 113.5s-20.5 92.667 -20.5 146c0 54 7 103.167 21 147.5s33.5 82.333 58.5 114
s54.833 56.334 89.5 74.001s73 26.5 115 26.5c44 0 82 -7.33301 114 -22s60.333 -37 85 -67l-31 -32c-22.667 27.333 -47 47.333 -73 60s-58 19 -96 19c-34.667 0 -66.5 -7.66699 -95.5 -23s-54 -36.833 -75 -64.5s-37.333 -61 -49 -100s-17.5 -82.5 -17.5 -130.5
s6 -91.667 18 -131s28.5 -73 49.5 -101s46 -49.667 75 -65s60.5 -23 94.5 -23c36 0 68.167 7 96.5 21s55.166 35.333 80.499 64l30 -31v0z" />
    <glyph glyph-name="D" unicode="D" horiz-adv-x="661" 
d="M592 353c0 -62.667 -7.83398 -116.334 -23.501 -161.001s-37.667 -81.167 -66 -109.5s-62.166 -49.166 -101.499 -62.499s-83 -20 -131 -20h-174v700h182c47.333 0 90.333 -6.83301 129 -20.5s71.667 -34.667 99 -63s48.5 -64.333 63.5 -108s22.5 -95.5 22.5 -155.5z
M545.999 351c0 103.333 -23 180.333 -69 231s-113.667 76 -203 76h-132v-616h134c42.667 0 80.667 5.83301 114 17.5s61.5 30 84.5 55s40.667 57 53 96s18.5 85.833 18.5 140.5z" />
    <glyph glyph-name="E" unicode="E" horiz-adv-x="555" 
d="M96 0v700h396v-42h-350v-264h212v-42h-212v-310h365v-42h-411z" />
    <glyph glyph-name="F" unicode="F" horiz-adv-x="523" 
d="M142 658v-276h204v-42h-204v-340h-46v700h385v-42h-339z" />
    <glyph glyph-name="G" unicode="G" horiz-adv-x="662" 
d="M599 278c0 -47.333 -5.99512 -89.001 -17.9951 -125.001s-28.833 -66.167 -50.5 -90.5s-47.834 -42.666 -78.501 -54.999s-64.334 -18.5 -101.001 -18.5c-42 0 -80.333 8.83301 -115 26.5s-64.334 42.334 -89.001 74.001s-43.834 69.5 -57.501 113.5
s-20.5 92.667 -20.5 146s7 102.166 21 146.499s33.5 82.5 58.5 114.5s54.833 56.833 89.5 74.5s73 26.5 115 26.5c47.333 0 88.333 -8.33301 123 -25s63 -40 85 -70l-35 -30c-22 28 -46.333 48.833 -73 62.5s-60.334 20.5 -101.001 20.5c-34.667 0 -66.5 -7.66699 -95.5 -23
s-54 -37 -75 -65s-37.333 -61.5 -49 -100.5s-17.5 -82.167 -17.5 -129.5c0 -48 6 -91.667 18 -131s28.5 -73 49.5 -101s46 -49.667 75 -65s60.5 -23 94.5 -23c64.667 0 114.5 20.5 149.5 61.5s52.5 100.833 52.5 179.5v13h-152v42h197v-49v0z" />
    <glyph glyph-name="H" unicode="H" horiz-adv-x="674" 
d="M532 0v344h-390v-344h-46v700h46v-314h390v314h46v-700h-46z" />
    <glyph glyph-name="I" unicode="I" horiz-adv-x="249" 
d="M101 0v700h46v-700h-46z" />
    <glyph glyph-name="J" unicode="J" horiz-adv-x="560" 
d="M469 238c0 -85.333 -18.667 -148.167 -56 -188.5s-92 -60.5 -164 -60.5c-54 0 -98 12.333 -132 37s-59.667 61 -77 109l42 18c16 -39.333 37 -69.5 63 -90.5s61.333 -31.5 106 -31.5c57.333 0 100.333 16.667 129 50s43 86 43 158v461h46v-462v0z" />
    <glyph glyph-name="K" unicode="K" horiz-adv-x="616" 
d="M142 194v-194h-46v700h46v-442l344 442h52l-217 -278l250 -422h-52l-229 383z" />
    <glyph glyph-name="L" unicode="L" horiz-adv-x="539" 
d="M96 0v700h46v-658h346v-42h-392z" />
    <glyph glyph-name="M" unicode="M" horiz-adv-x="790" 
d="M649 0v602l-255 -614h-1l-252 614v-602h-45v700h52l247 -605l247 605h51v-700h-44z" />
    <glyph glyph-name="N" unicode="N" horiz-adv-x="671" 
d="M533 0l-392 621v-621h-45v700h45l389 -617v617h44v-700h-41z" />
    <glyph glyph-name="O" unicode="O" horiz-adv-x="714" 
d="M645 352c0 -54.667 -7.16699 -104.332 -21.5 -148.999s-34.166 -82.834 -59.499 -114.501s-55.833 -56.167 -91.5 -73.5s-74.5 -26 -116.5 -26s-80.667 8.5 -116 25.5s-65.666 41.333 -90.999 73s-45 69.667 -59 114s-21 93.833 -21 148.5s7.16699 104.167 21.5 148.5
s34.166 82.333 59.499 114s55.833 56 91.5 73s74.5 25.5 116.5 25.5s80.667 -8.5 116 -25.5s65.666 -41 90.999 -72s45 -68.667 59 -113s21 -93.833 21 -148.5zM599 350.002c0 49.333 -6.16699 93.6641 -18.5 132.997s-29.333 72.833 -51 100.5
s-47.334 48.834 -77.001 63.501s-61.834 22 -96.501 22s-66.667 -7.16699 -96 -21.5s-54.833 -35.166 -76.5 -62.499s-38.5 -60.666 -50.5 -99.999s-18 -83.666 -18 -132.999s6.16699 -93.833 18.5 -133.5s29.333 -73.334 51 -101.001s47.334 -49 77.001 -64
s61.834 -22.5 96.501 -22.5s66.667 7.33301 96 22s54.833 35.667 76.5 63s38.5 60.833 50.5 100.5s18 84.167 18 133.5z" />
    <glyph glyph-name="P" unicode="P" horiz-adv-x="594" 
d="M549 500c0 -68.667 -21.1689 -120.668 -63.502 -156.001s-100.5 -53 -174.5 -53h-169v-291h-46v700h229c32.667 0 62.834 -3.83301 90.501 -11.5s51.334 -19.5 71.001 -35.5s35 -36.667 46 -62s16.5 -55.666 16.5 -90.999zM501.998 497.999c0 56 -15.5 96.667 -46.5 122
s-75.167 38 -132.5 38h-181v-325h169c127.333 0 191 55 191 165z" />
    <glyph glyph-name="Q" unicode="Q" horiz-adv-x="715" 
d="M646 351c0 -70.667 -11.667 -132.336 -35 -185.003s-55 -94 -95 -124l41 -65l-37 -22l-41 64c-18 -9.33301 -37.167 -16.666 -57.5 -21.999s-41.833 -8 -64.5 -8c-42.667 0 -81.667 8.5 -117 25.5s-65.666 41.167 -90.999 72.5s-45 69.166 -59 113.499
s-21 93.833 -21 148.5s7.16699 104.334 21.5 149.001s34.166 82.834 59.499 114.501s55.833 56 91.5 73s74.5 25.5 116.5 25.5s80.667 -8.5 116 -25.5s65.833 -41.167 91.5 -72.5s45.5 -69.166 59.5 -113.499s21 -93.833 21 -148.5zM600 348.998
c0 49.333 -6.16797 93.8311 -18.501 133.498s-29.5 73.334 -51.5 101.001s-47.833 48.834 -77.5 63.501s-61.834 22 -96.501 22s-66.667 -7.33301 -96 -22s-54.833 -35.667 -76.5 -63s-38.5 -60.666 -50.5 -99.999s-18 -83.666 -18 -132.999s6.16699 -93.833 18.5 -133.5
s29.333 -73.334 51 -101.001s47.334 -48.834 77.001 -63.501s61.834 -22 96.501 -22c36.667 0 69.667 8 99 24l-64 103l37 23l64 -103c32.667 26 58.5 61.667 77.5 107s28.5 100 28.5 164z" />
    <glyph glyph-name="R" unicode="R" horiz-adv-x="623" 
d="M555 509c0 -56 -15.333 -99.668 -46 -131.001s-73 -51.666 -127 -60.999l161 -317h-53l-157 311h-191v-311h-46v700h234c32.667 0 62.667 -3.5 90 -10.5s51 -18.167 71 -33.5s35.667 -35 47 -59s17 -53.333 17 -88zM509 507.999c0 54 -16 92.5 -48 115.5
s-76.333 34.5 -133 34.5h-186v-305h174c63.333 0 111.333 12.333 144 37s49 64 49 118z" />
    <glyph glyph-name="S" unicode="S" horiz-adv-x="576" 
d="M501 176c0 -28.667 -5.33594 -54.4971 -16.0029 -77.4971s-25.667 -42.667 -45 -59s-42.333 -28.833 -69 -37.5s-56 -13 -88 -13c-46 0 -87.667 7.66699 -125 23s-70.666 35.666 -99.999 60.999l31 34c28.667 -24 58.667 -42.667 90 -56s66.666 -20 105.999 -20
c24 0 46.333 3 67 9s38.667 15 54 27s27.333 27 36 45s13 38.667 13 62c0 19.333 -3 36.5 -9 51.5s-16.167 29 -30.5 42s-33.166 25.5 -56.499 37.5s-52.333 24.333 -87 37c-38 14 -69.5 27.5 -94.5 40.5s-45.167 27 -60.5 42s-26.166 31.667 -32.499 50
s-9.5 39.5 -9.5 63.5c0 24.667 4.66699 47.667 14 69s23 39.666 41 54.999s40 27.333 66 36s55.333 13 88 13c23.333 0 44.5 -1.66699 63.5 -5s36.667 -7.83301 53 -13.5s31.5 -12.667 45.5 -21s28 -17.5 42 -27.5l-30 -36c-25.333 19.333 -51.333 34.333 -78 45
s-59.667 16 -99 16c-27.333 0 -51.166 -3.5 -71.499 -10.5s-37 -16.5 -50 -28.5s-22.667 -25.667 -29 -41s-9.5 -31.333 -9.5 -48c0 -18 2.33301 -33.833 7 -47.5s13.5 -26.5 26.5 -38.5s31 -23.833 54 -35.5s52.5 -23.834 88.5 -36.501
c38.667 -14.667 71 -28.834 97 -42.501s47 -28.5 63 -44.5s27.333 -33.667 34 -53s10 -41.666 10 -66.999z" />
    <glyph glyph-name="T" unicode="T" horiz-adv-x="574" 
d="M309 658v-658h-46v658h-217v42h480v-42h-217z" />
    <glyph glyph-name="U" unicode="U" horiz-adv-x="667" 
d="M576 270c0 -187.333 -80.667 -281 -242 -281c-80 0 -140.5 23 -181.5 69s-61.5 116.333 -61.5 211v431h46v-430c0 -81.333 16.5 -141.5 49.5 -180.5s82.833 -58.5 149.5 -58.5s115.667 19.333 147 58s47 98.667 47 180v431h46v-430v0z" />
    <glyph glyph-name="V" unicode="V" horiz-adv-x="658" 
d="M355 -2h-51l-242 702h48l219 -649l220 649h47z" />
    <glyph glyph-name="W" unicode="W" horiz-adv-x="875" 
d="M659 -2h-54l-168 637l-168 -637h-53l-149 702h46l130 -640l168 640h54l168 -640l131 640h45z" />
    <glyph glyph-name="X" unicode="X" horiz-adv-x="613" 
d="M501 0l-195 324l-196 -324h-50l222 365l-203 335h52l176 -293l177 293h50l-203 -334l222 -366h-52z" />
    <glyph glyph-name="Y" unicode="Y" horiz-adv-x="633" 
d="M339 288v-288h-46v287l-238 413h52l210 -366l210 366h51z" />
    <glyph glyph-name="Z" unicode="Z" horiz-adv-x="606" 
d="M61 0v40l422 620h-402v40h454v-40l-422 -620h422v-40h-474z" />
    <glyph glyph-name="bracketleft" unicode="[" horiz-adv-x="334" 
d="M100 -110v810h169v-36h-126v-738h126v-36h-169z" />
    <glyph glyph-name="backslash" unicode="\" horiz-adv-x="414" 
d="M332 -90l-293 880h43l294 -880h-44z" />
    <glyph glyph-name="bracketright" unicode="]" horiz-adv-x="334" 
d="M65 -110v36h126v738h-126v36h169v-810h-169z" />
    <glyph glyph-name="asciicircum" unicode="^" horiz-adv-x="550" 
d="M443 382l-168 270l-169 -270h-49l201 318h34l202 -318h-51z" />
    <glyph glyph-name="underscore" unicode="_" horiz-adv-x="500" 
d="M0 -133v37h500v-37h-500z" />
    <glyph glyph-name="grave" unicode="`" horiz-adv-x="500" 
d="M276 595l-130 147h63l103 -147h-36z" />
    <glyph glyph-name="a" unicode="a" horiz-adv-x="532" 
d="M406 0v78.998c-20 -25.333 -45 -46.666 -75 -63.999s-64.333 -26 -103 -26c-21.333 0 -42.5 2.66699 -63.5 8s-39.667 14.333 -56 27s-29.5 29.334 -39.5 50.001s-15 46.334 -15 77.001c0 28.667 5.33301 53.667 16 75s25.167 39 43.5 53s39.333 24.333 63 31
s48.5 10 74.5 10c32 0 61.167 -3.83301 87.5 -11.5s48.833 -16.834 67.5 -27.501v78c0 50 -11.167 85.833 -33.5 107.5s-56.833 32.5 -103.5 32.5c-30 0 -57 -3.83301 -81 -11.5s-47.333 -17.5 -70 -29.5l-16 36c23.333 12 49 22 77 30s59 12 93 12c28.667 0 54 -3 76 -9
s40.5 -15.833 55.5 -29.5s26.5 -31.5 34.5 -53.5s12 -48.667 12 -80v-364h-44zM406 244.998c-20 11.333 -42.502 20.666 -67.502 27.999s-54.833 11 -89.5 11c-44 0 -80.333 -11 -109 -33s-43 -54.667 -43 -98c0 -23.333 3.66699 -43.166 11 -59.499s17.333 -29.5 30 -39.5
s27.334 -17.333 44.001 -22s34.334 -7 53.001 -7c37.333 0 70.333 9.16699 99 27.5s52.667 41.833 72 70.5v122z" />
    <glyph glyph-name="b" unicode="b" horiz-adv-x="553" 
d="M496 268c0 -47.333 -4.99805 -88.5 -14.998 -123.5s-23.833 -64 -41.5 -87s-38.667 -40.167 -63 -51.5s-50.833 -17 -79.5 -17c-36 0 -68 8 -96 24s-51.667 37.333 -71 64v-77h-44v704l44 25v-283c19.333 26 43.666 47.5 72.999 64.5s62.666 25.5 99.999 25.5
c28 0 53.833 -5.16699 77.5 -15.5s44 -26.333 61 -48s30.333 -49.5 40 -83.5s14.5 -74.333 14.5 -121zM451.002 267c0 78.667 -14.1689 136.668 -42.502 174.001s-67.166 56 -116.499 56c-33.333 0 -63.666 -8.83301 -90.999 -26.5s-51 -40.834 -71 -69.501v-275
c18 -28 41.167 -51.333 69.5 -70s59.833 -28 94.5 -28c50 0 88.667 19.5 116 58.5s41 99.167 41 180.5z" />
    <glyph glyph-name="c" unicode="c" horiz-adv-x="492" 
d="M436 54c-20.667 -20 -44.167 -35.832 -70.5 -47.499s-57.166 -17.5 -92.499 -17.5c-28 0 -55 5.33301 -81 16s-49 27.167 -69 49.5s-36 50.5 -48 84.5s-18 74.667 -18 122c0 48 6.33301 89.333 19 124s29.334 63.167 50.001 85.5s44.167 38.833 70.5 49.5
s53.166 16 80.499 16c36 0 66.667 -5.5 92 -16.5s47.666 -24.833 66.999 -41.5l-27 -33c-18.667 16 -38.167 28.667 -58.5 38s-45.833 14 -76.5 14c-23.333 0 -45.333 -5 -66 -15s-38.834 -24.833 -54.501 -44.5s-28.167 -43.834 -37.5 -72.501s-14 -62 -14 -100
s4.33301 -71.833 13 -101.5s20.834 -54.5 36.501 -74.5s34 -35.167 55 -45.5s43.833 -15.5 68.5 -15.5c28 0 53 4.83301 75 14.5s42 23.167 60 40.5l26 -29v0z" />
    <glyph glyph-name="d" unicode="d" horiz-adv-x="553" 
d="M423 0v78.999c-19.333 -26 -43.5 -47.5 -72.5 -64.5s-62.167 -25.5 -99.5 -25.5c-28 0 -53.833 5.16699 -77.5 15.5s-44.167 26.333 -61.5 48s-30.833 49.334 -40.5 83.001s-14.5 74.167 -14.5 121.5s5 88.5 15 123.5s23.833 64 41.5 87s38.667 40.167 63 51.5
s50.833 17 79.5 17c36 0 68 -8 96 -24s51.667 -37.333 71 -64v256l44 25v-729h-44zM423 398.999c-17.333 28 -40.167 51.332 -68.5 69.999s-59.833 28 -94.5 28c-50.667 0 -89.667 -19.5 -117 -58.5s-41 -99.167 -41 -180.5c0 -78.667 14.167 -136.667 42.5 -174
s67.5 -56 117.5 -56c32.667 0 62.667 8.83301 90 26.5s51 40.834 71 69.501v275z" />
    <glyph glyph-name="e" unicode="e" horiz-adv-x="538" 
d="M477 274c0 -5.33301 -0.166992 -9.83301 -0.5 -13.5s-0.833008 -7.16699 -1.5 -10.5h-374c2 -70.667 18.667 -125.334 50 -164.001s71.333 -58 120 -58c34 0 62.667 4 86 12s47 19.667 71 35l20 -32c-28 -17.333 -55.5 -30.666 -82.5 -39.999s-60.167 -14 -99.5 -14
c-26 0 -51.5 5.33301 -76.5 16s-47.333 27.167 -67 49.5s-35.5 50.833 -47.5 85.5s-18 76 -18 124c0 42.667 5.5 80.834 16.5 114.501s26 62.167 45 85.5s41.333 41.166 67 53.499s53.5 18.5 83.5 18.5c32 0 60.833 -6.16699 86.5 -18.5s47.5 -29.833 65.5 -52.5
s31.833 -50.167 41.5 -82.5s14.5 -68.5 14.5 -108.5zM435 286c-2 66.667 -17.667 118.5 -47 155.5s-69 55.5 -119 55.5c-23.333 0 -44.833 -4.5 -64.5 -13.5s-37 -22.333 -52 -40s-27 -39.667 -36 -66s-14.167 -56.833 -15.5 -91.5h334z" />
    <glyph glyph-name="f" unicode="f" horiz-adv-x="342" 
d="M302 673c-7.33301 3.33301 -16.168 6.16797 -26.501 8.50098s-22.166 3.5 -35.499 3.5c-19.333 0 -36 -5.5 -50 -16.5s-21 -31.833 -21 -62.5v-81h122v-37h-122v-488h-44v488h-78v37h78v77c0 45.333 10.667 77.166 32 95.499s48 27.5 80 27.5c15.333 0 28.333 -1 39 -3
s19.667 -4.33301 27 -7l-1 -42v0z" />
    <glyph glyph-name="g" unicode="g" horiz-adv-x="553" 
d="M467 47c0 -40.667 -4.66699 -76.001 -14 -106.001s-24.5 -55 -45.5 -75s-48.5 -35 -82.5 -45s-75.667 -15.667 -125 -17l-15 37c45.333 1.33301 83.333 5.83301 114 13.5s55.167 19.5 73.5 35.5s31.333 36.5 39 61.5s11.5 55.167 11.5 90.5v37
c-19.333 -26 -43.5 -47.5 -72.5 -64.5s-62.167 -25.5 -99.5 -25.5c-28 0 -53.833 5.16699 -77.5 15.5s-44.167 26.333 -61.5 48s-30.833 49.334 -40.5 83.001s-14.5 74.167 -14.5 121.5s5 88.5 15 123.5s23.833 64 41.5 87s38.667 40.167 63 51.5s50.833 17 79.5 17
c36 0 68 -8 96 -24s51.667 -37.333 71 -64v77h44v-478zM423 398.999c-17.333 28 -40.167 51.332 -68.5 69.999s-59.833 28 -94.5 28c-50.667 0 -89.667 -19.5 -117 -58.5s-41 -99.167 -41 -180.5c0 -78.667 14.167 -136.667 42.5 -174s67.5 -56 117.5 -56
c32.667 0 62.667 8.83301 90 26.5s51 40.834 71 69.501v275z" />
    <glyph glyph-name="h" unicode="h" horiz-adv-x="565" 
d="M439 0v314c0 64 -13.333 110.5 -40 139.5s-63.667 43.5 -111 43.5c-19.333 0 -38.333 -3.16699 -57 -9.5s-35.5 -16.5 -50.5 -30.5s-27.167 -32.667 -36.5 -56s-14 -52 -14 -86v-315h-44v704l44 25v-293c13.333 32 34.5 56.667 63.5 74s63.5 26 103.5 26
c28 0 53.333 -4 76 -12s42.167 -20.667 58.5 -38s29 -39.5 38 -66.5s13.5 -59.5 13.5 -97.5v-322h-44z" />
    <glyph glyph-name="i" unicode="i" horiz-adv-x="226" 
d="M145 672c0 -8.66699 -3.16699 -16.167 -9.5 -22.5s-13.5 -9.5 -21.5 -9.5c-9.33301 0 -17.166 3.16699 -23.499 9.5s-9.5 13.833 -9.5 22.5c0 9.33301 3.16699 17 9.5 23s14.166 9 23.499 9c8 0 15.167 -3 21.5 -9s9.5 -13.667 9.5 -23zM91 0v525h44v-525h-44z" />
    <glyph glyph-name="j" unicode="j" horiz-adv-x="226" 
d="M145 672c0 -8.66699 -3.16699 -16.167 -9.5 -22.5s-13.5 -9.5 -21.5 -9.5c-9.33301 0 -17.166 3.16699 -23.499 9.5s-9.5 13.833 -9.5 22.5c0 9.33301 3.16699 17 9.5 23s14.166 9 23.499 9c8 0 15.167 -3 21.5 -9s9.5 -13.667 9.5 -23zM135 -2
c0 -28.667 -1.83008 -53.502 -5.49707 -74.502s-10.334 -39 -20.001 -54s-22.834 -27.667 -39.501 -38s-37.667 -19.166 -63 -26.499l-17 38c20.667 6 37.667 12.833 51 20.5s23.666 17.334 30.999 29.001s12.333 26 15 43s4 38.167 4 63.5v526h44v-527z" />
    <glyph glyph-name="k" unicode="k" horiz-adv-x="494" 
d="M403 0l-164 291l-109 -144v-147h-44v704l44 25v-523l237 319h49l-149 -197l184 -328h-48z" />
    <glyph glyph-name="l" unicode="l" horiz-adv-x="226" 
d="M91 0v704l44 25v-729h-44z" />
    <glyph glyph-name="m" unicode="m" horiz-adv-x="877" 
d="M759 0v313.999c0 66 -13 113 -39 141s-60.667 42 -104 42c-18.667 0 -36.834 -3 -54.501 -9s-33.5 -16.167 -47.5 -30.5s-25.333 -33.166 -34 -56.499s-13 -52 -13 -86v-315h-44v315c0 32.667 -3.5 60.667 -10.5 84s-16.833 42.166 -29.5 56.499
s-27.834 24.833 -45.501 31.5s-37.167 10 -58.5 10c-18.667 0 -36.834 -3 -54.501 -9s-33.5 -16.167 -47.5 -30.5s-25.333 -33.166 -34 -56.499s-13 -52 -13 -86v-315h-44v525h44v-89c12.667 32.667 32.834 57.5 60.501 74.5s60.167 25.5 97.5 25.5
c44.667 0 80.5 -11.333 107.5 -34s45.167 -51 54.5 -85c12.667 38 33.834 67.333 63.501 88s66.5 31 110.5 31c26.667 0 51 -4 73 -12s40.833 -20.667 56.5 -38s27.834 -39.5 36.501 -66.5s13 -59.5 13 -97.5v-322h-44z" />
    <glyph glyph-name="n" unicode="n" horiz-adv-x="565" 
d="M439 0v314c0 64 -13.333 110.5 -40 139.5s-63.667 43.5 -111 43.5c-19.333 0 -38.333 -3.16699 -57 -9.5s-35.5 -16.5 -50.5 -30.5s-27.167 -32.667 -36.5 -56s-14 -52 -14 -86v-315h-44v525h44v-89c13.333 32 34.5 56.667 63.5 74s63.5 26 103.5 26
c28 0 53.333 -4 76 -12s42.167 -20.667 58.5 -38s29 -39.5 38 -66.5s13.5 -59.5 13.5 -97.5v-322h-44z" />
    <glyph glyph-name="o" unicode="o" horiz-adv-x="567" 
d="M510 265c0 -44 -6 -83.167 -18 -117.5s-28.167 -63.333 -48.5 -87s-44.333 -41.5 -72 -53.5s-57.5 -18 -89.5 -18c-31.333 0 -60.666 6 -87.999 18s-51.166 29.5 -71.499 52.5s-36.333 51.5 -48 85.5s-17.5 73 -17.5 117s6 83.167 18 117.5s28.167 63 48.5 86
s44.333 40.5 72 52.5s57.5 18 89.5 18c31.333 0 60.666 -5.83301 87.999 -17.5s51.166 -29 71.499 -52s36.333 -51.333 48 -85s17.5 -72.5 17.5 -116.5zM465 264c0 38 -4.5 71.667 -13.5 101s-21.667 53.666 -38 72.999s-35.666 34 -57.999 44s-46.5 15 -72.5 15
s-50 -5 -72 -15s-41.167 -24.667 -57.5 -44s-29 -43.666 -38 -72.999s-13.5 -63 -13.5 -101c0 -38.667 4.5 -72.667 13.5 -102s21.667 -54 38 -74s35.5 -35 57.5 -45s46 -15 72 -15s50.167 5 72.5 15s41.666 25 57.999 45s29 44.667 38 74s13.5 63.333 13.5 102z" />
    <glyph glyph-name="p" unicode="p" horiz-adv-x="553" 
d="M496 268c0 -47.333 -4.99805 -88.5 -14.998 -123.5s-23.833 -64 -41.5 -87s-38.667 -40.167 -63 -51.5s-50.833 -17 -79.5 -17c-36 0 -68 8 -96 24s-51.667 37.333 -71 64v-242l-44 -25v715h44v-79c19.333 26 43.666 47.5 72.999 64.5s62.666 25.5 99.999 25.5
c28 0 53.833 -5.16699 77.5 -15.5s44 -26.333 61 -48s30.333 -49.5 40 -83.5s14.5 -74.333 14.5 -121zM451.002 267c0 78.667 -14.1689 136.668 -42.502 174.001s-67.166 56 -116.499 56c-33.333 0 -63.666 -8.83301 -90.999 -26.5s-51 -40.834 -71 -69.501v-275
c18 -28 41.167 -51.333 69.5 -70s59.833 -28 94.5 -28c50 0 88.667 19.5 116 58.5s41 99.167 41 180.5z" />
    <glyph glyph-name="q" unicode="q" horiz-adv-x="553" 
d="M423 -190v268.999c-19.333 -26 -43.5 -47.5 -72.5 -64.5s-62.167 -25.5 -99.5 -25.5c-28 0 -53.833 5.16699 -77.5 15.5s-44.167 26.333 -61.5 48s-30.833 49.334 -40.5 83.001s-14.5 74.167 -14.5 121.5s5 88.5 15 123.5s23.833 64 41.5 87s38.667 40.167 63 51.5
s50.833 17 79.5 17c36 0 68 -8 96 -24s51.667 -37.333 71 -64v77h44v-690zM423 398.999c-17.333 28 -40.167 51.332 -68.5 69.999s-59.833 28 -94.5 28c-50.667 0 -89.667 -19.5 -117 -58.5s-41 -99.167 -41 -180.5c0 -78.667 14.167 -136.667 42.5 -174s67.5 -56 117.5 -56
c32.667 0 62.667 8.83301 90 26.5s51 40.834 71 69.501v275z" />
    <glyph glyph-name="r" unicode="r" horiz-adv-x="396" 
d="M349 479c-11.333 5.33301 -23.334 9.33398 -36.001 12.001s-27.667 4 -45 4s-34.166 -3.33301 -50.499 -10s-31 -17.334 -44 -32.001s-23.5 -33.167 -31.5 -55.5s-12 -49.5 -12 -81.5v-316h-44v525h44v-95c4.66699 16.667 12 31.5 22 44.5s21.667 24 35 33
s27.666 16 42.999 21s31 7.5 47 7.5c36.667 0 64.334 -4.66699 83.001 -14z" />
    <glyph glyph-name="s" unicode="s" horiz-adv-x="449" 
d="M388 129c0 -23.333 -4.33594 -43.6621 -13.0029 -60.9951s-20.667 -31.833 -36 -43.5s-33.333 -20.5 -54 -26.5s-43 -9 -67 -9c-34.667 0 -65.167 5.33301 -91.5 16s-52.166 25.667 -77.499 45l24 32c20.667 -17.333 42.834 -30.833 66.501 -40.5
s50.167 -14.5 79.5 -14.5c40.667 0 72 8.83301 94 26.5s33 42.5 33 74.5c0 13.333 -2.16699 25.5 -6.5 36.5s-11.666 21.333 -21.999 31s-24 19.167 -41 28.5s-38.5 19.666 -64.5 30.999c-27.333 11.333 -50.333 22.166 -69 32.499s-33.834 21.166 -45.501 32.499
s-20.167 24.166 -25.5 38.499s-8 31.5 -8 51.5c0 18 3.66699 34.667 11 50s17.833 28.666 31.5 39.999s29.834 20.166 48.501 26.499s39.334 9.5 62.001 9.5c36.667 0 68.167 -5 94.5 -15s48.166 -22.333 65.499 -37l-25 -32c-18 14 -37.5 25.167 -58.5 33.5
s-47.167 12.5 -78.5 12.5c-34 0 -60.5 -8.33301 -79.5 -25s-28.5 -36.667 -28.5 -60c0 -14 2 -26.333 6 -37s11 -20.5 21 -29.5s23.167 -17.833 39.5 -26.5s36.833 -18.334 61.5 -29.001c26 -11.333 48.5 -22 67.5 -32s34.833 -21.167 47.5 -33.5
s22.167 -26.166 28.5 -41.499s9.5 -33.666 9.5 -54.999z" />
    <glyph glyph-name="t" unicode="t" horiz-adv-x="348" 
d="M287 10c-13.333 -6 -27.501 -10.667 -42.501 -14s-32.167 -5 -51.5 -5c-29.333 0 -51.5 8.16699 -66.5 24.5s-22.5 42.166 -22.5 77.499v395h-68v37h68v179l44 25v-204h139v-37h-139v-388c0 -23.333 4.83301 -40.666 14.5 -51.999s25.167 -17 46.5 -17
c15.333 0 29.333 1.5 42 4.5s25.334 7.5 38.001 13.5z" />
    <glyph glyph-name="u" unicode="u" horiz-adv-x="565" 
d="M435 0v89c-11.333 -32.667 -31.833 -57.5 -61.5 -74.5s-64.5 -25.5 -104.5 -25.5c-28 0 -53.5 4 -76.5 12s-42.667 20.667 -59 38s-29 39.5 -38 66.5s-13.5 59.5 -13.5 97.5v322h44v-314c0 -64 13.333 -110.5 40 -139.5s63.667 -43.5 111 -43.5
c19.333 0 38.333 3.16699 57 9.5s35.5 16.5 50.5 30.5s27.167 32.667 36.5 56s14 52 14 86v315h44v-525h-44z" />
    <glyph glyph-name="v" unicode="v" horiz-adv-x="509" 
d="M274 -1h-39l-192 526h48l164 -474l165 474h46z" />
    <glyph glyph-name="w" unicode="w" 
d="M533 -1h-41l-132 459l-133 -459h-40l-139 526h46l114 -458l133 459h40l133 -459l114 458h44z" />
    <glyph glyph-name="x" unicode="x" horiz-adv-x="492" 
d="M387 0l-142 238l-143 -238h-47l168 274l-153 251h49l128 -213l128 213h47l-153 -249l168 -276h-50z" />
    <glyph glyph-name="y" unicode="y" horiz-adv-x="514" 
d="M208 -185h-44l70 188l-191 522h47l167 -472l167 472h47z" />
    <glyph glyph-name="z" unicode="z" horiz-adv-x="491" 
d="M57 0v33l316 455h-288v37h338v-33l-315 -455h315v-37h-366z" />
    <glyph glyph-name="braceleft" unicode="{" horiz-adv-x="377" 
d="M323 -110c-59.333 3.33301 -103.667 20.167 -133 50.5s-44 79.166 -44 146.499v117c0 22 -4.66699 39.333 -14 52s-25.666 19 -48.999 19h-29v42h29c23.333 0 39.666 6.33301 48.999 19s14 30 14 52v119c0 68 14.5 116.833 43.5 146.5s73.5 46.167 133.5 49.5v-37
c-22.667 -2.66699 -42.334 -7.16699 -59.001 -13.5s-30.5 -15.5 -41.5 -27.5s-19.167 -27.167 -24.5 -45.5s-8 -40.833 -8 -67.5v-108c0 -30 -4.33301 -53.667 -13 -71s-23.667 -30 -45 -38c21.333 -7.33301 36.333 -19.666 45 -36.999s13 -41 13 -71v-105
c0 -26.667 2.66699 -49.167 8 -67.5s13.5 -33.5 24.5 -45.5s24.833 -21.167 41.5 -27.5s36.334 -10.833 59.001 -13.5v-38v0z" />
    <glyph glyph-name="bar" unicode="|" horiz-adv-x="291" 
d="M124 -185v985h43v-985h-43z" />
    <glyph glyph-name="braceright" unicode="}" horiz-adv-x="377" 
d="M294 277c-23.333 0 -39.667 -6.33203 -49 -18.999s-14 -30.334 -14 -53.001v-118c0 -67.333 -14.667 -116.166 -44 -146.499s-73.666 -47.166 -132.999 -50.499v38c22.667 2.66699 42.334 7.16699 59.001 13.5s30.5 15.5 41.5 27.5s19.167 27.167 24.5 45.5
s8 40.833 8 67.5v108c0 30 4.33301 53.667 13 71s23.667 29.666 45 36.999c-21.333 8 -36.333 20.667 -45 38s-13 41 -13 71v105c0 26.667 -2.66699 49.167 -8 67.5s-13.5 33.5 -24.5 45.5s-24.833 21.167 -41.5 27.5s-36.334 10.833 -59.001 13.5v37
c60 -3.33301 104.5 -19.833 133.5 -49.5s43.5 -78.5 43.5 -146.5v-117c0 -22.667 4.66699 -40.334 14 -53.001s25.666 -19 48.999 -19h28v-41h-28z" />
    <glyph glyph-name="asciitilde" unicode="~" horiz-adv-x="538" 
d="M481 413c-15.333 -34.667 -32.1641 -60.167 -50.4971 -76.5s-41.833 -24.5 -70.5 -24.5c-18.667 0 -35.167 3.16699 -49.5 9.5s-29.166 14.833 -44.499 25.5c-18 12.667 -33.833 22.167 -47.5 28.5s-26.834 9.5 -39.501 9.5c-18.667 0 -34 -5.83301 -46 -17.5
s-24.333 -30.5 -37 -56.5l-39 18c15.333 34.667 32.166 60.167 50.499 76.5s42.166 24.5 71.499 24.5c17.333 0 33.166 -3 47.499 -9s29.5 -14.667 45.5 -26c17.333 -12 32.833 -21.333 46.5 -28s27.5 -10 41.5 -10c18 0 32.833 5.5 44.5 16.5s24.167 30.167 37.5 57.5
l39 -18v0z" />
    <glyph glyph-name="nonbreakingspace" unicode="&#xa0;" horiz-adv-x="126" 
 />
    <glyph glyph-name="exclamdown" unicode="&#xa1;" horiz-adv-x="244" 
d="M84 669c0 10 3.83301 18.667 11.5 26s16.167 11 25.5 11c10 0 18.667 -3.66699 26 -11s11 -16 11 -26s-3.66699 -18.833 -11 -26.5s-16 -11.5 -26 -11.5c-9.33301 0 -17.833 3.83301 -25.5 11.5s-11.5 16.5 -11.5 26.5zM109 537h25l10 -208v-329h-45v329z" />
    <glyph glyph-name="cent" unicode="&#xa2;" horiz-adv-x="492" 
d="M436 148c-18 -17.333 -38.668 -31.6641 -62.001 -42.9971s-49.666 -18 -78.999 -20v-96h-45v96c-25.333 2.66699 -49.666 10.167 -72.999 22.5s-43.833 29.666 -61.5 51.999s-31.834 49.666 -42.501 81.999s-16 70.166 -16 113.499s5.33301 81.333 16 114
s25 60.334 43 83.001s38.667 40.167 62 52.5s47.333 20.166 72 23.499v88h45v-87c32 -2 59.167 -8.16699 81.5 -18.5s42.166 -23.166 59.499 -38.499l-26 -32c-19.333 16.667 -39.166 29.334 -59.499 38.001s-45.833 13 -76.5 13c-23.333 0 -45.333 -5 -66 -15
s-38.834 -24.833 -54.501 -44.5s-28.167 -43.834 -37.5 -72.501s-14 -62 -14 -100s4.33301 -71.833 13 -101.5s20.834 -54.5 36.501 -74.5s34 -35.167 55 -45.5s43.833 -15.5 68.5 -15.5c28 0 53 4.66699 75 14s42 22.666 60 39.999l26 -28v0z" />
    <glyph glyph-name="sterling" unicode="&#xa3;" horiz-adv-x="582" 
d="M229 306c2 -13.333 3.00098 -26.9971 3.00098 -40.9971c0 -38 -8.16699 -76.167 -24.5 -114.5s-40.5 -74.5 -72.5 -108.5h392v-42h-448v41c38 39.333 65.667 76.666 83 111.999s26 73 26 113c0 15.333 -1.33301 28.666 -4 39.999h-105v41h93
c-6 15.333 -12.667 30.333 -20 45s-14.333 29.5 -21 44.5s-12.334 30.833 -17.001 47.5s-7 35 -7 55c0 26.667 5.16699 50.667 15.5 72s24.666 39.5 42.999 54.5s40.333 26.333 66 34s53.834 11.5 84.501 11.5c39.333 0 75 -6.5 107 -19.5s62.333 -31.167 91 -54.5l-28 -34
c-24.667 21.333 -51 37.833 -79 49.5s-58.667 17.5 -92 17.5c-53.333 0 -93.833 -12.333 -121.5 -37s-41.5 -55.667 -41.5 -93c0 -18.667 2.5 -35.834 7.5 -51.501s11 -31 18 -46l22 -45.5c7.66699 -15.333 14.167 -32 19.5 -50h163v-41h-153v0z" />
    <glyph glyph-name="yen" unicode="&#xa5;" horiz-adv-x="610" 
d="M328 288v-100h148v-41h-148v-147h-46v147h-153v41h153v99l-233 413h53l204 -369l204 369h51z" />
    <glyph glyph-name="brokenbar" unicode="&#xa6;" 
d="M546 234c-2.66699 -2 -4.83398 -2.33301 -6.50098 -1s-1.83398 3.33301 -0.500977 6l69 88h-227v-255l88 70c3.33301 1.33301 5.5 1 6.5 -1s0.833008 -4 -0.5 -6l-114 -150l-113 150c-2 2 -2.33301 4 -1 6s3.33301 2.33301 6 1l88 -70v255h-229l69 -88
c1.33301 -2.66699 1.16602 -4.66699 -0.500977 -6s-3.83398 -1 -6.50098 1l-149 113l149 114c2.66699 1.33301 4.83398 1.5 6.50098 0.5s1.83398 -3.16699 0.500977 -6.5l-69 -88h229v261l-88 -70c-2.66699 -1.33301 -4.66699 -1 -6 1s-1 4 1 6l113 150l114 -150
c1.33301 -2 1.5 -4 0.5 -6s-3.16699 -2.33301 -6.5 -1l-88 70v-261h227l-69 88c-1.33301 3.33301 -1.16602 5.5 0.500977 6.5s3.83398 0.833008 6.50098 -0.5l149 -114z" />
    <glyph glyph-name="section" unicode="&#xa7;" horiz-adv-x="609" 
d="M551 265c0 -21.333 -3.83301 -40.832 -11.5 -58.499s-18.334 -33.667 -32.001 -48s-29.667 -27 -48 -38s-38.166 -20.5 -59.499 -28.5c30 -15.333 51.167 -32.166 63.5 -50.499s18.5 -40.166 18.5 -65.499c0 -42 -16.167 -75.833 -48.5 -101.5
s-75.833 -38.5 -130.5 -38.5c-38 0 -72 5.66699 -102 17s-56.333 25.666 -79 42.999l24 36c25.333 -18.667 50.333 -32.5 75 -41.5s54.334 -13.5 89.001 -13.5c39.333 0 70.333 8.83301 93 26.5s34 40.5 34 68.5c0 14 -2.5 26.833 -7.5 38.5s-13.667 22.334 -26 32.001
s-28.833 18.834 -49.5 27.501s-46.667 17.334 -78 26.001c-42 12 -76.833 24 -104.5 36s-50 25.167 -67 39.5s-29 30.5 -36 48.5s-10.5 38.667 -10.5 62c0 21.333 3.83301 40.833 11.5 58.5s18.167 33.667 31.5 48s29.333 27 48 38s38.667 20.5 60 28.5
c-30 15.333 -51.167 32.166 -63.5 50.499s-18.5 40.166 -18.5 65.499c0 42 16.167 75.833 48.5 101.5s75.833 38.5 130.5 38.5c38 0 71.333 -5.33301 100 -16s55.667 -25.667 81 -45l-24 -35c-25.333 19.333 -50.333 33.333 -75 42s-54.334 13 -89.001 13
c-39.333 0 -70.333 -8.83301 -93 -26.5s-34 -40.5 -34 -68.5c0 -14 2.5 -26.833 7.5 -38.5s13.667 -22.334 26 -32.001s28.833 -18.834 49.5 -27.501s46.667 -17.334 78 -26.001c42 -12 76.833 -24 104.5 -36s50 -25.167 67 -39.5s29 -30.5 36 -48.5s10.5 -38.667 10.5 -62z
M505 262.001c0 16.667 -2.49902 31.8311 -7.49902 45.498s-14.167 26.334 -27.5 38.001s-31.333 22.5 -54 32.5s-52 20 -88 30c-14.667 4 -28.667 8.16699 -42 12.5s-26 8.83301 -38 13.5c-44 -14 -79 -33.5 -105 -58.5s-39 -55.167 -39 -90.5
c0 -17.333 2.5 -32.666 7.5 -45.999s14 -25.833 27 -37.5s31 -22.5 54 -32.5s52.167 -20 87.5 -30c15.333 -4 29.666 -8.16699 42.999 -12.5s26 -8.83301 38 -13.5c44 14 79 33.5 105 58.5s39 55.167 39 90.5z" />
    <glyph glyph-name="dieresis" unicode="&#xa8;" horiz-adv-x="500" 
d="M380 659c0 -9.33301 -3.16699 -17.166 -9.5 -23.499s-14.166 -9.5 -23.499 -9.5s-17.166 3.16699 -23.499 9.5s-9.5 14.166 -9.5 23.499s3.16699 17.333 9.5 24s14.166 10 23.499 10s17.166 -3.33301 23.499 -10s9.5 -14.667 9.5 -24zM186 659
c0 -9.33301 -3.16699 -17.166 -9.5 -23.499s-13.833 -9.5 -22.5 -9.5c-9.33301 0 -17.333 3.16699 -24 9.5s-10 14.166 -10 23.499s3.33301 17.333 10 24s14.667 10 24 10c8.66699 0 16.167 -3.33301 22.5 -10s9.5 -14.667 9.5 -24z" />
    <glyph glyph-name="copyright" unicode="&#xa9;" horiz-adv-x="836" 
d="M779 350c0 -53.333 -9.16699 -102 -27.5 -146s-43.5 -82 -75.5 -114s-70 -56.833 -114 -74.5s-92 -26.5 -144 -26.5s-100 8.83301 -144 26.5s-82 42.5 -114 74.5s-57.167 70 -75.5 114s-27.5 92.667 -27.5 146c0 52.667 9.16699 101.167 27.5 145.5s43.5 82.5 75.5 114.5
s70 56.833 114 74.5s92 26.5 144 26.5s100 -8.83301 144 -26.5s82 -42.5 114 -74.5s57.167 -70.167 75.5 -114.5s27.5 -92.833 27.5 -145.5zM749 350c0 48.667 -8.33301 93.334 -25 134.001s-39.834 75.834 -69.501 105.501s-64.667 52.667 -105 69
s-84.166 24.5 -131.499 24.5s-91.333 -8.16699 -132 -24.5s-75.667 -39.333 -105 -69s-52.333 -64.834 -69 -105.501s-25 -85.334 -25 -134.001s8.33301 -93.334 25 -134.001s39.667 -75.834 69 -105.501s64.333 -52.667 105 -69s84.667 -24.5 132 -24.5
s91.166 8.16699 131.499 24.5s75.333 39.333 105 69s52.834 64.834 69.501 105.501s25 85.334 25 134.001zM542 195c-32.667 -38 -74 -57.001 -124 -57.001c-24.667 0 -47.334 5.16699 -68.001 15.5s-38.334 24.833 -53.001 43.5s-26 41 -34 67s-12 54.667 -12 86
s4.16699 60 12.5 86s20 48.333 35 67s32.667 33.167 53 43.5s42.833 15.5 67.5 15.5c26.667 0 49.5 -4.33301 68.5 -13s35.833 -21.667 50.5 -39l-24 -21c-13.333 15.333 -27.166 26.333 -41.499 33s-32.166 10 -53.499 10c-20 0 -38.333 -4.33301 -55 -13
s-31 -20.834 -43 -36.501s-21.333 -34.667 -28 -57s-10 -47.166 -10 -74.499s3.33301 -52.166 10 -74.499s16 -41.5 28 -57.5s26.333 -28.5 43 -37.5s35 -13.5 55 -13.5c39.333 0 73 16.333 101 49z" />
    <glyph glyph-name="ordfeminine" unicode="&#xaa;" horiz-adv-x="457" 
d="M338 282l-0.000976562 59.0029c-15.333 -20 -35 -36.333 -59 -49s-51 -19 -81 -19c-17.333 0 -34.333 2.16699 -51 6.5s-31.667 11.5 -45 21.5s-24.166 23.333 -32.499 40s-12.5 37.334 -12.5 62.001c0 23.333 4.33301 43.666 13 60.999s20.334 31.666 35.001 42.999
s31.667 19.666 51 24.999s39.666 8 60.999 8c25.333 0 48.166 -3 68.499 -9s37.833 -13 52.5 -21v59c0 38 -8.66699 65.5 -26 82.5s-44.333 25.5 -81 25.5c-43.333 0 -83.666 -10.667 -120.999 -32l-15 31c19.333 10.667 40.333 19.167 63 25.5s48 9.5 76 9.5
c46 0 81.5 -10.333 106.5 -31s37.5 -56.334 37.5 -107.001v-291h-40zM337.999 477.003c-15.333 8.66699 -32.834 15.835 -52.501 21.502s-43.167 8.5 -70.5 8.5c-34 0 -62.167 -8.5 -84.5 -25.5s-33.5 -42.167 -33.5 -75.5c0 -18 2.83301 -33.333 8.5 -46
s13.5 -22.834 23.5 -30.501s21.5 -13.334 34.5 -17.001s26.5 -5.5 40.5 -5.5c29.333 0 55.333 7 78 21s41.334 32 56.001 54v95z" />
    <glyph glyph-name="guillemotleft" unicode="&#xab;" horiz-adv-x="556" 
d="M452 0l-203 262l203 263h50l-203 -262l203 -263h-50zM239 0l-203 262l203 263h50l-203 -262l203 -263h-50z" />
    <glyph glyph-name="logicalnot" unicode="&#xac;" horiz-adv-x="613" 
d="M424 236c-2.66699 -2 -5.16699 -2.16797 -7.5 -0.500977s-2.83301 3.5 -1.5 5.5l69 85h-423v42h423l-69 85c-1.33301 2 -0.833008 3.83301 1.5 5.5s4.83301 1.83398 7.5 0.500977l155 -112z" />
    <glyph glyph-name="registered" unicode="&#xae;" horiz-adv-x="836" 
d="M779 350c0 -53.333 -9.16699 -102 -27.5 -146s-43.5 -82 -75.5 -114s-70 -56.833 -114 -74.5s-92 -26.5 -144 -26.5s-100 8.83301 -144 26.5s-82 42.5 -114 74.5s-57.167 70 -75.5 114s-27.5 92.667 -27.5 146c0 52.667 9.16699 101.167 27.5 145.5s43.5 82.5 75.5 114.5
s70 56.833 114 74.5s92 26.5 144 26.5s100 -8.83301 144 -26.5s82 -42.5 114 -74.5s57.167 -70.167 75.5 -114.5s27.5 -92.833 27.5 -145.5zM749 350c0 48.667 -8.33301 93.334 -25 134.001s-39.834 75.834 -69.501 105.501s-64.667 52.667 -105 69
s-84.166 24.5 -131.499 24.5s-91.333 -8.16699 -132 -24.5s-75.667 -39.333 -105 -69s-52.333 -64.834 -69 -105.501s-25 -85.334 -25 -134.001s8.33301 -93.334 25 -134.001s39.667 -75.834 69 -105.501s64.333 -52.667 105 -69s84.667 -24.5 132 -24.5
s91.166 8.16699 131.499 24.5s75.333 39.333 105 69s52.834 64.834 69.501 105.501s25 85.334 25 134.001zM568 448c0 -32 -8.66602 -57.5 -25.999 -76.5s-41.333 -31.167 -72 -36.5l94 -183h-37l-93 180c-2 0 -4.33301 -0.166992 -7 -0.5s-5.66699 -0.5 -9 -0.5h-90v-179
h-31v408h137c19.333 0 37.166 -2 53.499 -6s30.5 -10.5 42.5 -19.5s21.333 -20.667 28 -35s10 -31.5 10 -51.5zM536.001 448c0 30.667 -9.16699 52.166 -27.5 64.499s-43.5 18.5 -75.5 18.5h-105v-170h98c36 0 63.333 6.83301 82 20.5s28 35.834 28 66.501z" />
    <glyph glyph-name="macron" unicode="&#xaf;" horiz-adv-x="500" 
d="M114 628v41h272v-41h-272z" />
    <glyph glyph-name="degree" unicode="&#xb0;" horiz-adv-x="459" 
d="M400 536c0 -25.333 -4.16699 -48.666 -12.5 -69.999s-20.166 -39.833 -35.499 -55.5s-33.5 -28 -54.5 -37s-43.833 -13.5 -68.5 -13.5s-47.5 4.5 -68.5 13.5s-39 21.333 -54 37s-26.833 34.167 -35.5 55.5s-13 44.666 -13 69.999c0 24.667 4.33301 47.667 13 69
s20.5 39.833 35.5 55.5s33 28 54 37s43.833 13.5 68.5 13.5s47.5 -4.5 68.5 -13.5s39.167 -21.333 54.5 -37s27.166 -34.167 35.499 -55.5s12.5 -44.333 12.5 -69zM361 536c0 20 -3.16699 38.333 -9.5 55s-15.333 31.167 -27 43.5s-25.5 22 -41.5 29s-34 10.5 -54 10.5
c-19.333 0 -37 -3.5 -53 -10.5s-29.833 -16.667 -41.5 -29s-20.667 -26.833 -27 -43.5s-9.5 -35 -9.5 -55c0 -40.667 12.167 -74 36.5 -100s55.833 -39 94.5 -39c40 0 72 13 96 39s36 59.333 36 100z" />
    <glyph glyph-name="plusminus" unicode="&#xb1;" 
d="M546 234c-2.66699 -2 -4.83398 -2.33301 -6.50098 -1s-1.83398 3.33301 -0.500977 6l69 88h-227v-255l88 70c3.33301 1.33301 5.5 1 6.5 -1s0.833008 -4 -0.5 -6l-114 -150l-113 150c-2 2 -2.33301 4 -1 6s3.33301 2.33301 6 1l88 -70v255h-229l69 -88
c1.33301 -2.66699 1.16602 -4.66699 -0.500977 -6s-3.83398 -1 -6.50098 1l-149 113l149 114c2.66699 1.33301 4.83398 1.5 6.50098 0.5s1.83398 -3.16699 0.500977 -6.5l-69 -88h229v261l-88 -70c-2.66699 -1.33301 -4.66699 -1 -6 1s-1 4 1 6l113 150l114 -150
c1.33301 -2 1.5 -4 0.5 -6s-3.16699 -2.33301 -6.5 -1l-88 70v-261h227l-69 88c-1.33301 3.33301 -1.16602 5.5 0.500977 6.5s3.83398 0.833008 6.50098 -0.5l149 -114z" />
    <glyph glyph-name="twosuperior" unicode="&#xb2;" 
d="M546 234c-2.66699 -2 -4.83398 -2.33301 -6.50098 -1s-1.83398 3.33301 -0.500977 6l69 88h-227v-255l88 70c3.33301 1.33301 5.5 1 6.5 -1s0.833008 -4 -0.5 -6l-114 -150l-113 150c-2 2 -2.33301 4 -1 6s3.33301 2.33301 6 1l88 -70v255h-229l69 -88
c1.33301 -2.66699 1.16602 -4.66699 -0.500977 -6s-3.83398 -1 -6.50098 1l-149 113l149 114c2.66699 1.33301 4.83398 1.5 6.50098 0.5s1.83398 -3.16699 0.500977 -6.5l-69 -88h229v261l-88 -70c-2.66699 -1.33301 -4.66699 -1 -6 1s-1 4 1 6l113 150l114 -150
c1.33301 -2 1.5 -4 0.5 -6s-3.16699 -2.33301 -6.5 -1l-88 70v-261h227l-69 88c-1.33301 3.33301 -1.16602 5.5 0.500977 6.5s3.83398 0.833008 6.50098 -0.5l149 -114z" />
    <glyph glyph-name="threesuperior" unicode="&#xb3;" 
d="M546 234c-2.66699 -2 -4.83398 -2.33301 -6.50098 -1s-1.83398 3.33301 -0.500977 6l69 88h-227v-255l88 70c3.33301 1.33301 5.5 1 6.5 -1s0.833008 -4 -0.5 -6l-114 -150l-113 150c-2 2 -2.33301 4 -1 6s3.33301 2.33301 6 1l88 -70v255h-229l69 -88
c1.33301 -2.66699 1.16602 -4.66699 -0.500977 -6s-3.83398 -1 -6.50098 1l-149 113l149 114c2.66699 1.33301 4.83398 1.5 6.50098 0.5s1.83398 -3.16699 0.500977 -6.5l-69 -88h229v261l-88 -70c-2.66699 -1.33301 -4.66699 -1 -6 1s-1 4 1 6l113 150l114 -150
c1.33301 -2 1.5 -4 0.5 -6s-3.16699 -2.33301 -6.5 -1l-88 70v-261h227l-69 88c-1.33301 3.33301 -1.16602 5.5 0.500977 6.5s3.83398 0.833008 6.50098 -0.5l149 -114z" />
    <glyph glyph-name="acute" unicode="&#xb4;" horiz-adv-x="500" 
d="M224 595h-36l103 147h63z" />
    <glyph glyph-name="mu" unicode="&#xb5;" horiz-adv-x="744" 
d="M564 236c-2 -2 -4.33301 -2.16699 -7 -0.5s-3.33398 3.5 -2.00098 5.5l70 85h-506l70 -85c1.33301 -2 0.833008 -3.83301 -1.5 -5.5s-4.83301 -1.5 -7.5 0.5l-155 111l155 112c2.66699 1.33301 5.16699 1.16602 7.5 -0.500977s2.83301 -3.5 1.5 -5.5l-70 -85h506l-70 85
c-1.33301 2 -0.666016 3.83301 2.00098 5.5s5 1.83398 7 0.500977l155 -112z" />
    <glyph glyph-name="paragraph" unicode="&#xb6;" horiz-adv-x="657" 
d="M513 -185l-0.000976562 845h-114v-845h-46v447h-70c-35.333 0 -67.5 5.16699 -96.5 15.5s-53.667 25 -74 44s-36.166 42.167 -47.499 69.5s-17 58 -17 92c0 34.667 6 65.5 18 92.5s28.667 49.833 50 68.5s46.333 32.667 75 42s59.667 14 93 14h274v-885h-45zM352.999 660
l-63.999 0.000976562c-60.667 0 -108.334 -14.667 -143.001 -44s-52 -73 -52 -131c0 -54.667 15.5 -98.834 46.5 -132.501s80.167 -50.5 147.5 -50.5h65v358z" />
    <glyph glyph-name="periodcentered" unicode="&#xb7;" horiz-adv-x="211" 
d="M143 377c0 -10.667 -3.83301 -19.667 -11.5 -27s-16.5 -11 -26.5 -11c-10.667 0 -19.667 3.66699 -27 11s-11 16.333 -11 27s3.66699 20 11 28s16.333 12 27 12c10 0 18.833 -4 26.5 -12s11.5 -17.333 11.5 -28z" />
    <glyph glyph-name="cedilla" unicode="&#xb8;" horiz-adv-x="500" 
d="M359 -101c0 -14 -2.83105 -25.835 -8.49805 -35.502s-13.334 -17.5 -23.001 -23.5s-21 -10.333 -34 -13s-26.833 -4 -41.5 -4c-38 0 -73.333 10.667 -106 32l14 21c13.333 -9.33301 28.166 -16.333 44.499 -21s32.833 -7 49.5 -7c23.333 0 40.833 4.66699 52.5 14
s17.5 21.333 17.5 36c0 12.667 -3.83301 22.334 -11.5 29.001s-17.5 10 -29.5 10c-20.667 0 -38 -7 -52 -21l-26 9l30 75h31l-20 -50c12.667 8 29.667 12 51 12c14 0 27.833 -5.16699 41.5 -15.5s20.5 -26.166 20.5 -47.499z" />
    <glyph glyph-name="onesuperior" unicode="&#xb9;" 
d="M546 234c-2.66699 -2 -4.83398 -2.33301 -6.50098 -1s-1.83398 3.33301 -0.500977 6l69 88h-227v-255l88 70c3.33301 1.33301 5.5 1 6.5 -1s0.833008 -4 -0.5 -6l-114 -150l-113 150c-2 2 -2.33301 4 -1 6s3.33301 2.33301 6 1l88 -70v255h-229l69 -88
c1.33301 -2.66699 1.16602 -4.66699 -0.500977 -6s-3.83398 -1 -6.50098 1l-149 113l149 114c2.66699 1.33301 4.83398 1.5 6.50098 0.5s1.83398 -3.16699 0.500977 -6.5l-69 -88h229v261l-88 -70c-2.66699 -1.33301 -4.66699 -1 -6 1s-1 4 1 6l113 150l114 -150
c1.33301 -2 1.5 -4 0.5 -6s-3.16699 -2.33301 -6.5 -1l-88 70v-261h227l-69 88c-1.33301 3.33301 -1.16602 5.5 0.500977 6.5s3.83398 0.833008 6.50098 -0.5l149 -114z" />
    <glyph glyph-name="ordmasculine" unicode="&#xba;" horiz-adv-x="482" 
d="M424 494c0 -35.333 -4.83105 -66.665 -14.498 -93.998s-22.667 -50.333 -39 -69s-35.666 -32.834 -57.999 -42.501s-46.5 -14.5 -72.5 -14.5s-50 4.66699 -72 14s-41.167 23.333 -57.5 42s-29.166 41.5 -38.499 68.5s-14 58.167 -14 93.5s4.83301 66.666 14.5 93.999
s22.667 50.166 39 68.499s35.666 32.333 57.999 42s46.5 14.5 72.5 14.5c25.333 0 49.166 -4.66699 71.499 -14s41.666 -23.166 57.999 -41.499s29.166 -41 38.499 -68s14 -58.167 14 -93.5zM384.002 493.001c0 60 -13.5 105.333 -40.5 136s-61.167 46 -102.5 46
s-75.5 -15.333 -102.5 -46s-40.5 -76 -40.5 -136s13.5 -105.667 40.5 -137s61.167 -47 102.5 -47s75.5 15.667 102.5 47s40.5 77 40.5 137z" />
    <glyph glyph-name="guillemotright" unicode="&#xbb;" horiz-adv-x="556" 
d="M470 263l-203 262h50l203 -263l-203 -262h-50zM257 263l-203 262h50l203 -263l-203 -262h-50z" />
    <glyph glyph-name="onequarter" unicode="&#xbc;" 
d="M546 234c-2.66699 -2 -4.83398 -2.33301 -6.50098 -1s-1.83398 3.33301 -0.500977 6l69 88h-227v-255l88 70c3.33301 1.33301 5.5 1 6.5 -1s0.833008 -4 -0.5 -6l-114 -150l-113 150c-2 2 -2.33301 4 -1 6s3.33301 2.33301 6 1l88 -70v255h-229l69 -88
c1.33301 -2.66699 1.16602 -4.66699 -0.500977 -6s-3.83398 -1 -6.50098 1l-149 113l149 114c2.66699 1.33301 4.83398 1.5 6.50098 0.5s1.83398 -3.16699 0.500977 -6.5l-69 -88h229v261l-88 -70c-2.66699 -1.33301 -4.66699 -1 -6 1s-1 4 1 6l113 150l114 -150
c1.33301 -2 1.5 -4 0.5 -6s-3.16699 -2.33301 -6.5 -1l-88 70v-261h227l-69 88c-1.33301 3.33301 -1.16602 5.5 0.500977 6.5s3.83398 0.833008 6.50098 -0.5l149 -114z" />
    <glyph glyph-name="onehalf" unicode="&#xbd;" 
d="M546 234c-2.66699 -2 -4.83398 -2.33301 -6.50098 -1s-1.83398 3.33301 -0.500977 6l69 88h-227v-255l88 70c3.33301 1.33301 5.5 1 6.5 -1s0.833008 -4 -0.5 -6l-114 -150l-113 150c-2 2 -2.33301 4 -1 6s3.33301 2.33301 6 1l88 -70v255h-229l69 -88
c1.33301 -2.66699 1.16602 -4.66699 -0.500977 -6s-3.83398 -1 -6.50098 1l-149 113l149 114c2.66699 1.33301 4.83398 1.5 6.50098 0.5s1.83398 -3.16699 0.500977 -6.5l-69 -88h229v261l-88 -70c-2.66699 -1.33301 -4.66699 -1 -6 1s-1 4 1 6l113 150l114 -150
c1.33301 -2 1.5 -4 0.5 -6s-3.16699 -2.33301 -6.5 -1l-88 70v-261h227l-69 88c-1.33301 3.33301 -1.16602 5.5 0.500977 6.5s3.83398 0.833008 6.50098 -0.5l149 -114z" />
    <glyph glyph-name="threequarters" unicode="&#xbe;" 
d="M546 234c-2.66699 -2 -4.83398 -2.33301 -6.50098 -1s-1.83398 3.33301 -0.500977 6l69 88h-227v-255l88 70c3.33301 1.33301 5.5 1 6.5 -1s0.833008 -4 -0.5 -6l-114 -150l-113 150c-2 2 -2.33301 4 -1 6s3.33301 2.33301 6 1l88 -70v255h-229l69 -88
c1.33301 -2.66699 1.16602 -4.66699 -0.500977 -6s-3.83398 -1 -6.50098 1l-149 113l149 114c2.66699 1.33301 4.83398 1.5 6.50098 0.5s1.83398 -3.16699 0.500977 -6.5l-69 -88h229v261l-88 -70c-2.66699 -1.33301 -4.66699 -1 -6 1s-1 4 1 6l113 150l114 -150
c1.33301 -2 1.5 -4 0.5 -6s-3.16699 -2.33301 -6.5 -1l-88 70v-261h227l-69 88c-1.33301 3.33301 -1.16602 5.5 0.500977 6.5s3.83398 0.833008 6.50098 -0.5l149 -114z" />
    <glyph glyph-name="questiondown" unicode="&#xbf;" horiz-adv-x="557" 
d="M268 669c0 10 3.83301 18.667 11.5 26s16.167 11 25.5 11c10 0 18.667 -3.66699 26 -11s11 -16 11 -26s-3.66699 -18.833 -11 -26.5s-16 -11.5 -26 -11.5c-9.33301 0 -17.833 3.83301 -25.5 11.5s-11.5 16.5 -11.5 26.5zM79 154c0 22.667 2.50195 42.165 7.50195 58.498
s12.5 31.333 22.5 45s22.667 26.834 38 39.501l53 42c17.333 12.667 31.333 24.5 42 35.5s19 23.5 25 37.5s10 30.833 12 50.5s3 44.5 3 74.5h46c0 -34.667 -1.33301 -63.167 -4 -85.5s-7.83398 -41.666 -15.501 -57.999s-18.334 -31.166 -32.001 -44.499
s-31.834 -28 -54.501 -44c-17.333 -12.667 -32.166 -24.334 -44.499 -35.001s-22.333 -21.5 -30 -32.5s-13.334 -23 -17.001 -36s-5.5 -27.833 -5.5 -44.5c0 -38 14.333 -68.5 43 -91.5s67 -34.5 115 -34.5c40.667 0 76.167 6.66699 106.5 20s58.5 31 84.5 53l26 -33
c-26 -23.333 -56.667 -42.833 -92 -58.5s-77.666 -23.5 -126.999 -23.5c-30 0 -57.333 3.66699 -82 11s-46 18 -64 32s-31.833 31.333 -41.5 52s-14.5 44 -14.5 70z" />
    <glyph glyph-name="Agrave" unicode="&#xc0;" horiz-adv-x="664" 
d="M554 0l-67 193h-311l-67 -193h-47l245 702h50l245 -702h-48zM332 646l-142 -411h283zM315 745l-130 147h63l103 -147h-36z" />
    <glyph glyph-name="Aacute" unicode="&#xc1;" horiz-adv-x="664" 
d="M554 0l-67 193h-311l-67 -193h-47l245 702h50l245 -702h-48zM332 646l-142 -411h283zM349 745h-36l103 147h63z" />
    <glyph glyph-name="Acircumflex" unicode="&#xc2;" horiz-adv-x="664" 
d="M554 0l-67 193h-311l-67 -193h-47l245 702h50l245 -702h-48zM332 646l-142 -411h283zM448 725l-117 113l-116 -113h-38l130 147h50l130 -147h-39z" />
    <glyph glyph-name="Atilde" unicode="&#xc3;" horiz-adv-x="664" 
d="M554 0l-67 193h-311l-67 -193h-47l245 702h50l245 -702h-48zM332 646l-142 -411h283zM496 852c-1.33301 -36 -10.502 -62.5 -27.502 -79.5s-37.5 -25.5 -61.5 -25.5c-14 0 -27 2.66699 -39 8s-24 12.666 -36 21.999c-19.333 14 -33.833 24.167 -43.5 30.5
s-20.834 9.5 -33.501 9.5c-13.333 0 -24.666 -5.16699 -33.999 -15.5s-15.666 -27.833 -18.999 -52.5h-36c1.33301 36 10.5 62.5 27.5 79.5s37.5 25.5 61.5 25.5c14 0 27 -2.66699 39 -8s24 -12.666 36 -21.999c18.667 -14 33.167 -24.167 43.5 -30.5s21.5 -9.5 33.5 -9.5
c28.667 0 46.334 22.667 53.001 68h36z" />
    <glyph glyph-name="Adieresis" unicode="&#xc4;" horiz-adv-x="664" 
d="M554 0l-67 193h-311l-67 -193h-47l245 702h50l245 -702h-48zM332 646l-142 -411h283zM463 807c0 -9.33301 -3.16699 -17.166 -9.5 -23.499s-14.166 -9.5 -23.499 -9.5s-17.166 3.16699 -23.499 9.5s-9.5 14.166 -9.5 23.499s3.16699 17.333 9.5 24s14.166 10 23.499 10
s17.166 -3.33301 23.499 -10s9.5 -14.667 9.5 -24zM269 807c0 -9.33301 -3.16699 -17.166 -9.5 -23.499s-13.833 -9.5 -22.5 -9.5c-9.33301 0 -17.333 3.16699 -24 9.5s-10 14.166 -10 23.499s3.33301 17.333 10 24s14.667 10 24 10c8.66699 0 16.167 -3.33301 22.5 -10
s9.5 -14.667 9.5 -24z" />
    <glyph glyph-name="Aring" unicode="&#xc5;" horiz-adv-x="664" 
d="M554 0l-67 193h-311l-67 -193h-47l236 674c-18.667 6.66699 -34 18.167 -46 34.5s-18 35.166 -18 56.499c0 13.333 2.5 26 7.5 38s11.833 22.333 20.5 31s19 15.5 31 20.5s25 7.5 39 7.5c28 0 51.167 -9.33301 69.5 -28s27.5 -41.667 27.5 -69
c0 -21.333 -6 -40.166 -18 -56.499s-27.333 -27.5 -46 -33.5l237 -675h-48zM401 765c0 19.333 -6.5 35.666 -19.5 48.999s-29.5 20 -49.5 20c-20.667 0 -37.5 -6.66699 -50.5 -20s-19.5 -29.666 -19.5 -48.999c0 -20.667 6.5 -37.5 19.5 -50.5s29.833 -19.5 50.5 -19.5
c20 0 36.5 6.5 49.5 19.5s19.5 29.833 19.5 50.5zM332 646l-142 -411h283z" />
    <glyph glyph-name="AE" unicode="&#xc6;" horiz-adv-x="964" 
d="M505 0v193h-297l-129 -193h-53l474 700h401v-42h-352v-264h213v-42h-213v-310h367v-42h-411zM505 637l-270 -402h270v402z" />
    <glyph glyph-name="Ccedilla" unicode="&#xc7;" horiz-adv-x="619" 
d="M318 -9c-37.333 4.66699 -71.3291 16.6641 -101.996 35.9971s-56.834 44.5 -78.501 75.5s-38.5 67.5 -50.5 109.5s-18 87.667 -18 137c0 54 7 103.167 21 147.5s33.5 82.333 58.5 114s54.833 56.334 89.5 74.001s73 26.5 115 26.5c44 0 82 -7.33301 114 -22
s60.333 -37 85 -67l-31 -32c-22.667 27.333 -47 47.333 -73 60s-58 19 -96 19c-34.667 0 -66.5 -7.66699 -95.5 -23s-54 -36.833 -75 -64.5s-37.333 -61 -49 -100s-17.5 -82.5 -17.5 -130.5s6 -91.667 18 -131s28.5 -73 49.5 -101s46 -49.667 75 -65s60.5 -23 94.5 -23
c36 0 68.167 7 96.5 21s55.166 35.333 80.499 64l30 -31c-25.333 -30 -55.5 -53.5 -90.5 -70.5s-74.167 -25.5 -117.5 -25.5h-2l-16 -39c12.667 8 29.667 12 51 12c14 0 27.833 -5.16699 41.5 -15.5s20.5 -26.166 20.5 -47.499c0 -14 -2.83301 -25.833 -8.5 -35.5
s-13.334 -17.5 -23.001 -23.5s-21 -10.333 -34 -13s-26.833 -4 -41.5 -4c-38 0 -73.333 10.667 -106 32l14 21c13.333 -9.33301 28.166 -16.333 44.499 -21s32.833 -7 49.5 -7c23.333 0 40.833 4.66699 52.5 14s17.5 21.333 17.5 36c0 12.667 -3.83301 22.334 -11.5 29.001
s-17.5 10 -29.5 10c-20.667 0 -38 -7 -52 -21l-26 9l26 66v0z" />
    <glyph glyph-name="Egrave" unicode="&#xc8;" horiz-adv-x="555" 
d="M96 0v700h396v-42h-350v-264h212v-42h-212v-310h365v-42h-411zM293 745l-130 147h63l103 -147h-36z" />
    <glyph glyph-name="Eacute" unicode="&#xc9;" horiz-adv-x="555" 
d="M96 0v700h396v-42h-350v-264h212v-42h-212v-310h365v-42h-411zM292 745h-36l103 147h63z" />
    <glyph glyph-name="Ecircumflex" unicode="&#xca;" horiz-adv-x="555" 
d="M96 0v700h396v-42h-350v-264h212v-42h-212v-310h365v-42h-411zM409 745l-117 113l-116 -113h-38l130 147h50l130 -147h-39z" />
    <glyph glyph-name="Edieresis" unicode="&#xcb;" horiz-adv-x="555" 
d="M96 0v700h396v-42h-350v-264h212v-42h-212v-310h365v-42h-411zM425 809c0 -9.33301 -3.16699 -17.166 -9.5 -23.499s-14.166 -9.5 -23.499 -9.5s-17.166 3.16699 -23.499 9.5s-9.5 14.166 -9.5 23.499s3.16699 17.333 9.5 24s14.166 10 23.499 10
s17.166 -3.33301 23.499 -10s9.5 -14.667 9.5 -24zM231 809c0 -9.33301 -3.16699 -17.166 -9.5 -23.499s-13.833 -9.5 -22.5 -9.5c-9.33301 0 -17.333 3.16699 -24 9.5s-10 14.166 -10 23.499s3.33301 17.333 10 24s14.667 10 24 10c8.66699 0 16.167 -3.33301 22.5 -10
s9.5 -14.667 9.5 -24z" />
    <glyph glyph-name="Igrave" unicode="&#xcc;" horiz-adv-x="249" 
d="M101 0v700h46v-700h-46zM109 745l-130 147h63l103 -147h-36z" />
    <glyph glyph-name="Iacute" unicode="&#xcd;" horiz-adv-x="249" 
d="M101 0v700h46v-700h-46zM141 745h-36l103 147h63z" />
    <glyph glyph-name="Icircumflex" unicode="&#xce;" horiz-adv-x="249" 
d="M101 0v700h46v-700h-46zM239 734l-117 113l-116 -113h-38l130 147h50l130 -147h-39z" />
    <glyph glyph-name="Idieresis" unicode="&#xcf;" horiz-adv-x="249" 
d="M101 0v700h46v-700h-46zM255 809c0 -9.33301 -3.16699 -17.166 -9.5 -23.499s-14.166 -9.5 -23.499 -9.5s-17.166 3.16699 -23.499 9.5s-9.5 14.166 -9.5 23.499s3.16699 17.333 9.5 24s14.166 10 23.499 10s17.166 -3.33301 23.499 -10s9.5 -14.667 9.5 -24zM61 809
c0 -9.33301 -3.16699 -17.166 -9.5 -23.499s-13.833 -9.5 -22.5 -9.5c-9.33301 0 -17.333 3.16699 -24 9.5s-10 14.166 -10 23.499s3.33301 17.333 10 24s14.667 10 24 10c8.66699 0 16.167 -3.33301 22.5 -10s9.5 -14.667 9.5 -24z" />
    <glyph glyph-name="Eth" unicode="&#xd0;" horiz-adv-x="679" 
d="M602 353c0 -62.667 -7.83398 -116.334 -23.501 -161.001s-37.667 -81.167 -66 -109.5s-62.166 -49.166 -101.499 -62.499s-83 -20 -131 -20h-174v344h-66v42h66v314h182c47.333 0 90.333 -6.83301 129 -20.5s71.667 -34.667 99 -63s48.5 -64.333 63.5 -108
s22.5 -95.5 22.5 -155.5zM555.999 351c0 103.333 -23 180.333 -69 231s-113.667 76 -203 76h-133v-272h152v-42h-152v-302h135c42.667 0 80.667 5.83301 114 17.5s61.5 30 84.5 55s40.667 57 53 96s18.5 85.833 18.5 140.5z" />
    <glyph glyph-name="Ntilde" unicode="&#xd1;" horiz-adv-x="671" 
d="M533 0l-392 621v-621h-45v700h45l389 -617v617h44v-700h-41zM505 852c-1.33301 -36 -10.502 -62.5 -27.502 -79.5s-37.5 -25.5 -61.5 -25.5c-14 0 -27 2.66699 -39 8s-24 12.666 -36 21.999c-19.333 14 -33.833 24.167 -43.5 30.5s-20.834 9.5 -33.501 9.5
c-13.333 0 -24.666 -5.16699 -33.999 -15.5s-15.666 -27.833 -18.999 -52.5h-36c1.33301 36 10.5 62.5 27.5 79.5s37.5 25.5 61.5 25.5c14 0 27 -2.66699 39 -8s24 -12.666 36 -21.999c18.667 -14 33.167 -24.167 43.5 -30.5s21.5 -9.5 33.5 -9.5
c28.667 0 46.334 22.667 53.001 68h36v0z" />
    <glyph glyph-name="Ograve" unicode="&#xd2;" horiz-adv-x="714" 
d="M645 352c0 -54.667 -7.16699 -104.332 -21.5 -148.999s-34.166 -82.834 -59.499 -114.501s-55.833 -56.167 -91.5 -73.5s-74.5 -26 -116.5 -26s-80.667 8.5 -116 25.5s-65.666 41.333 -90.999 73s-45 69.667 -59 114s-21 93.833 -21 148.5s7.16699 104.167 21.5 148.5
s34.166 82.333 59.499 114s55.833 56 91.5 73s74.5 25.5 116.5 25.5s80.667 -8.5 116 -25.5s65.666 -41 90.999 -72s45 -68.667 59 -113s21 -93.833 21 -148.5zM599 350.002c0 49.333 -6.16699 93.6641 -18.5 132.997s-29.333 72.833 -51 100.5
s-47.334 48.834 -77.001 63.501s-61.834 22 -96.501 22s-66.667 -7.16699 -96 -21.5s-54.833 -35.166 -76.5 -62.499s-38.5 -60.666 -50.5 -99.999s-18 -83.666 -18 -132.999s6.16699 -93.833 18.5 -133.5s29.333 -73.334 51 -101.001s47.334 -49 77.001 -64
s61.834 -22.5 96.501 -22.5s66.667 7.33301 96 22s54.833 35.667 76.5 63s38.5 60.833 50.5 100.5s18 84.167 18 133.5zM346 745l-130 147h63l103 -147h-36z" />
    <glyph glyph-name="Oacute" unicode="&#xd3;" horiz-adv-x="714" 
d="M645 352c0 -54.667 -7.16699 -104.332 -21.5 -148.999s-34.166 -82.834 -59.499 -114.501s-55.833 -56.167 -91.5 -73.5s-74.5 -26 -116.5 -26s-80.667 8.5 -116 25.5s-65.666 41.333 -90.999 73s-45 69.667 -59 114s-21 93.833 -21 148.5s7.16699 104.167 21.5 148.5
s34.166 82.333 59.499 114s55.833 56 91.5 73s74.5 25.5 116.5 25.5s80.667 -8.5 116 -25.5s65.666 -41 90.999 -72s45 -68.667 59 -113s21 -93.833 21 -148.5zM599 350.002c0 49.333 -6.16699 93.6641 -18.5 132.997s-29.333 72.833 -51 100.5
s-47.334 48.834 -77.001 63.501s-61.834 22 -96.501 22s-66.667 -7.16699 -96 -21.5s-54.833 -35.166 -76.5 -62.499s-38.5 -60.666 -50.5 -99.999s-18 -83.666 -18 -132.999s6.16699 -93.833 18.5 -133.5s29.333 -73.334 51 -101.001s47.334 -49 77.001 -64
s61.834 -22.5 96.501 -22.5s66.667 7.33301 96 22s54.833 35.667 76.5 63s38.5 60.833 50.5 100.5s18 84.167 18 133.5zM362 745h-36l103 147h63z" />
    <glyph glyph-name="Ocircumflex" unicode="&#xd4;" horiz-adv-x="714" 
d="M645 352c0 -54.667 -7.16699 -104.332 -21.5 -148.999s-34.166 -82.834 -59.499 -114.501s-55.833 -56.167 -91.5 -73.5s-74.5 -26 -116.5 -26s-80.667 8.5 -116 25.5s-65.666 41.333 -90.999 73s-45 69.667 -59 114s-21 93.833 -21 148.5s7.16699 104.167 21.5 148.5
s34.166 82.333 59.499 114s55.833 56 91.5 73s74.5 25.5 116.5 25.5s80.667 -8.5 116 -25.5s65.666 -41 90.999 -72s45 -68.667 59 -113s21 -93.833 21 -148.5zM599 350.002c0 49.333 -6.16699 93.6641 -18.5 132.997s-29.333 72.833 -51 100.5
s-47.334 48.834 -77.001 63.501s-61.834 22 -96.501 22s-66.667 -7.16699 -96 -21.5s-54.833 -35.166 -76.5 -62.499s-38.5 -60.666 -50.5 -99.999s-18 -83.666 -18 -132.999s6.16699 -93.833 18.5 -133.5s29.333 -73.334 51 -101.001s47.334 -49 77.001 -64
s61.834 -22.5 96.501 -22.5s66.667 7.33301 96 22s54.833 35.667 76.5 63s38.5 60.833 50.5 100.5s18 84.167 18 133.5zM472 742l-117 113l-116 -113h-38l130 147h50l130 -147h-39z" />
    <glyph glyph-name="Otilde" unicode="&#xd5;" horiz-adv-x="714" 
d="M645 352c0 -54.667 -7.16699 -104.332 -21.5 -148.999s-34.166 -82.834 -59.499 -114.501s-55.833 -56.167 -91.5 -73.5s-74.5 -26 -116.5 -26s-80.667 8.5 -116 25.5s-65.666 41.333 -90.999 73s-45 69.667 -59 114s-21 93.833 -21 148.5s7.16699 104.167 21.5 148.5
s34.166 82.333 59.499 114s55.833 56 91.5 73s74.5 25.5 116.5 25.5s80.667 -8.5 116 -25.5s65.666 -41 90.999 -72s45 -68.667 59 -113s21 -93.833 21 -148.5zM599 350.002c0 49.333 -6.16699 93.6641 -18.5 132.997s-29.333 72.833 -51 100.5
s-47.334 48.834 -77.001 63.501s-61.834 22 -96.501 22s-66.667 -7.16699 -96 -21.5s-54.833 -35.166 -76.5 -62.499s-38.5 -60.666 -50.5 -99.999s-18 -83.666 -18 -132.999s6.16699 -93.833 18.5 -133.5s29.333 -73.334 51 -101.001s47.334 -49 77.001 -64
s61.834 -22.5 96.501 -22.5s66.667 7.33301 96 22s54.833 35.667 76.5 63s38.5 60.833 50.5 100.5s18 84.167 18 133.5zM519 852c-1.33301 -36 -10.502 -62.5 -27.502 -79.5s-37.5 -25.5 -61.5 -25.5c-14 0 -27 2.66699 -39 8s-24 12.666 -36 21.999
c-19.333 14 -33.833 24.167 -43.5 30.5s-20.834 9.5 -33.501 9.5c-13.333 0 -24.666 -5.16699 -33.999 -15.5s-15.666 -27.833 -18.999 -52.5h-36c1.33301 36 10.5 62.5 27.5 79.5s37.5 25.5 61.5 25.5c14 0 27 -2.66699 39 -8s24 -12.666 36 -21.999
c18.667 -14 33.167 -24.167 43.5 -30.5s21.5 -9.5 33.5 -9.5c28.667 0 46.334 22.667 53.001 68h36v0z" />
    <glyph glyph-name="Odieresis" unicode="&#xd6;" horiz-adv-x="714" 
d="M645 352c0 -54.667 -7.16699 -104.332 -21.5 -148.999s-34.166 -82.834 -59.499 -114.501s-55.833 -56.167 -91.5 -73.5s-74.5 -26 -116.5 -26s-80.667 8.5 -116 25.5s-65.666 41.333 -90.999 73s-45 69.667 -59 114s-21 93.833 -21 148.5s7.16699 104.167 21.5 148.5
s34.166 82.333 59.499 114s55.833 56 91.5 73s74.5 25.5 116.5 25.5s80.667 -8.5 116 -25.5s65.666 -41 90.999 -72s45 -68.667 59 -113s21 -93.833 21 -148.5zM599 350.002c0 49.333 -6.16699 93.6641 -18.5 132.997s-29.333 72.833 -51 100.5
s-47.334 48.834 -77.001 63.501s-61.834 22 -96.501 22s-66.667 -7.16699 -96 -21.5s-54.833 -35.166 -76.5 -62.499s-38.5 -60.666 -50.5 -99.999s-18 -83.666 -18 -132.999s6.16699 -93.833 18.5 -133.5s29.333 -73.334 51 -101.001s47.334 -49 77.001 -64
s61.834 -22.5 96.501 -22.5s66.667 7.33301 96 22s54.833 35.667 76.5 63s38.5 60.833 50.5 100.5s18 84.167 18 133.5zM486 809c0 -9.33301 -3.16699 -17.166 -9.5 -23.499s-14.166 -9.5 -23.499 -9.5s-17.166 3.16699 -23.499 9.5s-9.5 14.166 -9.5 23.499
s3.16699 17.333 9.5 24s14.166 10 23.499 10s17.166 -3.33301 23.499 -10s9.5 -14.667 9.5 -24zM292 809c0 -9.33301 -3.16699 -17.166 -9.5 -23.499s-13.833 -9.5 -22.5 -9.5c-9.33301 0 -17.333 3.16699 -24 9.5s-10 14.166 -10 23.499s3.33301 17.333 10 24
s14.667 10 24 10c8.66699 0 16.167 -3.33301 22.5 -10s9.5 -14.667 9.5 -24z" />
    <glyph glyph-name="multiply" unicode="&#xd7;" 
d="M546 234c-2.66699 -2 -4.83398 -2.33301 -6.50098 -1s-1.83398 3.33301 -0.500977 6l69 88h-227v-255l88 70c3.33301 1.33301 5.5 1 6.5 -1s0.833008 -4 -0.5 -6l-114 -150l-113 150c-2 2 -2.33301 4 -1 6s3.33301 2.33301 6 1l88 -70v255h-229l69 -88
c1.33301 -2.66699 1.16602 -4.66699 -0.500977 -6s-3.83398 -1 -6.50098 1l-149 113l149 114c2.66699 1.33301 4.83398 1.5 6.50098 0.5s1.83398 -3.16699 0.500977 -6.5l-69 -88h229v261l-88 -70c-2.66699 -1.33301 -4.66699 -1 -6 1s-1 4 1 6l113 150l114 -150
c1.33301 -2 1.5 -4 0.5 -6s-3.16699 -2.33301 -6.5 -1l-88 70v-261h227l-69 88c-1.33301 3.33301 -1.16602 5.5 0.500977 6.5s3.83398 0.833008 6.50098 -0.5l149 -114z" />
    <glyph glyph-name="Oslash" unicode="&#xd8;" horiz-adv-x="714" 
d="M188 48c-37.333 30.667 -66.5 71.835 -87.5 123.502s-31.5 111.5 -31.5 179.5c0 54.667 7 104.167 21 148.5s33.833 82.166 59.5 113.499s56.167 55.5 91.5 72.5s74 25.5 116 25.5c48 0 92 -11.333 132 -34l34 73h41l-44 -93c39.333 -30.667 70 -72 92 -124
s33 -112.667 33 -182c0 -54.667 -7 -104.334 -21 -149.001s-33.833 -82.667 -59.5 -114s-56.167 -55.666 -91.5 -72.999s-74 -26 -116 -26c-50.667 0 -96.667 12.333 -138 37l-36 -76h-41l16 34c4.66699 9.33301 9.5 19.666 14.5 30.999s10.167 22.333 15.5 33zM470 638.001
c-34 20.667 -71.668 30.998 -113.001 30.998c-34.667 0 -66.667 -7.33301 -96 -22s-54.833 -35.667 -76.5 -63s-38.667 -60.666 -51 -99.999s-18.5 -83.666 -18.5 -132.999c0 -58.667 8.33301 -110 25 -154s39.334 -79.667 68.001 -107zM237.999 65.999
c35.333 -23.333 75.001 -35.001 119.001 -35.001c34.667 0 66.834 7.33301 96.501 22s55.167 35.834 76.5 63.501s38.166 61.334 50.499 101.001s18.5 84.167 18.5 133.5c0 60.667 -8.83301 113.167 -26.5 157.5s-41.834 80.166 -72.501 107.499z" />
    <glyph glyph-name="Ugrave" unicode="&#xd9;" horiz-adv-x="667" 
d="M576 270c0 -187.333 -80.667 -281 -242 -281c-80 0 -140.5 23 -181.5 69s-61.5 116.333 -61.5 211v431h46v-430c0 -81.333 16.5 -141.5 49.5 -180.5s82.833 -58.5 149.5 -58.5s115.667 19.333 147 58s47 98.667 47 180v431h46v-430v0zM323 732l-130 147h63l103 -147h-36z
" />
    <glyph glyph-name="Uacute" unicode="&#xda;" horiz-adv-x="667" 
d="M576 270c0 -187.333 -80.667 -281 -242 -281c-80 0 -140.5 23 -181.5 69s-61.5 116.333 -61.5 211v431h46v-430c0 -81.333 16.5 -141.5 49.5 -180.5s82.833 -58.5 149.5 -58.5s115.667 19.333 147 58s47 98.667 47 180v431h46v-430v0zM338 732h-36l103 147h63z" />
    <glyph glyph-name="Ucircumflex" unicode="&#xdb;" horiz-adv-x="667" 
d="M576 270c0 -187.333 -80.667 -281 -242 -281c-80 0 -140.5 23 -181.5 69s-61.5 116.333 -61.5 211v431h46v-430c0 -81.333 16.5 -141.5 49.5 -180.5s82.833 -58.5 149.5 -58.5s115.667 19.333 147 58s47 98.667 47 180v431h46v-430zM449 745l-117 113l-116 -113h-38
l130 147h50l130 -147h-39z" />
    <glyph glyph-name="Udieresis" unicode="&#xdc;" horiz-adv-x="667" 
d="M576 270c0 -187.333 -80.667 -281 -242 -281c-80 0 -140.5 23 -181.5 69s-61.5 116.333 -61.5 211v431h46v-430c0 -81.333 16.5 -141.5 49.5 -180.5s82.833 -58.5 149.5 -58.5s115.667 19.333 147 58s47 98.667 47 180v431h46v-430zM464 805
c0 -9.33301 -3.16699 -17.166 -9.5 -23.499s-14.166 -9.5 -23.499 -9.5s-17.166 3.16699 -23.499 9.5s-9.5 14.166 -9.5 23.499s3.16699 17.333 9.5 24s14.166 10 23.499 10s17.166 -3.33301 23.499 -10s9.5 -14.667 9.5 -24zM270 805
c0 -9.33301 -3.16699 -17.166 -9.5 -23.499s-13.833 -9.5 -22.5 -9.5c-9.33301 0 -17.333 3.16699 -24 9.5s-10 14.166 -10 23.499s3.33301 17.333 10 24s14.667 10 24 10c8.66699 0 16.167 -3.33301 22.5 -10s9.5 -14.667 9.5 -24z" />
    <glyph glyph-name="Yacute" unicode="&#xdd;" horiz-adv-x="633" 
d="M339 288v-288h-46v287l-238 413h52l210 -366l210 366h51zM329 730h-36l103 147h63z" />
    <glyph glyph-name="Thorn" unicode="&#xde;" horiz-adv-x="594" 
d="M549 367c0 -68.667 -21.1689 -120.501 -63.502 -155.501s-100.5 -52.5 -174.5 -52.5h-169v-159h-46v700h46v-133h183c32.667 0 62.834 -3.83301 90.501 -11.5s51.334 -19.5 71.001 -35.5s35 -36.667 46 -62s16.5 -55.666 16.5 -90.999zM501.998 364.999
c0 56 -15.5 96.667 -46.5 122s-75.167 38 -132.5 38h-181v-324h169c127.333 0 191 54.667 191 164z" />
    <glyph glyph-name="germandbls" unicode="&#xdf;" horiz-adv-x="569" 
d="M512 222c0 -40 -6.50195 -74.0029 -19.502 -102.003s-31 -51 -54 -69s-50.167 -31 -81.5 -39s-65 -12 -101 -12h-13v39h15c64.667 0 115.834 14.167 153.501 42.5s56.5 73.833 56.5 136.5c0 26.667 -5 50.334 -15 71.001s-24.167 37.667 -42.5 51
s-40.166 23.5 -65.499 30.5s-53.333 10.5 -84 10.5h-18v38h20c50 0 87.333 11.833 112 35.5s37 57.5 37 101.5c0 37.333 -12.333 68 -37 92s-60 36 -106 36c-42 0 -75.667 -13.5 -101 -40.5s-38 -66.5 -38 -118.5v-690l-44 -25v708c0 66 16.667 116.667 50 152
s78.333 53 135 53c29.333 0 55.5 -4.33301 78.5 -13s42.5 -20.5 58.5 -35.5s28.167 -32.667 36.5 -53s12.5 -42.166 12.5 -65.499c0 -45.333 -11.5 -80.166 -34.5 -104.499s-51.5 -40.166 -85.5 -47.499c24 -3.33301 46.5 -9.33301 67.5 -18s39.5 -20.334 55.5 -35.001
s28.667 -32.667 38 -54s14 -46.333 14 -75z" />
    <glyph glyph-name="agrave" unicode="&#xe0;" horiz-adv-x="532" 
d="M406 0v78.998c-20 -25.333 -45 -46.666 -75 -63.999s-64.333 -26 -103 -26c-21.333 0 -42.5 2.66699 -63.5 8s-39.667 14.333 -56 27s-29.5 29.334 -39.5 50.001s-15 46.334 -15 77.001c0 28.667 5.33301 53.667 16 75s25.167 39 43.5 53s39.333 24.333 63 31
s48.5 10 74.5 10c32 0 61.167 -3.83301 87.5 -11.5s48.833 -16.834 67.5 -27.501v78c0 50 -11.167 85.833 -33.5 107.5s-56.833 32.5 -103.5 32.5c-30 0 -57 -3.83301 -81 -11.5s-47.333 -17.5 -70 -29.5l-16 36c23.333 12 49 22 77 30s59 12 93 12c28.667 0 54 -3 76 -9
s40.5 -15.833 55.5 -29.5s26.5 -31.5 34.5 -53.5s12 -48.667 12 -80v-364h-44zM406 244.998c-20 11.333 -42.502 20.666 -67.502 27.999s-54.833 11 -89.5 11c-44 0 -80.333 -11 -109 -33s-43 -54.667 -43 -98c0 -23.333 3.66699 -43.166 11 -59.499s17.333 -29.5 30 -39.5
s27.334 -17.333 44.001 -22s34.334 -7 53.001 -7c37.333 0 70.333 9.16699 99 27.5s52.667 41.833 72 70.5v122zM259.998 594.998l-130 147h63l103 -147h-36z" />
    <glyph glyph-name="aacute" unicode="&#xe1;" horiz-adv-x="532" 
d="M406 0v78.998c-20 -25.333 -45 -46.666 -75 -63.999s-64.333 -26 -103 -26c-21.333 0 -42.5 2.66699 -63.5 8s-39.667 14.333 -56 27s-29.5 29.334 -39.5 50.001s-15 46.334 -15 77.001c0 28.667 5.33301 53.667 16 75s25.167 39 43.5 53s39.333 24.333 63 31
s48.5 10 74.5 10c32 0 61.167 -3.83301 87.5 -11.5s48.833 -16.834 67.5 -27.501v78c0 50 -11.167 85.833 -33.5 107.5s-56.833 32.5 -103.5 32.5c-30 0 -57 -3.83301 -81 -11.5s-47.333 -17.5 -70 -29.5l-16 36c23.333 12 49 22 77 30s59 12 93 12c28.667 0 54 -3 76 -9
s40.5 -15.833 55.5 -29.5s26.5 -31.5 34.5 -53.5s12 -48.667 12 -80v-364h-44zM406 244.998c-20 11.333 -42.502 20.666 -67.502 27.999s-54.833 11 -89.5 11c-44 0 -80.333 -11 -109 -33s-43 -54.667 -43 -98c0 -23.333 3.66699 -43.166 11 -59.499s17.333 -29.5 30 -39.5
s27.334 -17.333 44.001 -22s34.334 -7 53.001 -7c37.333 0 70.333 9.16699 99 27.5s52.667 41.833 72 70.5v122zM277.998 594.998h-36l103 147h63z" />
    <glyph glyph-name="acircumflex" unicode="&#xe2;" horiz-adv-x="532" 
d="M406 0v78.998c-20 -25.333 -45 -46.666 -75 -63.999s-64.333 -26 -103 -26c-21.333 0 -42.5 2.66699 -63.5 8s-39.667 14.333 -56 27s-29.5 29.334 -39.5 50.001s-15 46.334 -15 77.001c0 28.667 5.33301 53.667 16 75s25.167 39 43.5 53s39.333 24.333 63 31
s48.5 10 74.5 10c32 0 61.167 -3.83301 87.5 -11.5s48.833 -16.834 67.5 -27.501v78c0 50 -11.167 85.833 -33.5 107.5s-56.833 32.5 -103.5 32.5c-30 0 -57 -3.83301 -81 -11.5s-47.333 -17.5 -70 -29.5l-16 36c23.333 12 49 22 77 30s59 12 93 12c28.667 0 54 -3 76 -9
s40.5 -15.833 55.5 -29.5s26.5 -31.5 34.5 -53.5s12 -48.667 12 -80v-364h-44zM406 244.998c-20 11.333 -42.502 20.666 -67.502 27.999s-54.833 11 -89.5 11c-44 0 -80.333 -11 -109 -33s-43 -54.667 -43 -98c0 -23.333 3.66699 -43.166 11 -59.499s17.333 -29.5 30 -39.5
s27.334 -17.333 44.001 -22s34.334 -7 53.001 -7c37.333 0 70.333 9.16699 99 27.5s52.667 41.833 72 70.5v122zM382.998 592.998l-117 113l-116 -113h-38l130 147h50l130 -147h-39z" />
    <glyph glyph-name="atilde" unicode="&#xe3;" horiz-adv-x="532" 
d="M406 0v78.998c-20 -25.333 -45 -46.666 -75 -63.999s-64.333 -26 -103 -26c-21.333 0 -42.5 2.66699 -63.5 8s-39.667 14.333 -56 27s-29.5 29.334 -39.5 50.001s-15 46.334 -15 77.001c0 28.667 5.33301 53.667 16 75s25.167 39 43.5 53s39.333 24.333 63 31
s48.5 10 74.5 10c32 0 61.167 -3.83301 87.5 -11.5s48.833 -16.834 67.5 -27.501v78c0 50 -11.167 85.833 -33.5 107.5s-56.833 32.5 -103.5 32.5c-30 0 -57 -3.83301 -81 -11.5s-47.333 -17.5 -70 -29.5l-16 36c23.333 12 49 22 77 30s59 12 93 12c28.667 0 54 -3 76 -9
s40.5 -15.833 55.5 -29.5s26.5 -31.5 34.5 -53.5s12 -48.667 12 -80v-364h-44zM406 244.998c-20 11.333 -42.502 20.666 -67.502 27.999s-54.833 11 -89.5 11c-44 0 -80.333 -11 -109 -33s-43 -54.667 -43 -98c0 -23.333 3.66699 -43.166 11 -59.499s17.333 -29.5 30 -39.5
s27.334 -17.333 44.001 -22s34.334 -7 53.001 -7c37.333 0 70.333 9.16699 99 27.5s52.667 41.833 72 70.5v122zM432.998 701.998c-1.33301 -36 -10.502 -62.5 -27.502 -79.5s-37.5 -25.5 -61.5 -25.5c-14 0 -27 2.66699 -39 8s-24 12.666 -36 21.999
c-19.333 14 -33.833 24.167 -43.5 30.5s-20.834 9.5 -33.501 9.5c-13.333 0 -24.666 -5.16699 -33.999 -15.5s-15.666 -27.833 -18.999 -52.5h-36c1.33301 36 10.5 62.5 27.5 79.5s37.5 25.5 61.5 25.5c14 0 27 -2.66699 39 -8s24 -12.666 36 -21.999
c18.667 -14 33.167 -24.167 43.5 -30.5s21.5 -9.5 33.5 -9.5c28.667 0 46.334 22.667 53.001 68h36v0z" />
    <glyph glyph-name="adieresis" unicode="&#xe4;" horiz-adv-x="532" 
d="M406 0v78.998c-20 -25.333 -45 -46.666 -75 -63.999s-64.333 -26 -103 -26c-21.333 0 -42.5 2.66699 -63.5 8s-39.667 14.333 -56 27s-29.5 29.334 -39.5 50.001s-15 46.334 -15 77.001c0 28.667 5.33301 53.667 16 75s25.167 39 43.5 53s39.333 24.333 63 31
s48.5 10 74.5 10c32 0 61.167 -3.83301 87.5 -11.5s48.833 -16.834 67.5 -27.501v78c0 50 -11.167 85.833 -33.5 107.5s-56.833 32.5 -103.5 32.5c-30 0 -57 -3.83301 -81 -11.5s-47.333 -17.5 -70 -29.5l-16 36c23.333 12 49 22 77 30s59 12 93 12c28.667 0 54 -3 76 -9
s40.5 -15.833 55.5 -29.5s26.5 -31.5 34.5 -53.5s12 -48.667 12 -80v-364h-44zM406 244.998c-20 11.333 -42.502 20.666 -67.502 27.999s-54.833 11 -89.5 11c-44 0 -80.333 -11 -109 -33s-43 -54.667 -43 -98c0 -23.333 3.66699 -43.166 11 -59.499s17.333 -29.5 30 -39.5
s27.334 -17.333 44.001 -22s34.334 -7 53.001 -7c37.333 0 70.333 9.16699 99 27.5s52.667 41.833 72 70.5v122zM396.998 655.998c0 -9.33301 -3.16699 -17.166 -9.5 -23.499s-14.166 -9.5 -23.499 -9.5s-17.166 3.16699 -23.499 9.5s-9.5 14.166 -9.5 23.499
s3.16699 17.333 9.5 24s14.166 10 23.499 10s17.166 -3.33301 23.499 -10s9.5 -14.667 9.5 -24zM202.998 655.998c0 -9.33301 -3.16699 -17.166 -9.5 -23.499s-13.833 -9.5 -22.5 -9.5c-9.33301 0 -17.333 3.16699 -24 9.5s-10 14.166 -10 23.499s3.33301 17.333 10 24
s14.667 10 24 10c8.66699 0 16.167 -3.33301 22.5 -10s9.5 -14.667 9.5 -24z" />
    <glyph glyph-name="aring" unicode="&#xe5;" horiz-adv-x="532" 
d="M406 0v78.998c-20 -25.333 -45 -46.666 -75 -63.999s-64.333 -26 -103 -26c-21.333 0 -42.5 2.66699 -63.5 8s-39.667 14.333 -56 27s-29.5 29.334 -39.5 50.001s-15 46.334 -15 77.001c0 28.667 5.33301 53.667 16 75s25.167 39 43.5 53s39.333 24.333 63 31
s48.5 10 74.5 10c32 0 61.167 -3.83301 87.5 -11.5s48.833 -16.834 67.5 -27.501v78c0 50 -11.167 85.833 -33.5 107.5s-56.833 32.5 -103.5 32.5c-30 0 -57 -3.83301 -81 -11.5s-47.333 -17.5 -70 -29.5l-16 36c23.333 12 49 22 77 30s59 12 93 12c28.667 0 54 -3 76 -9
s40.5 -15.833 55.5 -29.5s26.5 -31.5 34.5 -53.5s12 -48.667 12 -80v-364h-44zM406 244.998c-20 11.333 -42.502 20.666 -67.502 27.999s-54.833 11 -89.5 11c-44 0 -80.333 -11 -109 -33s-43 -54.667 -43 -98c0 -23.333 3.66699 -43.166 11 -59.499s17.333 -29.5 30 -39.5
s27.334 -17.333 44.001 -22s34.334 -7 53.001 -7c37.333 0 70.333 9.16699 99 27.5s52.667 41.833 72 70.5v122zM365.998 693.998c0 -13.333 -2.5 -26 -7.5 -38s-11.833 -22.333 -20.5 -31s-19 -15.5 -31 -20.5s-25 -7.5 -39 -7.5s-27 2.5 -39 7.5s-22.333 11.833 -31 20.5
s-15.5 19 -20.5 31s-7.5 24.667 -7.5 38c0 28 9.33301 51.167 28 69.5s42 27.5 70 27.5s51.333 -9.16699 70 -27.5s28 -41.5 28 -69.5zM336.998 693.998c0 20 -6.33301 36.667 -19 50s-29.334 20 -50.001 20s-37.334 -6.66699 -50.001 -20s-19 -30 -19 -50
s6.33301 -36.5 19 -49.5s29.334 -19.5 50.001 -19.5s37.334 6.5 50.001 19.5s19 29.5 19 49.5z" />
    <glyph glyph-name="ae" unicode="&#xe6;" horiz-adv-x="869" 
d="M807 274l0.000976562 -13.498c0 -3.66699 -0.333008 -7.16699 -1 -10.5h-366c2 -70.667 18 -125.334 48 -164.001s69.333 -58 118 -58c34 0 61.833 4 83.5 12s44.5 19.667 68.5 35l21 -32c-14 -8.66699 -27.5 -16.334 -40.5 -23.001s-26.333 -12.334 -40 -17.001
s-28.334 -8.16699 -44.001 -10.5s-33.5 -3.5 -53.5 -3.5c-34 0 -66 8.83301 -96 26.5s-54.667 45.5 -74 83.5c-26 -36 -55.333 -63.333 -88 -82s-72.334 -28 -119.001 -28c-21.333 0 -42.166 2.66699 -62.499 8s-38.5 14.333 -54.5 27s-28.833 29.334 -38.5 50.001
s-14.5 46.334 -14.5 77.001c0 28.667 5.16699 53.667 15.5 75s24.333 39 42 53s38.167 24.333 61.5 31s48 10 74 10c32 0 60.5 -3.83301 85.5 -11.5s46.833 -16.834 65.5 -27.501v78c0 50 -10.5 85.833 -31.5 107.5s-54.833 32.5 -101.5 32.5
c-30 0 -56.167 -3.83301 -78.5 -11.5s-45.166 -17.5 -68.499 -29.5l-16 36c23.333 12 48.333 22 75 30s57 12 91 12c31.333 0 57.166 -3.5 77.499 -10.5s36.5 -16.5 48.5 -28.5s20.667 -25.833 26 -41.5s8.66602 -32.167 9.99902 -49.5c12.667 38 34.334 69.167 65.001 93.5
s67 36.5 109 36.5c31.333 0 59.5 -6.16699 84.5 -18.5s46.333 -29.833 64 -52.5s31.167 -50.167 40.5 -82.5s14 -68.5 14 -108.5zM766.001 286.002c-2 66.667 -17 118.5 -45 155.5s-67 55.5 -117 55.5c-46 0 -84 -17.667 -114 -53s-46.667 -88 -50 -158h326z
M415.001 134.002c-5.33301 16 -9.49902 33.666 -12.499 52.999s-4.83301 39 -5.5 59c-20 11.333 -41.833 20.5 -65.5 27.5s-52.5 10.5 -86.5 10.5c-44 0 -79.667 -11 -107 -33s-41 -54.667 -41 -98c0 -23.333 3.5 -43.166 10.5 -59.499s16.5 -29.5 28.5 -39.5
s26.167 -17.333 42.5 -22s33.833 -7 52.5 -7c34.667 0 67.667 8.83301 99 26.5s59.666 45.167 84.999 82.5z" />
    <glyph glyph-name="ccedilla" unicode="&#xe7;" horiz-adv-x="492" 
d="M241 -9c-24.667 4 -48.165 12.332 -70.498 24.999s-41.833 30 -58.5 52s-30 49 -40 81s-15 69.333 -15 112c0 48 6.33301 89.333 19 124s29.334 63.167 50.001 85.5s44.167 38.833 70.5 49.5s53.166 16 80.499 16c36 0 66.667 -5.5 92 -16.5s47.666 -24.833 66.999 -41.5
l-27 -33c-18.667 16 -38.167 28.667 -58.5 38s-45.833 14 -76.5 14c-23.333 0 -45.333 -5 -66 -15s-38.834 -24.833 -54.501 -44.5s-28.167 -43.834 -37.5 -72.501s-14 -62 -14 -100s4.33301 -71.833 13 -101.5s20.834 -54.5 36.501 -74.5s34 -35.167 55 -45.5
s43.833 -15.5 68.5 -15.5c28 0 53 4.83301 75 14.5s42 23.167 60 40.5l26 -29c-20.667 -20 -44.167 -35.833 -70.5 -47.5s-57.166 -17.5 -92.499 -17.5h-2l-16 -39c12.667 8 29.667 12 51 12c14 0 27.833 -5.16699 41.5 -15.5s20.5 -26.166 20.5 -47.499
c0 -14 -2.83301 -25.833 -8.5 -35.5s-13.334 -17.5 -23.001 -23.5s-21 -10.333 -34 -13s-26.833 -4 -41.5 -4c-38 0 -73.333 10.667 -106 32l14 21c13.333 -9.33301 28.166 -16.333 44.499 -21s32.833 -7 49.5 -7c23.333 0 40.833 4.66699 52.5 14s17.5 21.333 17.5 36
c0 12.667 -3.83301 22.334 -11.5 29.001s-17.5 10 -29.5 10c-20.667 0 -38 -7 -52 -21l-26 9l27 66v0z" />
    <glyph glyph-name="egrave" unicode="&#xe8;" horiz-adv-x="538" 
d="M477 274c0 -5.33301 -0.166992 -9.83301 -0.5 -13.5s-0.833008 -7.16699 -1.5 -10.5h-374c2 -70.667 18.667 -125.334 50 -164.001s71.333 -58 120 -58c34 0 62.667 4 86 12s47 19.667 71 35l20 -32c-28 -17.333 -55.5 -30.666 -82.5 -39.999s-60.167 -14 -99.5 -14
c-26 0 -51.5 5.33301 -76.5 16s-47.333 27.167 -67 49.5s-35.5 50.833 -47.5 85.5s-18 76 -18 124c0 42.667 5.5 80.834 16.5 114.501s26 62.167 45 85.5s41.333 41.166 67 53.499s53.5 18.5 83.5 18.5c32 0 60.833 -6.16699 86.5 -18.5s47.5 -29.833 65.5 -52.5
s31.833 -50.167 41.5 -82.5s14.5 -68.5 14.5 -108.5zM435 286c-2 66.667 -17.667 118.5 -47 155.5s-69 55.5 -119 55.5c-23.333 0 -44.833 -4.5 -64.5 -13.5s-37 -22.333 -52 -40s-27 -39.667 -36 -66s-14.167 -56.833 -15.5 -91.5h334zM264 595l-130 147h63l103 -147h-36z
" />
    <glyph glyph-name="eacute" unicode="&#xe9;" horiz-adv-x="538" 
d="M477 274c0 -5.33301 -0.166992 -9.83301 -0.5 -13.5s-0.833008 -7.16699 -1.5 -10.5h-374c2 -70.667 18.667 -125.334 50 -164.001s71.333 -58 120 -58c34 0 62.667 4 86 12s47 19.667 71 35l20 -32c-28 -17.333 -55.5 -30.666 -82.5 -39.999s-60.167 -14 -99.5 -14
c-26 0 -51.5 5.33301 -76.5 16s-47.333 27.167 -67 49.5s-35.5 50.833 -47.5 85.5s-18 76 -18 124c0 42.667 5.5 80.834 16.5 114.501s26 62.167 45 85.5s41.333 41.166 67 53.499s53.5 18.5 83.5 18.5c32 0 60.833 -6.16699 86.5 -18.5s47.5 -29.833 65.5 -52.5
s31.833 -50.167 41.5 -82.5s14.5 -68.5 14.5 -108.5zM435 286c-2 66.667 -17.667 118.5 -47 155.5s-69 55.5 -119 55.5c-23.333 0 -44.833 -4.5 -64.5 -13.5s-37 -22.333 -52 -40s-27 -39.667 -36 -66s-14.167 -56.833 -15.5 -91.5h334zM276 595h-36l103 147h63z" />
    <glyph glyph-name="ecircumflex" unicode="&#xea;" horiz-adv-x="538" 
d="M477 274c0 -5.33301 -0.166992 -9.83301 -0.5 -13.5s-0.833008 -7.16699 -1.5 -10.5h-374c2 -70.667 18.667 -125.334 50 -164.001s71.333 -58 120 -58c34 0 62.667 4 86 12s47 19.667 71 35l20 -32c-28 -17.333 -55.5 -30.666 -82.5 -39.999s-60.167 -14 -99.5 -14
c-26 0 -51.5 5.33301 -76.5 16s-47.333 27.167 -67 49.5s-35.5 50.833 -47.5 85.5s-18 76 -18 124c0 42.667 5.5 80.834 16.5 114.501s26 62.167 45 85.5s41.333 41.166 67 53.499s53.5 18.5 83.5 18.5c32 0 60.833 -6.16699 86.5 -18.5s47.5 -29.833 65.5 -52.5
s31.833 -50.167 41.5 -82.5s14.5 -68.5 14.5 -108.5zM435 286c-2 66.667 -17.667 118.5 -47 155.5s-69 55.5 -119 55.5c-23.333 0 -44.833 -4.5 -64.5 -13.5s-37 -22.333 -52 -40s-27 -39.667 -36 -66s-14.167 -56.833 -15.5 -91.5h334zM386 590l-117 113l-116 -113h-38
l130 147h50l130 -147h-39z" />
    <glyph glyph-name="edieresis" unicode="&#xeb;" horiz-adv-x="538" 
d="M477 274c0 -5.33301 -0.166992 -9.83301 -0.5 -13.5s-0.833008 -7.16699 -1.5 -10.5h-374c2 -70.667 18.667 -125.334 50 -164.001s71.333 -58 120 -58c34 0 62.667 4 86 12s47 19.667 71 35l20 -32c-28 -17.333 -55.5 -30.666 -82.5 -39.999s-60.167 -14 -99.5 -14
c-26 0 -51.5 5.33301 -76.5 16s-47.333 27.167 -67 49.5s-35.5 50.833 -47.5 85.5s-18 76 -18 124c0 42.667 5.5 80.834 16.5 114.501s26 62.167 45 85.5s41.333 41.166 67 53.499s53.5 18.5 83.5 18.5c32 0 60.833 -6.16699 86.5 -18.5s47.5 -29.833 65.5 -52.5
s31.833 -50.167 41.5 -82.5s14.5 -68.5 14.5 -108.5zM435 286c-2 66.667 -17.667 118.5 -47 155.5s-69 55.5 -119 55.5c-23.333 0 -44.833 -4.5 -64.5 -13.5s-37 -22.333 -52 -40s-27 -39.667 -36 -66s-14.167 -56.833 -15.5 -91.5h334zM398 656
c0 -9.33301 -3.16699 -17.166 -9.5 -23.499s-14.166 -9.5 -23.499 -9.5s-17.166 3.16699 -23.499 9.5s-9.5 14.166 -9.5 23.499s3.16699 17.333 9.5 24s14.166 10 23.499 10s17.166 -3.33301 23.499 -10s9.5 -14.667 9.5 -24zM204 656
c0 -9.33301 -3.16699 -17.166 -9.5 -23.499s-13.833 -9.5 -22.5 -9.5c-9.33301 0 -17.333 3.16699 -24 9.5s-10 14.166 -10 23.499s3.33301 17.333 10 24s14.667 10 24 10c8.66699 0 16.167 -3.33301 22.5 -10s9.5 -14.667 9.5 -24z" />
    <glyph glyph-name="igrave" unicode="&#xec;" horiz-adv-x="226" 
d="M91 0v525h44v-525h-44zM97 595l-130 147h63l103 -147h-36z" />
    <glyph glyph-name="iacute" unicode="&#xed;" horiz-adv-x="226" 
d="M91 0v525h44v-525h-44zM132 595h-36l103 147h63z" />
    <glyph glyph-name="icircumflex" unicode="&#xee;" horiz-adv-x="226" 
d="M91 0v525h44v-525h-44zM230 583l-117 113l-116 -113h-38l130 147h50l130 -147h-39z" />
    <glyph glyph-name="idieresis" unicode="&#xef;" horiz-adv-x="226" 
d="M91 0v525h44v-525h-44zM243 651c0 -9.33301 -3.16699 -17.166 -9.5 -23.499s-14.166 -9.5 -23.499 -9.5s-17.166 3.16699 -23.499 9.5s-9.5 14.166 -9.5 23.499s3.16699 17.333 9.5 24s14.166 10 23.499 10s17.166 -3.33301 23.499 -10s9.5 -14.667 9.5 -24zM49 651
c0 -9.33301 -3.16699 -17.166 -9.5 -23.499s-13.833 -9.5 -22.5 -9.5c-9.33301 0 -17.333 3.16699 -24 9.5s-10 14.166 -10 23.499s3.33301 17.333 10 24s14.667 10 24 10c8.66699 0 16.167 -3.33301 22.5 -10s9.5 -14.667 9.5 -24z" />
    <glyph glyph-name="eth" unicode="&#xf0;" horiz-adv-x="570" 
d="M513 301c0 -105.333 -19.3311 -183.666 -57.998 -234.999s-96.334 -77 -173.001 -77c-32 0 -61.667 5.66699 -89 17s-51 27.5 -71 48.5s-35.833 46.667 -47.5 77s-17.5 64.833 -17.5 103.5s5.5 73.167 16.5 103.5s26.167 56.166 45.5 77.499s42.166 37.666 68.499 48.999
s54.5 17 84.5 17c52 0 95 -10.5 129 -31.5s58.333 -51.167 73 -90.5c-9.33301 62.667 -25 114.334 -47 155.001s-51 74.334 -87 101.001l-49 -55l-31 25l45 50c-17.333 9.33301 -36 17.166 -56 23.499s-41.333 10.5 -64 12.5v39c54 -4 102.667 -18.667 146 -44l33 35l30 -25
l-30 -33c46 -34 82.333 -80 109 -138s40 -126.333 40 -205zM468.002 250c0 32 -4.66797 60.002 -14.001 84.002s-22.5 44.167 -39.5 60.5s-37 28.5 -60 36.5s-48.167 12 -75.5 12c-55.333 0 -98.666 -18.333 -129.999 -55s-47 -87.334 -47 -152.001
c0 -33.333 4.5 -62.833 13.5 -88.5s21.5 -47.334 37.5 -65.001s35 -31.167 57 -40.5s46.333 -14 73 -14c57.333 0 102.5 19.5 135.5 58.5s49.5 93.5 49.5 163.5z" />
    <glyph glyph-name="ntilde" unicode="&#xf1;" horiz-adv-x="565" 
d="M439 0v314c0 64 -13.333 110.5 -40 139.5s-63.667 43.5 -111 43.5c-19.333 0 -38.333 -3.16699 -57 -9.5s-35.5 -16.5 -50.5 -30.5s-27.167 -32.667 -36.5 -56s-14 -52 -14 -86v-315h-44v525h44v-89c13.333 32 34.5 56.667 63.5 74s63.5 26 103.5 26
c28 0 53.333 -4 76 -12s42.167 -20.667 58.5 -38s29 -39.5 38 -66.5s13.5 -59.5 13.5 -97.5v-322h-44zM446 702c-1.33301 -36 -10.502 -62.5 -27.502 -79.5s-37.5 -25.5 -61.5 -25.5c-14 0 -27 2.66699 -39 8s-24 12.666 -36 21.999c-19.333 14 -33.833 24.167 -43.5 30.5
s-20.834 9.5 -33.501 9.5c-13.333 0 -24.666 -5.16699 -33.999 -15.5s-15.666 -27.833 -18.999 -52.5h-36c1.33301 36 10.5 62.5 27.5 79.5s37.5 25.5 61.5 25.5c14 0 27 -2.66699 39 -8s24 -12.666 36 -21.999c18.667 -14 33.167 -24.167 43.5 -30.5s21.5 -9.5 33.5 -9.5
c28.667 0 46.334 22.667 53.001 68h36v0z" />
    <glyph glyph-name="ograve" unicode="&#xf2;" horiz-adv-x="567" 
d="M510 265c0 -44 -6 -83.167 -18 -117.5s-28.167 -63.333 -48.5 -87s-44.333 -41.5 -72 -53.5s-57.5 -18 -89.5 -18c-31.333 0 -60.666 6 -87.999 18s-51.166 29.5 -71.499 52.5s-36.333 51.5 -48 85.5s-17.5 73 -17.5 117s6 83.167 18 117.5s28.167 63 48.5 86
s44.333 40.5 72 52.5s57.5 18 89.5 18c31.333 0 60.666 -5.83301 87.999 -17.5s51.166 -29 71.499 -52s36.333 -51.333 48 -85s17.5 -72.5 17.5 -116.5zM465 264c0 38 -4.5 71.667 -13.5 101s-21.667 53.666 -38 72.999s-35.666 34 -57.999 44s-46.5 15 -72.5 15
s-50 -5 -72 -15s-41.167 -24.667 -57.5 -44s-29 -43.666 -38 -72.999s-13.5 -63 -13.5 -101c0 -38.667 4.5 -72.667 13.5 -102s21.667 -54 38 -74s35.5 -35 57.5 -45s46 -15 72 -15s50.167 5 72.5 15s41.666 25 57.999 45s29 44.667 38 74s13.5 63.333 13.5 102zM277 595
l-130 147h63l103 -147h-36z" />
    <glyph glyph-name="oacute" unicode="&#xf3;" horiz-adv-x="567" 
d="M510 265c0 -44 -6 -83.167 -18 -117.5s-28.167 -63.333 -48.5 -87s-44.333 -41.5 -72 -53.5s-57.5 -18 -89.5 -18c-31.333 0 -60.666 6 -87.999 18s-51.166 29.5 -71.499 52.5s-36.333 51.5 -48 85.5s-17.5 73 -17.5 117s6 83.167 18 117.5s28.167 63 48.5 86
s44.333 40.5 72 52.5s57.5 18 89.5 18c31.333 0 60.666 -5.83301 87.999 -17.5s51.166 -29 71.499 -52s36.333 -51.333 48 -85s17.5 -72.5 17.5 -116.5zM465 264c0 38 -4.5 71.667 -13.5 101s-21.667 53.666 -38 72.999s-35.666 34 -57.999 44s-46.5 15 -72.5 15
s-50 -5 -72 -15s-41.167 -24.667 -57.5 -44s-29 -43.666 -38 -72.999s-13.5 -63 -13.5 -101c0 -38.667 4.5 -72.667 13.5 -102s21.667 -54 38 -74s35.5 -35 57.5 -45s46 -15 72 -15s50.167 5 72.5 15s41.666 25 57.999 45s29 44.667 38 74s13.5 63.333 13.5 102zM287 595
h-36l103 147h63z" />
    <glyph glyph-name="ocircumflex" unicode="&#xf4;" horiz-adv-x="567" 
d="M510 265c0 -44 -6 -83.167 -18 -117.5s-28.167 -63.333 -48.5 -87s-44.333 -41.5 -72 -53.5s-57.5 -18 -89.5 -18c-31.333 0 -60.666 6 -87.999 18s-51.166 29.5 -71.499 52.5s-36.333 51.5 -48 85.5s-17.5 73 -17.5 117s6 83.167 18 117.5s28.167 63 48.5 86
s44.333 40.5 72 52.5s57.5 18 89.5 18c31.333 0 60.666 -5.83301 87.999 -17.5s51.166 -29 71.499 -52s36.333 -51.333 48 -85s17.5 -72.5 17.5 -116.5zM465 264c0 38 -4.5 71.667 -13.5 101s-21.667 53.666 -38 72.999s-35.666 34 -57.999 44s-46.5 15 -72.5 15
s-50 -5 -72 -15s-41.167 -24.667 -57.5 -44s-29 -43.666 -38 -72.999s-13.5 -63 -13.5 -101c0 -38.667 4.5 -72.667 13.5 -102s21.667 -54 38 -74s35.5 -35 57.5 -45s46 -15 72 -15s50.167 5 72.5 15s41.666 25 57.999 45s29 44.667 38 74s13.5 63.333 13.5 102zM398 590
l-117 113l-116 -113h-38l130 147h50l130 -147h-39z" />
    <glyph glyph-name="otilde" unicode="&#xf5;" horiz-adv-x="567" 
d="M510 265c0 -44 -6 -83.167 -18 -117.5s-28.167 -63.333 -48.5 -87s-44.333 -41.5 -72 -53.5s-57.5 -18 -89.5 -18c-31.333 0 -60.666 6 -87.999 18s-51.166 29.5 -71.499 52.5s-36.333 51.5 -48 85.5s-17.5 73 -17.5 117s6 83.167 18 117.5s28.167 63 48.5 86
s44.333 40.5 72 52.5s57.5 18 89.5 18c31.333 0 60.666 -5.83301 87.999 -17.5s51.166 -29 71.499 -52s36.333 -51.333 48 -85s17.5 -72.5 17.5 -116.5zM465 264c0 38 -4.5 71.667 -13.5 101s-21.667 53.666 -38 72.999s-35.666 34 -57.999 44s-46.5 15 -72.5 15
s-50 -5 -72 -15s-41.167 -24.667 -57.5 -44s-29 -43.666 -38 -72.999s-13.5 -63 -13.5 -101c0 -38.667 4.5 -72.667 13.5 -102s21.667 -54 38 -74s35.5 -35 57.5 -45s46 -15 72 -15s50.167 5 72.5 15s41.666 25 57.999 45s29 44.667 38 74s13.5 63.333 13.5 102zM447 702
c-1.33301 -36 -10.502 -62.5 -27.502 -79.5s-37.5 -25.5 -61.5 -25.5c-14 0 -27 2.66699 -39 8s-24 12.666 -36 21.999c-19.333 14 -33.833 24.167 -43.5 30.5s-20.834 9.5 -33.501 9.5c-13.333 0 -24.666 -5.16699 -33.999 -15.5s-15.666 -27.833 -18.999 -52.5h-36
c1.33301 36 10.5 62.5 27.5 79.5s37.5 25.5 61.5 25.5c14 0 27 -2.66699 39 -8s24 -12.666 36 -21.999c18.667 -14 33.167 -24.167 43.5 -30.5s21.5 -9.5 33.5 -9.5c28.667 0 46.334 22.667 53.001 68h36v0z" />
    <glyph glyph-name="odieresis" unicode="&#xf6;" horiz-adv-x="567" 
d="M510 265c0 -44 -6 -83.167 -18 -117.5s-28.167 -63.333 -48.5 -87s-44.333 -41.5 -72 -53.5s-57.5 -18 -89.5 -18c-31.333 0 -60.666 6 -87.999 18s-51.166 29.5 -71.499 52.5s-36.333 51.5 -48 85.5s-17.5 73 -17.5 117s6 83.167 18 117.5s28.167 63 48.5 86
s44.333 40.5 72 52.5s57.5 18 89.5 18c31.333 0 60.666 -5.83301 87.999 -17.5s51.166 -29 71.499 -52s36.333 -51.333 48 -85s17.5 -72.5 17.5 -116.5zM465 264c0 38 -4.5 71.667 -13.5 101s-21.667 53.666 -38 72.999s-35.666 34 -57.999 44s-46.5 15 -72.5 15
s-50 -5 -72 -15s-41.167 -24.667 -57.5 -44s-29 -43.666 -38 -72.999s-13.5 -63 -13.5 -101c0 -38.667 4.5 -72.667 13.5 -102s21.667 -54 38 -74s35.5 -35 57.5 -45s46 -15 72 -15s50.167 5 72.5 15s41.666 25 57.999 45s29 44.667 38 74s13.5 63.333 13.5 102zM412 653
c0 -9.33301 -3.16699 -17.166 -9.5 -23.499s-14.166 -9.5 -23.499 -9.5s-17.166 3.16699 -23.499 9.5s-9.5 14.166 -9.5 23.499s3.16699 17.333 9.5 24s14.166 10 23.499 10s17.166 -3.33301 23.499 -10s9.5 -14.667 9.5 -24zM218 653
c0 -9.33301 -3.16699 -17.166 -9.5 -23.499s-13.833 -9.5 -22.5 -9.5c-9.33301 0 -17.333 3.16699 -24 9.5s-10 14.166 -10 23.499s3.33301 17.333 10 24s14.667 10 24 10c8.66699 0 16.167 -3.33301 22.5 -10s9.5 -14.667 9.5 -24z" />
    <glyph glyph-name="divide" unicode="&#xf7;" 
d="M546 234c-2.66699 -2 -4.83398 -2.33301 -6.50098 -1s-1.83398 3.33301 -0.500977 6l69 88h-227v-255l88 70c3.33301 1.33301 5.5 1 6.5 -1s0.833008 -4 -0.5 -6l-114 -150l-113 150c-2 2 -2.33301 4 -1 6s3.33301 2.33301 6 1l88 -70v255h-229l69 -88
c1.33301 -2.66699 1.16602 -4.66699 -0.500977 -6s-3.83398 -1 -6.50098 1l-149 113l149 114c2.66699 1.33301 4.83398 1.5 6.50098 0.5s1.83398 -3.16699 0.500977 -6.5l-69 -88h229v261l-88 -70c-2.66699 -1.33301 -4.66699 -1 -6 1s-1 4 1 6l113 150l114 -150
c1.33301 -2 1.5 -4 0.5 -6s-3.16699 -2.33301 -6.5 -1l-88 70v-261h227l-69 88c-1.33301 3.33301 -1.16602 5.5 0.500977 6.5s3.83398 0.833008 6.50098 -0.5l149 -114z" />
    <glyph glyph-name="oslash" unicode="&#xf8;" horiz-adv-x="567" 
d="M510 265c0 -44 -5.99805 -83.167 -17.998 -117.5s-28.167 -63.333 -48.5 -87s-44.333 -41.5 -72 -53.5s-57.5 -18 -89.5 -18c-18.667 0 -36.5 2 -53.5 6s-33.167 10.667 -48.5 20l-33 -65h-39l42 83c-28.667 22 -51.334 52.333 -68.001 91s-25 84.667 -25 138
c0 44 6 83.167 18 117.5s28.167 63 48.5 86s44.333 40.5 72 52.5s57.5 18 89.5 18c37.333 0 71.666 -9 102.999 -27l34 66h39l-42 -84c28 -22 50.167 -52 66.5 -90s24.5 -83.333 24.5 -136zM372.002 475c-26 16 -55.668 24 -89.001 24c-26 0 -50.167 -5 -72.5 -15
s-41.666 -25 -57.999 -45s-29 -44.667 -38 -74s-13.5 -63 -13.5 -101c0 -44.667 6 -83 18 -115s28.333 -57.667 49 -77zM467.001 264c0 43.333 -6 80.667 -18 112s-28.333 56.666 -49 75.999l-203 -402c24.667 -16 53.334 -24 86.001 -24c26 0 50.333 5.16699 73 15.5
s42.167 25.5 58.5 45.5s29.166 44.833 38.499 74.5s14 63.834 14 102.501z" />
    <glyph glyph-name="ugrave" unicode="&#xf9;" horiz-adv-x="565" 
d="M435 0v89c-11.333 -32.667 -31.833 -57.5 -61.5 -74.5s-64.5 -25.5 -104.5 -25.5c-28 0 -53.5 4 -76.5 12s-42.667 20.667 -59 38s-29 39.5 -38 66.5s-13.5 59.5 -13.5 97.5v322h44v-314c0 -64 13.333 -110.5 40 -139.5s63.667 -43.5 111 -43.5
c19.333 0 38.333 3.16699 57 9.5s35.5 16.5 50.5 30.5s27.167 32.667 36.5 56s14 52 14 86v315h44v-525h-44zM267 591l-130 147h63l103 -147h-36z" />
    <glyph glyph-name="uacute" unicode="&#xfa;" horiz-adv-x="565" 
d="M435 0v89c-11.333 -32.667 -31.833 -57.5 -61.5 -74.5s-64.5 -25.5 -104.5 -25.5c-28 0 -53.5 4 -76.5 12s-42.667 20.667 -59 38s-29 39.5 -38 66.5s-13.5 59.5 -13.5 97.5v322h44v-314c0 -64 13.333 -110.5 40 -139.5s63.667 -43.5 111 -43.5
c19.333 0 38.333 3.16699 57 9.5s35.5 16.5 50.5 30.5s27.167 32.667 36.5 56s14 52 14 86v315h44v-525h-44zM288 592h-36l103 147h63z" />
    <glyph glyph-name="ucircumflex" unicode="&#xfb;" horiz-adv-x="565" 
d="M435 0v89c-11.333 -32.667 -31.833 -57.5 -61.5 -74.5s-64.5 -25.5 -104.5 -25.5c-28 0 -53.5 4 -76.5 12s-42.667 20.667 -59 38s-29 39.5 -38 66.5s-13.5 59.5 -13.5 97.5v322h44v-314c0 -64 13.333 -110.5 40 -139.5s63.667 -43.5 111 -43.5
c19.333 0 38.333 3.16699 57 9.5s35.5 16.5 50.5 30.5s27.167 32.667 36.5 56s14 52 14 86v315h44v-525h-44zM397 595l-117 113l-116 -113h-38l130 147h50l130 -147h-39z" />
    <glyph glyph-name="udieresis" unicode="&#xfc;" horiz-adv-x="565" 
d="M435 0v89c-11.333 -32.667 -31.833 -57.5 -61.5 -74.5s-64.5 -25.5 -104.5 -25.5c-28 0 -53.5 4 -76.5 12s-42.667 20.667 -59 38s-29 39.5 -38 66.5s-13.5 59.5 -13.5 97.5v322h44v-314c0 -64 13.333 -110.5 40 -139.5s63.667 -43.5 111 -43.5
c19.333 0 38.333 3.16699 57 9.5s35.5 16.5 50.5 30.5s27.167 32.667 36.5 56s14 52 14 86v315h44v-525h-44zM413 657c0 -9.33301 -3.16699 -17.166 -9.5 -23.499s-14.166 -9.5 -23.499 -9.5s-17.166 3.16699 -23.499 9.5s-9.5 14.166 -9.5 23.499s3.16699 17.333 9.5 24
s14.166 10 23.499 10s17.166 -3.33301 23.499 -10s9.5 -14.667 9.5 -24zM219 657c0 -9.33301 -3.16699 -17.166 -9.5 -23.499s-13.833 -9.5 -22.5 -9.5c-9.33301 0 -17.333 3.16699 -24 9.5s-10 14.166 -10 23.499s3.33301 17.333 10 24s14.667 10 24 10
c8.66699 0 16.167 -3.33301 22.5 -10s9.5 -14.667 9.5 -24z" />
    <glyph glyph-name="yacute" unicode="&#xfd;" horiz-adv-x="514" 
d="M208 -185h-44l70 188l-191 522h47l167 -472l167 472h47zM270 585h-36l103 147h63z" />
    <glyph glyph-name="thorn" unicode="&#xfe;" horiz-adv-x="553" 
d="M496 268c0 -47.333 -4.99805 -88.5 -14.998 -123.5s-23.833 -64 -41.5 -87s-38.667 -40.167 -63 -51.5s-50.833 -17 -79.5 -17c-36 0 -68 8 -96 24s-51.667 37.333 -71 64v-242l-44 -25v894l44 25v-283c19.333 26 43.666 47.5 72.999 64.5s62.666 25.5 99.999 25.5
c28 0 53.833 -5.16699 77.5 -15.5s44 -26.333 61 -48s30.333 -49.5 40 -83.5s14.5 -74.333 14.5 -121zM452.002 267c0 78.667 -14.334 136.668 -43.001 174.001s-67.667 56 -117 56c-33.333 0 -63.666 -8.83301 -90.999 -26.5s-51 -40.834 -71 -69.501v-275
c18 -28 41.167 -51.333 69.5 -70s59.833 -28 94.5 -28c50 0 88.833 19.5 116.5 58.5s41.5 99.167 41.5 180.5z" />
    <glyph glyph-name="ydieresis" unicode="&#xff;" horiz-adv-x="514" 
d="M208 -185h-44l70 188l-191 522h47l167 -472l167 472h47zM390 652c0 -9.33301 -3.16699 -17.166 -9.5 -23.499s-14.166 -9.5 -23.499 -9.5s-17.166 3.16699 -23.499 9.5s-9.5 14.166 -9.5 23.499s3.16699 17.333 9.5 24s14.166 10 23.499 10s17.166 -3.33301 23.499 -10
s9.5 -14.667 9.5 -24zM196 652c0 -9.33301 -3.16699 -17.166 -9.5 -23.499s-13.833 -9.5 -22.5 -9.5c-9.33301 0 -17.333 3.16699 -24 9.5s-10 14.166 -10 23.499s3.33301 17.333 10 24s14.667 10 24 10c8.66699 0 16.167 -3.33301 22.5 -10s9.5 -14.667 9.5 -24z" />
    <glyph glyph-name="dotlessi" unicode="&#x131;" horiz-adv-x="226" 
d="M91 0v525h44v-525h-44z" />
    <glyph glyph-name="Lslash" unicode="&#x141;" horiz-adv-x="549" 
d="M106 0v258l-61 -53v52l61 54v389h46v-354l165 141v-53l-165 -140v-252h346v-42h-392z" />
    <glyph glyph-name="lslash" unicode="&#x142;" horiz-adv-x="241" 
d="M142 312v-312h-44v277l-51 -45v54l51 45v373l44 25v-364l52 45v-54z" />
    <glyph glyph-name="OE" unicode="&#x152;" horiz-adv-x="1049" 
d="M597 0l0.000976562 166.999c-16.667 -54 -45.334 -97.167 -86.001 -129.5s-92.667 -48.5 -156 -48.5c-42 0 -80.5 8.5 -115.5 25.5s-65.167 41.333 -90.5 73s-45 69.667 -59 114s-21 93.833 -21 148.5s7 104.167 21 148.5s33.667 82.333 59 114s55.5 56 90.5 73
s73.5 25.5 115.5 25.5c29.333 0 57 -4.16699 83 -12.5s49.5 -20.166 70.5 -35.499s39 -34 54 -56s26.5 -46.333 34.5 -73v166h389v-42h-348v-264h210v-42h-210v-310h363v-42h-404zM597.001 348.999c0 49.333 -6.16406 93.833 -18.4971 133.5s-29.333 73.334 -51 101.001
s-47.334 48.834 -77.001 63.501s-61.834 22 -96.501 22s-66.5 -7.33301 -95.5 -22s-54.167 -35.667 -75.5 -63s-38 -60.666 -50 -99.999s-18 -83.666 -18 -132.999s6.16699 -93.833 18.5 -133.5s29.166 -73.334 50.499 -101.001s46.833 -48.834 76.5 -63.501
s61.834 -22 96.501 -22s66.667 7.33301 96 22s54.666 35.667 75.999 63s38 60.666 50 99.999s18 83.666 18 132.999z" />
    <glyph glyph-name="oe" unicode="&#x153;" horiz-adv-x="932" 
d="M871 274c0 -5.33301 -0.168945 -9.83496 -0.501953 -13.502s-0.833008 -7.16699 -1.5 -10.5h-368c0.666992 -35.333 5.33398 -66.666 14.001 -93.999s20.334 -50.5 35.001 -69.5s32 -33.5 52 -43.5s42 -15 66 -15c32.667 0 60.5 4 83.5 12s46.5 19.667 70.5 35l20 -32
c-28 -17.333 -55.333 -30.666 -82 -39.999s-59 -14 -97 -14c-22 0 -43.167 3.83301 -63.5 11.5s-38.5 18.667 -54.5 33s-29.833 31.5 -41.5 51.5s-20.167 42 -25.5 66c-12 -50 -35.167 -89.5 -69.5 -118.5s-77.5 -43.5 -129.5 -43.5c-30.667 0 -59.5 6 -86.5 18
s-50.5 29.5 -70.5 52.5s-35.833 51.5 -47.5 85.5s-17.5 73 -17.5 117s6 83.167 18 117.5s28.167 63 48.5 86s44.166 40.5 71.499 52.5s56.333 18 87 18c50.667 0 93.834 -14.5 129.501 -43.5s58.5 -68.167 68.5 -117.5c4.66699 24 12.834 46 24.501 66s25.5 37 41.5 51
s34.167 24.833 54.5 32.5s42.166 11.5 65.499 11.5c30.667 0 58.667 -6.16699 84 -18.5s47 -29.833 65 -52.5s31.833 -50.167 41.5 -82.5s14.5 -68.5 14.5 -108.5zM828.998 285.998c-2 66.667 -17.5 118.5 -46.5 155.5s-67.833 55.5 -116.5 55.5
c-44.667 0 -82.5 -17.667 -113.5 -53s-48.167 -88 -51.5 -158h328zM459.998 263.998c0 38 -4.66699 71.667 -14 101s-22 53.666 -38 72.999s-34.833 34 -56.5 44s-45.167 15 -70.5 15s-49 -5 -71 -15s-41 -24.667 -57 -44s-28.5 -43.666 -37.5 -72.999s-13.5 -63 -13.5 -101
c0 -38.667 4.5 -72.667 13.5 -102s21.5 -54 37.5 -74s35 -35 57 -45s45.667 -15 71 -15s48.833 5 70.5 15s40.5 25 56.5 45s28.667 44.667 38 74s14 63.333 14 102z" />
    <glyph glyph-name="Scaron" unicode="&#x160;" horiz-adv-x="576" 
d="M501 176c0 -28.667 -5.33594 -54.4971 -16.0029 -77.4971s-25.667 -42.667 -45 -59s-42.333 -28.833 -69 -37.5s-56 -13 -88 -13c-46 0 -87.667 7.66699 -125 23s-70.666 35.666 -99.999 60.999l31 34c28.667 -24 58.667 -42.667 90 -56s66.666 -20 105.999 -20
c24 0 46.333 3 67 9s38.667 15 54 27s27.333 27 36 45s13 38.667 13 62c0 19.333 -3 36.5 -9 51.5s-16.167 29 -30.5 42s-33.166 25.5 -56.499 37.5s-52.333 24.333 -87 37c-38 14 -69.5 27.5 -94.5 40.5s-45.167 27 -60.5 42s-26.166 31.667 -32.499 50
s-9.5 39.5 -9.5 63.5c0 24.667 4.66699 47.667 14 69s23 39.666 41 54.999s40 27.333 66 36s55.333 13 88 13c23.333 0 44.5 -1.66699 63.5 -5s36.667 -7.83301 53 -13.5s31.5 -12.667 45.5 -21s28 -17.5 42 -27.5l-30 -36c-25.333 19.333 -51.333 34.333 -78 45
s-59.667 16 -99 16c-27.333 0 -51.166 -3.5 -71.499 -10.5s-37 -16.5 -50 -28.5s-22.667 -25.667 -29 -41s-9.5 -31.333 -9.5 -48c0 -18 2.33301 -33.833 7 -47.5s13.5 -26.5 26.5 -38.5s31 -23.833 54 -35.5s52.5 -23.834 88.5 -36.501
c38.667 -14.667 71 -28.834 97 -42.501s47 -28.5 63 -44.5s27.333 -33.667 34 -53s10 -41.666 10 -66.999zM306.997 750.003h-50l-130 147h39l117 -113l116 113h38z" />
    <glyph glyph-name="scaron" unicode="&#x161;" horiz-adv-x="449" 
d="M388 129c0 -23.333 -4.33594 -43.6621 -13.0029 -60.9951s-20.667 -31.833 -36 -43.5s-33.333 -20.5 -54 -26.5s-43 -9 -67 -9c-34.667 0 -65.167 5.33301 -91.5 16s-52.166 25.667 -77.499 45l24 32c20.667 -17.333 42.834 -30.833 66.501 -40.5
s50.167 -14.5 79.5 -14.5c40.667 0 72 8.83301 94 26.5s33 42.5 33 74.5c0 13.333 -2.16699 25.5 -6.5 36.5s-11.666 21.333 -21.999 31s-24 19.167 -41 28.5s-38.5 19.666 -64.5 30.999c-27.333 11.333 -50.333 22.166 -69 32.499s-33.834 21.166 -45.501 32.499
s-20.167 24.166 -25.5 38.499s-8 31.5 -8 51.5c0 18 3.66699 34.667 11 50s17.833 28.666 31.5 39.999s29.834 20.166 48.501 26.499s39.334 9.5 62.001 9.5c36.667 0 68.167 -5 94.5 -15s48.166 -22.333 65.499 -37l-25 -32c-18 14 -37.5 25.167 -58.5 33.5
s-47.167 12.5 -78.5 12.5c-34 0 -60.5 -8.33301 -79.5 -25s-28.5 -36.667 -28.5 -60c0 -14 2 -26.333 6 -37s11 -20.5 21 -29.5s23.167 -17.833 39.5 -26.5s36.833 -18.334 61.5 -29.001c26 -11.333 48.5 -22 67.5 -32s34.833 -21.167 47.5 -33.5
s22.167 -26.166 28.5 -41.499s9.5 -33.666 9.5 -54.999zM245.997 595.004h-50l-130 147h39l117 -113l116 113h38z" />
    <glyph glyph-name="Ydieresis" unicode="&#x178;" horiz-adv-x="633" 
d="M339 288v-288h-46v287l-238 413h52l210 -366l210 366h51zM445 801c0 -9.33301 -3.16699 -17.166 -9.5 -23.499s-14.166 -9.5 -23.499 -9.5s-17.166 3.16699 -23.499 9.5s-9.5 14.166 -9.5 23.499s3.16699 17.333 9.5 24s14.166 10 23.499 10s17.166 -3.33301 23.499 -10
s9.5 -14.667 9.5 -24zM251 801c0 -9.33301 -3.16699 -17.166 -9.5 -23.499s-13.833 -9.5 -22.5 -9.5c-9.33301 0 -17.333 3.16699 -24 9.5s-10 14.166 -10 23.499s3.33301 17.333 10 24s14.667 10 24 10c8.66699 0 16.167 -3.33301 22.5 -10s9.5 -14.667 9.5 -24z" />
    <glyph glyph-name="Zcaron" unicode="&#x17d;" horiz-adv-x="606" 
d="M61 0v40l422 620h-402v40h454v-40l-422 -620h422v-40h-474zM329 745h-50l-130 147h39l117 -113l116 113h38z" />
    <glyph glyph-name="zcaron" unicode="&#x17e;" horiz-adv-x="491" 
d="M57 0v33l316 455h-288v37h338v-33l-315 -455h315v-37h-366zM278 595h-50l-130 147h39l117 -113l116 113h38z" />
    <glyph glyph-name="florin" unicode="&#x192;" horiz-adv-x="370" 
d="M316 659c-8 3.33301 -17.833 6.16602 -29.5 8.49902s-24.167 3.5 -37.5 3.5c-20.667 0 -38.167 -5.83301 -52.5 -17.5s-21.5 -32.834 -21.5 -63.501v-65h123v-37h-123v-653l-44 -25v678h-78v37h78v63c0 22.667 3 41.834 9 57.501s14.333 28.334 25 38.001
s23 16.667 37 21s29 6.5 45 6.5c15.333 0 28.833 -1 40.5 -3s21.167 -4.33301 28.5 -7v-42v0z" />
    <glyph glyph-name="circumflex" unicode="&#x2c6;" horiz-adv-x="500" 
d="M366 595l-117 113l-116 -113h-38l130 147h50l130 -147h-39z" />
    <glyph glyph-name="caron" unicode="&#x2c7;" horiz-adv-x="500" 
d="M275 595h-50l-130 147h39l117 -113l116 113h38z" />
    <glyph glyph-name="breve" unicode="&#x2d8;" horiz-adv-x="500" 
d="M406 742c-3.33301 -46.667 -18.667 -83 -46 -109s-64.333 -39 -111 -39c-44 0 -80 13 -108 39s-43.667 62.333 -47 109h36c8 -76 48.333 -114 121 -114c34 0 61.333 9.5 82 28.5s33 47.5 37 85.5h36v0z" />
    <glyph glyph-name="dotaccent" unicode="&#x2d9;" horiz-adv-x="500" 
d="M283 662c0 -9.33301 -3.16699 -17.166 -9.5 -23.499s-14.166 -9.5 -23.499 -9.5s-17.166 3.16699 -23.499 9.5s-9.5 14.166 -9.5 23.499s3.16699 17.333 9.5 24s14.166 10 23.499 10s17.166 -3.33301 23.499 -10s9.5 -14.667 9.5 -24z" />
    <glyph glyph-name="ring" unicode="&#x2da;" horiz-adv-x="500" 
d="M348 694c0 -13.333 -2.5 -26 -7.5 -38s-11.833 -22.333 -20.5 -31s-19 -15.5 -31 -20.5s-25 -7.5 -39 -7.5s-27 2.5 -39 7.5s-22.333 11.833 -31 20.5s-15.5 19 -20.5 31s-7.5 24.667 -7.5 38c0 28 9.33301 51.167 28 69.5s42 27.5 70 27.5s51.333 -9.16699 70 -27.5
s28 -41.5 28 -69.5zM319 694c0 20 -6.33301 36.667 -19 50s-29.334 20 -50.001 20s-37.334 -6.66699 -50.001 -20s-19 -30 -19 -50s6.33301 -36.5 19 -49.5s29.334 -19.5 50.001 -19.5s37.334 6.5 50.001 19.5s19 29.5 19 49.5z" />
    <glyph glyph-name="ogonek" unicode="&#x2db;" horiz-adv-x="500" 
d="M364 -159c-18 -9.33301 -36.833 -17.333 -56.5 -24s-38.834 -10 -57.501 -10c-31.333 0 -54.833 7.5 -70.5 22.5s-23.5 35.167 -23.5 60.5c0 22 8.33301 42.667 25 62s36.334 35.333 59.001 48h32c-25.333 -17.333 -44.833 -34.166 -58.5 -50.499
s-20.5 -34.5 -20.5 -54.5c0 -18.667 5.5 -33.334 16.5 -44.001s26.167 -16 45.5 -16c17.333 0 33.833 2 49.5 6s32.5 10.333 50.5 19l9 -19v0z" />
    <glyph glyph-name="tilde" unicode="&#x2dc;" horiz-adv-x="500" 
d="M415 702c-1.33301 -36 -10.502 -62.5 -27.502 -79.5s-37.5 -25.5 -61.5 -25.5c-14 0 -27 2.66699 -39 8s-24 12.666 -36 21.999c-19.333 14 -33.833 24.167 -43.5 30.5s-20.834 9.5 -33.501 9.5c-13.333 0 -24.666 -5.16699 -33.999 -15.5s-15.666 -27.833 -18.999 -52.5
h-36c1.33301 36 10.5 62.5 27.5 79.5s37.5 25.5 61.5 25.5c14 0 27 -2.66699 39 -8s24 -12.666 36 -21.999c18.667 -14 33.167 -24.167 43.5 -30.5s21.5 -9.5 33.5 -9.5c28.667 0 46.334 22.667 53.001 68h36v0z" />
    <glyph glyph-name="hungarumlaut" unicode="&#x2dd;" horiz-adv-x="500" 
d="M298 595h-34l98 147h59zM129 595h-34l97 147h59z" />
    <glyph glyph-name="pi" unicode="&#x3c0;" horiz-adv-x="836" 
d="M779 350c0 -53.333 -9.16699 -102 -27.5 -146s-43.5 -82 -75.5 -114s-70 -56.833 -114 -74.5s-92 -26.5 -144 -26.5s-100 8.83301 -144 26.5s-82 42.5 -114 74.5s-57.167 70 -75.5 114s-27.5 92.667 -27.5 146c0 52.667 9.16699 101.167 27.5 145.5s43.5 82.5 75.5 114.5
s70 56.833 114 74.5s92 26.5 144 26.5s100 -8.83301 144 -26.5s82 -42.5 114 -74.5s57.167 -70.167 75.5 -114.5s27.5 -92.833 27.5 -145.5zM749 350c0 48.667 -8.33301 93.334 -25 134.001s-39.834 75.834 -69.501 105.501s-64.667 52.667 -105 69
s-84.166 24.5 -131.499 24.5s-91.333 -8.16699 -132 -24.5s-75.667 -39.333 -105 -69s-52.333 -64.834 -69 -105.501s-25 -85.334 -25 -134.001s8.33301 -93.334 25 -134.001s39.667 -75.834 69 -105.501s64.333 -52.667 105 -69s84.667 -24.5 132 -24.5
s91.166 8.16699 131.499 24.5s75.333 39.333 105 69s52.834 64.834 69.501 105.501s25 85.334 25 134.001zM577 431c0 -40 -12.499 -70.333 -37.499 -91s-59.5 -31 -103.5 -31h-94v-168h-32v408h135c39.333 0 71.166 -9.16699 95.499 -27.5s36.5 -48.5 36.5 -90.5z
M546.001 431c0 32.667 -9.16797 55.833 -27.501 69.5s-43.833 20.5 -76.5 20.5h-100v-182h93c36.667 0 64.334 7.33301 83.001 22s28 38 28 70z" />
    <glyph glyph-name="endash" unicode="&#x2013;" horiz-adv-x="417" 
d="M51 343v42h314v-42h-314z" />
    <glyph glyph-name="emdash" unicode="&#x2014;" horiz-adv-x="571" 
d="M51 343v42h469v-42h-469z" />
    <glyph glyph-name="quoteleft" unicode="&#x2018;" horiz-adv-x="218" 
d="M126 509h-60l46 191h32z" />
    <glyph glyph-name="quoteright" unicode="&#x2019;" horiz-adv-x="218" 
d="M106 509h-31l18 191h59z" />
    <glyph glyph-name="quotesinglbase" unicode="&#x201a;" horiz-adv-x="218" 
d="M103 -100h-31l17 191h60z" />
    <glyph glyph-name="quotedblleft" unicode="&#x201c;" horiz-adv-x="406" 
d="M314 509h-60l46 191h31zM126 509h-60l46 191h32z" />
    <glyph glyph-name="quotedblright" unicode="&#x201d;" horiz-adv-x="406" 
d="M294 509h-31l17 191h60zM106 509h-31l18 191h59z" />
    <glyph glyph-name="quotedblbase" unicode="&#x201e;" horiz-adv-x="406" 
d="M290 -100h-31l18 191h59zM103 -100h-31l17 191h60z" />
    <glyph glyph-name="dagger" unicode="&#x2020;" horiz-adv-x="539" 
d="M290 411v-511h-41v511h-198v40h198v249h41v-249h198v-40h-198z" />
    <glyph glyph-name="daggerdbl" unicode="&#x2021;" horiz-adv-x="539" 
d="M290 149v-249h-41v249h-198v39h198v224h-198v39h198v249h41v-249h198v-39h-198v-224h198v-39h-198z" />
    <glyph glyph-name="bullet" unicode="&#x2022;" horiz-adv-x="322" 
d="M238 366c0 -21.333 -7.5 -39.5 -22.5 -54.5s-33.167 -22.5 -54.5 -22.5s-39.5 7.5 -54.5 22.5s-22.5 33.167 -22.5 54.5s7.5 39.666 22.5 54.999s33.167 23 54.5 23s39.5 -7.66699 54.5 -23s22.5 -33.666 22.5 -54.999z" />
    <glyph glyph-name="ellipsis" unicode="&#x2026;" horiz-adv-x="635" 
d="M567 32c0 -10.667 -3.83301 -19.667 -11.5 -27s-16.5 -11 -26.5 -11c-10.667 0 -19.667 3.66699 -27 11s-11 16.333 -11 27s3.66699 20 11 28s16.333 12 27 12c10 0 18.833 -4 26.5 -12s11.5 -17.333 11.5 -28zM355 32c0 -10.667 -3.83301 -19.667 -11.5 -27
s-16.5 -11 -26.5 -11c-10.667 0 -19.667 3.66699 -27 11s-11 16.333 -11 27s3.66699 20 11 28s16.333 12 27 12c10 0 18.833 -4 26.5 -12s11.5 -17.333 11.5 -28zM143 32c0 -10.667 -3.83301 -19.667 -11.5 -27s-16.5 -11 -26.5 -11c-10.667 0 -19.667 3.66699 -27 11
s-11 16.333 -11 27s3.66699 20 11 28s16.333 12 27 12c10 0 18.833 -4 26.5 -12s11.5 -17.333 11.5 -28z" />
    <glyph glyph-name="perthousand" unicode="&#x2030;" horiz-adv-x="1280" 
d="M369 502c0 -64 -14.001 -114.668 -42.001 -152.001s-65.667 -56 -113 -56s-84.666 18.5 -111.999 55.5s-41 87.5 -41 151.5c0 64.667 13.667 115.834 41 153.501s65 56.5 113 56.5c48.667 0 86.5 -18.667 113.5 -56s40.5 -88.333 40.5 -153zM257.999 -0.000976562h-44
l435 700h44zM1233 197.999c0 -64.667 -13.833 -115.667 -41.5 -153s-65.5 -56 -113.5 -56c-47.333 0 -84.5 18.5 -111.5 55.5s-40.5 87.833 -40.5 152.5c0 64 13.667 114.833 41 152.5s65 56.5 113 56.5s85.5 -18.667 112.5 -56s40.5 -88 40.5 -152zM845.999 197.999
c0 -64.667 -13.834 -115.667 -41.501 -153s-65.167 -56 -112.5 -56s-84.666 18.5 -111.999 55.5s-41 87.833 -41 152.5s13.667 115.667 41 153s65 56 113 56s85.5 -18.667 112.5 -56s40.5 -88 40.5 -152zM327.998 500.999c0 54 -10 96.499 -30 127.499
s-47.667 46.5 -83 46.5c-36 0 -63.833 -15.333 -83.5 -46s-29.5 -73 -29.5 -127c0 -53.333 10 -95.333 30 -126s47.667 -46 83 -46c36 0 63.833 15.833 83.5 47.5s29.5 72.834 29.5 123.501zM1192 196.998c0 53.333 -9.83301 95.5 -29.5 126.5s-47.5 46.5 -83.5 46.5
c-35.333 0 -62.833 -15.333 -82.5 -46s-29.5 -72.667 -29.5 -126s9.83301 -95.5 29.5 -126.5s47.5 -46.5 83.5 -46.5c35.333 0 62.833 15.833 82.5 47.5s29.5 73.167 29.5 124.5zM804.998 196.998c0 53.333 -9.83301 95.5 -29.5 126.5s-47.5 46.5 -83.5 46.5
c-35.333 0 -62.833 -15.333 -82.5 -46s-29.5 -72.667 -29.5 -126s9.83301 -95.5 29.5 -126.5s47.5 -46.5 83.5 -46.5s63.667 15.833 83 47.5s29 73.167 29 124.5z" />
    <glyph glyph-name="guilsinglleft" unicode="&#x2039;" horiz-adv-x="343" 
d="M239 0l-203 262l203 263h50l-203 -262l203 -263h-50z" />
    <glyph glyph-name="guilsinglright" unicode="&#x203a;" horiz-adv-x="343" 
d="M257 263l-203 262h50l203 -263l-203 -262h-50z" />
    <glyph glyph-name="fraction" unicode="&#x2044;" horiz-adv-x="454" 
d="M5 0h-49l493 700h49z" />
    <glyph glyph-name="Euro" unicode="&#x20ac;" horiz-adv-x="588" 
d="M117 265c10 -73.333 33.5 -130.833 70.5 -172.5s86.167 -62.5 147.5 -62.5c35.333 0 65.5 7.33301 90.5 22s48.5 35.334 70.5 62.001l32 -29c-24 -30 -51.333 -53.5 -82 -70.5s-68 -25.5 -112 -25.5c-41.333 0 -78.5 8.16699 -111.5 24.5s-61 40 -84 71
s-40.667 68.667 -53 113s-18.5 94.833 -18.5 151.5c0 57.333 6.66699 108.5 20 153.5s31.833 83 55.5 114s52 54.5 85 70.5s69.167 24 108.5 24c43.333 0 79.5 -7.33301 108.5 -22s54.5 -37 76.5 -67l-35 -29c-20 25.333 -41.333 44.5 -64 57.5s-51.667 19.5 -87 19.5
c-57.333 0 -104.833 -19.833 -142.5 -59.5s-62.5 -95.834 -74.5 -168.501h275v-40h-279c-0.666992 -8.66699 -1.16699 -17 -1.5 -25s-0.5 -16.667 -0.5 -26c0 -8 0.166992 -15.833 0.5 -23.5s0.833008 -15.167 1.5 -22.5h279v-40h-276v0z" />
    <glyph glyph-name="trademark" unicode="&#x2122;" horiz-adv-x="787" 
d="M181 674v-382h-29v382h-126v26h280v-26h-125zM706 292v347l-147 -354h-2l-146 354v-347h-27v408h33l142 -350l142 350h32v-408h-27z" />
    <glyph glyph-name="Omega" unicode="&#x2126;" horiz-adv-x="366" 
d="M294 560c2 -2.66699 2.16699 -5.16699 0.5 -7.5s-3.5 -2.83301 -5.5 -1.5l-85 69v-620h-42v620l-85 -69c-2 -1.33301 -3.83301 -0.833008 -5.5 1.5s-1.5 4.83301 0.5 7.5l111 155l111 -155v0z" />
    <glyph glyph-name="partialdiff" unicode="&#x2202;" horiz-adv-x="366" 
d="M183 -15l-111 155c-2 2.66699 -2.16699 5.16699 -0.5 7.5s3.5 2.83301 5.5 1.5l85 -69v540l-85 -69c-2 -1.33301 -3.83301 -0.833008 -5.5 1.5s-1.5 4.83301 0.5 7.5l111 155l111 -155c2 -2.66699 2.16699 -5.16699 0.5 -7.5s-3.5 -2.83301 -5.5 -1.5l-85 69v-540l85 69
c2 1.33301 3.83301 0.833008 5.5 -1.5s1.5 -4.83301 -0.5 -7.5z" />
    <glyph glyph-name="Delta" unicode="&#x2206;" horiz-adv-x="613" 
d="M129 326l69 -84.999c1.33301 -2 0.833008 -3.83301 -1.5 -5.5s-4.83301 -1.5 -7.5 0.5l-155 111l155 112c2.66699 1.33301 5.16699 1.16602 7.5 -0.500977s2.83301 -3.5 1.5 -5.5l-69 -85h423v-42h-423z" />
    <glyph glyph-name="product" unicode="&#x220f;" 
d="M546 234c-2.66699 -2 -4.83398 -2.33301 -6.50098 -1s-1.83398 3.33301 -0.500977 6l69 88h-227v-255l88 70c3.33301 1.33301 5.5 1 6.5 -1s0.833008 -4 -0.5 -6l-114 -150l-113 150c-2 2 -2.33301 4 -1 6s3.33301 2.33301 6 1l88 -70v255h-229l69 -88
c1.33301 -2.66699 1.16602 -4.66699 -0.500977 -6s-3.83398 -1 -6.50098 1l-149 113l149 114c2.66699 1.33301 4.83398 1.5 6.50098 0.5s1.83398 -3.16699 0.500977 -6.5l-69 -88h229v261l-88 -70c-2.66699 -1.33301 -4.66699 -1 -6 1s-1 4 1 6l113 150l114 -150
c1.33301 -2 1.5 -4 0.5 -6s-3.16699 -2.33301 -6.5 -1l-88 70v-261h227l-69 88c-1.33301 3.33301 -1.16602 5.5 0.500977 6.5s3.83398 0.833008 6.50098 -0.5l149 -114z" />
    <glyph glyph-name="summation" unicode="&#x2211;" 
d="M546 234c-2.66699 -2 -4.83398 -2.33301 -6.50098 -1s-1.83398 3.33301 -0.500977 6l69 88h-227v-255l88 70c3.33301 1.33301 5.5 1 6.5 -1s0.833008 -4 -0.5 -6l-114 -150l-113 150c-2 2 -2.33301 4 -1 6s3.33301 2.33301 6 1l88 -70v255h-229l69 -88
c1.33301 -2.66699 1.16602 -4.66699 -0.500977 -6s-3.83398 -1 -6.50098 1l-149 113l149 114c2.66699 1.33301 4.83398 1.5 6.50098 0.5s1.83398 -3.16699 0.500977 -6.5l-69 -88h229v261l-88 -70c-2.66699 -1.33301 -4.66699 -1 -6 1s-1 4 1 6l113 150l114 -150
c1.33301 -2 1.5 -4 0.5 -6s-3.16699 -2.33301 -6.5 -1l-88 70v-261h227l-69 88c-1.33301 3.33301 -1.16602 5.5 0.500977 6.5s3.83398 0.833008 6.50098 -0.5l149 -114z" />
    <glyph glyph-name="minus" unicode="&#x2212;" 
d="M546 234c-2.66699 -2 -4.83398 -2.33301 -6.50098 -1s-1.83398 3.33301 -0.500977 6l69 88h-227v-255l88 70c3.33301 1.33301 5.5 1 6.5 -1s0.833008 -4 -0.5 -6l-114 -150l-113 150c-2 2 -2.33301 4 -1 6s3.33301 2.33301 6 1l88 -70v255h-229l69 -88
c1.33301 -2.66699 1.16602 -4.66699 -0.500977 -6s-3.83398 -1 -6.50098 1l-149 113l149 114c2.66699 1.33301 4.83398 1.5 6.50098 0.5s1.83398 -3.16699 0.500977 -6.5l-69 -88h229v261l-88 -70c-2.66699 -1.33301 -4.66699 -1 -6 1s-1 4 1 6l113 150l114 -150
c1.33301 -2 1.5 -4 0.5 -6s-3.16699 -2.33301 -6.5 -1l-88 70v-261h227l-69 88c-1.33301 3.33301 -1.16602 5.5 0.500977 6.5s3.83398 0.833008 6.50098 -0.5l149 -114z" />
    <glyph glyph-name="radical" unicode="&#x221a;" horiz-adv-x="554" 
d="M244 0h-42l-156 340h47l130 -288l240 648h45z" />
    <glyph glyph-name="infinity" unicode="&#x221e;" 
d="M546 234c-2.66699 -2 -4.83398 -2.33301 -6.50098 -1s-1.83398 3.33301 -0.500977 6l69 88h-227v-255l88 70c3.33301 1.33301 5.5 1 6.5 -1s0.833008 -4 -0.5 -6l-114 -150l-113 150c-2 2 -2.33301 4 -1 6s3.33301 2.33301 6 1l88 -70v255h-229l69 -88
c1.33301 -2.66699 1.16602 -4.66699 -0.500977 -6s-3.83398 -1 -6.50098 1l-149 113l149 114c2.66699 1.33301 4.83398 1.5 6.50098 0.5s1.83398 -3.16699 0.500977 -6.5l-69 -88h229v261l-88 -70c-2.66699 -1.33301 -4.66699 -1 -6 1s-1 4 1 6l113 150l114 -150
c1.33301 -2 1.5 -4 0.5 -6s-3.16699 -2.33301 -6.5 -1l-88 70v-261h227l-69 88c-1.33301 3.33301 -1.16602 5.5 0.500977 6.5s3.83398 0.833008 6.50098 -0.5l149 -114z" />
    <glyph glyph-name="integral" unicode="&#x222b;" horiz-adv-x="553" 
d="M423 0v78.998c-20 -25.333 -44.333 -46.666 -73 -63.999s-61.667 -26 -99 -26c-28 0 -53.833 5.16699 -77.5 15.5s-44.167 26.333 -61.5 48s-30.833 49.334 -40.5 83.001s-14.5 74.167 -14.5 121.5s5 88.5 15 123.5s23.833 64 41.5 87s38.667 40.167 63 51.5
s50.833 17 79.5 17c36 0 67.833 -8.16699 95.5 -24.5s51.5 -37.5 71.5 -63.5v77h44v-525h-44zM423 398.998c-17.333 28 -40.166 51.332 -68.499 69.999s-59.833 28 -94.5 28c-50.667 0 -89.834 -19.5 -117.501 -58.5s-41.5 -99.167 -41.5 -180.5
c0 -78.667 14.333 -136.667 43 -174s68 -56 118 -56c32.667 0 62.667 8.83301 90 26.5s51 40.834 71 69.501v275z" />
    <glyph glyph-name="approxequal" unicode="&#x2248;" horiz-adv-x="366" 
d="M183 -15l-111 155c-2 2.66699 -2.16699 5.16699 -0.5 7.5s3.5 2.83301 5.5 1.5l85 -69v620h42v-620l85 69c2 1.33301 3.83301 0.833008 5.5 -1.5s1.5 -4.83301 -0.5 -7.5z" />
    <glyph glyph-name="notequal" unicode="&#x2260;" 
d="M546 234c-2.66699 -2 -4.83398 -2.33301 -6.50098 -1s-1.83398 3.33301 -0.500977 6l69 88h-227v-255l88 70c3.33301 1.33301 5.5 1 6.5 -1s0.833008 -4 -0.5 -6l-114 -150l-113 150c-2 2 -2.33301 4 -1 6s3.33301 2.33301 6 1l88 -70v255h-229l69 -88
c1.33301 -2.66699 1.16602 -4.66699 -0.500977 -6s-3.83398 -1 -6.50098 1l-149 113l149 114c2.66699 1.33301 4.83398 1.5 6.50098 0.5s1.83398 -3.16699 0.500977 -6.5l-69 -88h229v261l-88 -70c-2.66699 -1.33301 -4.66699 -1 -6 1s-1 4 1 6l113 150l114 -150
c1.33301 -2 1.5 -4 0.5 -6s-3.16699 -2.33301 -6.5 -1l-88 70v-261h227l-69 88c-1.33301 3.33301 -1.16602 5.5 0.500977 6.5s3.83398 0.833008 6.50098 -0.5l149 -114z" />
    <glyph glyph-name="lessequal" unicode="&#x2264;" 
d="M546 234c-2.66699 -2 -4.83398 -2.33301 -6.50098 -1s-1.83398 3.33301 -0.500977 6l69 88h-227v-255l88 70c3.33301 1.33301 5.5 1 6.5 -1s0.833008 -4 -0.5 -6l-114 -150l-113 150c-2 2 -2.33301 4 -1 6s3.33301 2.33301 6 1l88 -70v255h-229l69 -88
c1.33301 -2.66699 1.16602 -4.66699 -0.500977 -6s-3.83398 -1 -6.50098 1l-149 113l149 114c2.66699 1.33301 4.83398 1.5 6.50098 0.5s1.83398 -3.16699 0.500977 -6.5l-69 -88h229v261l-88 -70c-2.66699 -1.33301 -4.66699 -1 -6 1s-1 4 1 6l113 150l114 -150
c1.33301 -2 1.5 -4 0.5 -6s-3.16699 -2.33301 -6.5 -1l-88 70v-261h227l-69 88c-1.33301 3.33301 -1.16602 5.5 0.500977 6.5s3.83398 0.833008 6.50098 -0.5l149 -114z" />
    <glyph glyph-name="greaterequal" unicode="&#x2265;" 
d="M546 234c-2.66699 -2 -4.83398 -2.33301 -6.50098 -1s-1.83398 3.33301 -0.500977 6l69 88h-227v-255l88 70c3.33301 1.33301 5.5 1 6.5 -1s0.833008 -4 -0.5 -6l-114 -150l-113 150c-2 2 -2.33301 4 -1 6s3.33301 2.33301 6 1l88 -70v255h-229l69 -88
c1.33301 -2.66699 1.16602 -4.66699 -0.500977 -6s-3.83398 -1 -6.50098 1l-149 113l149 114c2.66699 1.33301 4.83398 1.5 6.50098 0.5s1.83398 -3.16699 0.500977 -6.5l-69 -88h229v261l-88 -70c-2.66699 -1.33301 -4.66699 -1 -6 1s-1 4 1 6l113 150l114 -150
c1.33301 -2 1.5 -4 0.5 -6s-3.16699 -2.33301 -6.5 -1l-88 70v-261h227l-69 88c-1.33301 3.33301 -1.16602 5.5 0.500977 6.5s3.83398 0.833008 6.50098 -0.5l149 -114z" />
    <glyph glyph-name="lozenge" unicode="&#x25ca;" 
d="M546 234c-2.66699 -2 -4.83398 -2.33301 -6.50098 -1s-1.83398 3.33301 -0.500977 6l69 88h-227v-255l88 70c3.33301 1.33301 5.5 1 6.5 -1s0.833008 -4 -0.5 -6l-114 -150l-113 150c-2 2 -2.33301 4 -1 6s3.33301 2.33301 6 1l88 -70v255h-229l69 -88
c1.33301 -2.66699 1.16602 -4.66699 -0.500977 -6s-3.83398 -1 -6.50098 1l-149 113l149 114c2.66699 1.33301 4.83398 1.5 6.50098 0.5s1.83398 -3.16699 0.500977 -6.5l-69 -88h229v261l-88 -70c-2.66699 -1.33301 -4.66699 -1 -6 1s-1 4 1 6l113 150l114 -150
c1.33301 -2 1.5 -4 0.5 -6s-3.16699 -2.33301 -6.5 -1l-88 70v-261h227l-69 88c-1.33301 3.33301 -1.16602 5.5 0.500977 6.5s3.83398 0.833008 6.50098 -0.5l149 -114z" />
    <glyph glyph-name="fi" unicode="&#xfb01;" horiz-adv-x="563" 
d="M482 672c0 -8.66699 -3.16699 -16.167 -9.5 -22.5s-13.5 -9.5 -21.5 -9.5c-9.33301 0 -17.166 3.16699 -23.499 9.5s-9.5 13.833 -9.5 22.5c0 9.33301 3.16699 17 9.5 23s14.166 9 23.499 9c8 0 15.167 -3 21.5 -9s9.5 -13.667 9.5 -23zM302 673
c-7.33301 3.33301 -16.168 6.16797 -26.501 8.50098s-22.166 3.5 -35.499 3.5c-19.333 0 -36 -5.5 -50 -16.5s-21 -31.833 -21 -62.5v-81h122v-37h-122v-488h-44v488h-78v37h78v77c0 45.333 10.667 77.166 32 95.499s48 27.5 80 27.5c15.333 0 28.333 -1 39 -3
s19.667 -4.33301 27 -7zM427.998 0.00195312v525h44v-525h-44z" />
    <glyph glyph-name="fl" unicode="&#xfb02;" horiz-adv-x="563" 
d="M428 0v704l44 25v-729h-44zM302 673c-7.33301 3.33301 -16.168 6.16797 -26.501 8.50098s-22.166 3.5 -35.499 3.5c-19.333 0 -36 -5.5 -50 -16.5s-21 -31.833 -21 -62.5v-81h122v-37h-122v-488h-44v488h-78v37h78v77c0 45.333 10.667 77.166 32 95.499s48 27.5 80 27.5
c15.333 0 28.333 -1 39 -3s19.667 -4.33301 27 -7z" />
    <glyph glyph-name="NUL" horiz-adv-x="0" 
 />
    <glyph glyph-name="nonmarkingreturn" horiz-adv-x="251" 
 />
    <glyph glyph-name="percent" horiz-adv-x="908" 
d="M369 502c0 -64 -14.001 -114.668 -42.001 -152.001s-65.667 -56 -113 -56s-84.666 18.5 -111.999 55.5s-41 87.5 -41 151.5c0 64.667 13.667 115.834 41 153.501s65 56.5 113 56.5c48.667 0 86.5 -18.667 113.5 -56s40.5 -88.333 40.5 -153zM257.999 -0.000976562h-44
l435 700h44zM845.999 197.999c0 -64.667 -13.834 -115.667 -41.501 -153s-65.167 -56 -112.5 -56s-84.666 18.5 -111.999 55.5s-41 87.833 -41 152.5s13.667 115.667 41 153s65 56 113 56s85.5 -18.667 112.5 -56s40.5 -88 40.5 -152zM327.998 500.999
c0 54 -10 96.499 -30 127.499s-47.667 46.5 -83 46.5c-36 0 -63.833 -15.333 -83.5 -46s-29.5 -73 -29.5 -127c0 -53.333 10 -95.333 30 -126s47.667 -46 83 -46c36 0 63.833 15.833 83.5 47.5s29.5 72.834 29.5 123.501zM804.998 196.998
c0 53.333 -9.83301 95.5 -29.5 126.5s-47.5 46.5 -83.5 46.5c-35.333 0 -62.833 -15.333 -82.5 -46s-29.5 -72.667 -29.5 -126s9.83301 -95.5 29.5 -126.5s47.5 -46.5 83.5 -46.5s63.667 15.833 83 47.5s29 73.167 29 124.5z" />
    <glyph glyph-name="apple" 
d="M546 234c-2.66699 -2 -4.83398 -2.33301 -6.50098 -1s-1.83398 3.33301 -0.500977 6l69 88h-227v-255l88 70c3.33301 1.33301 5.5 1 6.5 -1s0.833008 -4 -0.5 -6l-114 -150l-113 150c-2 2 -2.33301 4 -1 6s3.33301 2.33301 6 1l88 -70v255h-229l69 -88
c1.33301 -2.66699 1.16602 -4.66699 -0.500977 -6s-3.83398 -1 -6.50098 1l-149 113l149 114c2.66699 1.33301 4.83398 1.5 6.50098 0.5s1.83398 -3.16699 0.500977 -6.5l-69 -88h229v261l-88 -70c-2.66699 -1.33301 -4.66699 -1 -6 1s-1 4 1 6l113 150l114 -150
c1.33301 -2 1.5 -4 0.5 -6s-3.16699 -2.33301 -6.5 -1l-88 70v-261h227l-69 88c-1.33301 3.33301 -1.16602 5.5 0.500977 6.5s3.83398 0.833008 6.50098 -0.5l149 -114z" />
    </font>
</defs>
</svg>
